<svg enable-background="new 0 0 128 128" viewBox="0 0 128 128" xmlns="http://www.w3.org/2000/svg"><g id="Layer_30"/><g id="Layer_29"/><g id="Layer_28"/><g id="Layer_27"/><g id="Layer_26"/><g id="Layer_25"/><g id="Layer_24"/><g id="Layer_23"/><g id="Layer_22"/><g id="Layer_21"/><g id="Layer_20"/><g id="Layer_19"/><g id="Layer_18"/><g id="Layer_17"/><g id="Layer_16"/><g id="Layer_15"/><g id="Layer_14"/><g id="Layer_13"/><g id="Layer_12"/><g id="Layer_11"/><g id="Layer_10"/><g id="Layer_9"/><g id="Layer_8"/><g id="Layer_7"><g><g><g id="XMLID_46_"><g id="XMLID_47_"><path d="m111.6 15.6 3.9 2.1-3.9 2.1-2.1 3.9-2.1-3.9-3.9-2.1 3.9-2.1 2.1-3.9z" fill="#87bee7"/></g></g><g id="XMLID_43_"><g id="XMLID_44_"><path d="m111.6 110.5 3.9 2.1-3.9 2.1-2.1 3.9-2.1-3.9-3.9-2.1 3.9-2.1 2.1-3.9z" fill="#1a7bbf"/></g></g></g><g><g id="XMLID_173_"><g id="XMLID_186_"><path d="m2 21.4h85.3v104.6h-85.3z" fill="#87bee7"/></g><g id="XMLID_183_"><g id="XMLID_185_"><path d="m59.4 118.2h-48.8v-88.9h68v71.2z" fill="#fff"/></g><g id="XMLID_184_"><path d="m59.4 118.2v-17.7h19.2z" fill="#1a7bbf"/></g></g><g id="XMLID_179_"><g id="XMLID_182_"><path d="m62.6 52.3h-28.5c-1.1 0-2-.9-2-2s.9-2 2-2h28.4c1.1 0 2 .9 2 2s-.8 2-1.9 2z" fill="#1a7bbf"/></g><g id="XMLID_181_"><path d="m62.6 70.9h-28.5c-1.1 0-2-.9-2-2s.9-2 2-2h28.4c1.1 0 2 .9 2 2s-.8 2-1.9 2z" fill="#1a7bbf"/></g><g id="XMLID_22_"><path d="m52.3 89.6h-18.2c-1.1 0-2-.9-2-2s.9-2 2-2h18.1c1.1 0 2 .9 2 2s-.8 2-1.9 2z" fill="#1a7bbf"/></g></g><g id="XMLID_178_"><path d="m20.8 54.9c-.5 0-1-.2-1.3-.5l-3.8-3.4c-.8-.7-.9-2-.1-2.8.7-.8 2-.9 2.8-.1l2.3 2.1 5.8-6c.8-.8 2-.8 2.8 0s.8 2 0 2.8l-7.1 7.3c-.4.4-.9.6-1.4.6z" fill="#1a7bbf"/></g><g id="XMLID_177_"><path d="m20.8 73.5c-.5 0-1-.2-1.4-.6l-4-3.9c-.8-.8-.8-2 0-2.8s2-.8 2.8 0l2.5 2.5 5.7-5.9c.8-.8 2-.8 2.8 0s.8 2 0 2.8l-7.1 7.3c-.3.3-.8.6-1.3.6z" fill="#1a7bbf"/></g><g id="XMLID_174_"><g id="XMLID_176_"><path d="m25 92.7c-.5 0-1-.2-1.4-.6l-6.6-6.6c-.8-.8-.8-2 0-2.8s2-.8 2.8 0l6.6 6.6c.8.8.8 2 0 2.8-.4.4-.9.6-1.4.6z" fill="#1a7bbf"/></g><g id="XMLID_175_"><path d="m18.4 93c-.5 0-1-.2-1.4-.6-.8-.8-.8-2 0-2.8l6.6-6.6c.8-.8 2-.8 2.8 0s.8 2 0 2.8l-6.6 6.6c-.4.4-.9.6-1.4.6z" fill="#1a7bbf"/></g></g><g id="XMLID_189_"><path d="m55.4 15.3h-2.2v-4.6c0-4.8-3.9-8.6-8.6-8.6-4.7-.1-8.6 3.8-8.6 8.5v4.6h-2.2c-4.7 0-8.6 3.9-8.6 8.6 0 4.8 3.9 8.6 8.6 8.6h21.6c4.7 0 8.6-3.9 8.6-8.6 0-4.6-3.8-8.5-8.6-8.5z" fill="#1a7bbf"/></g></g><g><g id="XMLID_503_"><path d="m67.4 86.3 25.4-44.2c1.6-2.8 5.6-2.8 7.2 0l25.4 44.2c1.6 2.8-.4 6.3-3.6 6.3h-50.8c-3.2 0-5.2-3.5-3.6-6.3z" fill="#68dbaf"/></g><g><path d="m104.4 78.6c0 3.2-2 6.1-5.1 7.5l-.2.1s.1-7.3-.2-7.3c0 0-3.1-1.8-3.2-1.7l-2.7 1.6c-.1.1-.1 7.4-.1 7.4l-.6-.2c-3.7-2.2-5.4-7-4.1-10.7.8-2.1 2.3-3.5 4.2-4.4v-15.9c0-1.5 1.2-2.6 2.6-2.6h1.8c1.5 0 2.6 1.2 2.7 2.7l.2 16.3c2.7 1.3 4.7 4.1 4.7 7.2z" fill="#239198"/></g></g></g></g></g><g id="Layer_6"/><g id="Layer_5"/><g id="Layer_4"/><g id="Layer_3"/><g id="Layer_2"/><g id="Layer_1"/></svg>