<svg id="Layer_1" enable-background="new 0 0 56 56" height="512" viewBox="0 0 56 56" width="512" xmlns="http://www.w3.org/2000/svg"><g id="_x31_32"><g><path d="m52 28.5v4.6l-.5.3-.5.2v2.8l-.5.3-.7-.4.1-2.8-.2-.2v.3l-13.8 8v.1l-2-1.2v3l-.5.3-.5.3v2.7l-.5.3-.6-.4v-2.8l-1-1.6v-3.6l-.7-.4v3l-.5.3-.5.3v2.7l-.5.3-.7-.4v-2.8l-1-1.6v-3.6l-.6-.4v3l-.5.3-.6.3v2.7l-.4.3-.7-.4v-2.8l-1-1.6v-3.7l-.7-.4v3.1l-.4.3-.6.3v2.7l-.5.3-.6-.4v-2.8l-1-1.6v-3.7l-.7-.4v3.1l-.5.3-.5.3v2.7l-.5.3-.6-.4v-2.8l-1-1.7v-3.6l-.7-.4v3.1l-.5.3-.5.2v2.8l-.5.3-.7-.4.1-2.8-1.1-1.7v-3.6l-.6-.4v3.1l-.5.3-.5.2-.1 2.8-.4.2-.7-.3v-2.8l-1-1.7v-3.6l-.7-.4v3.1l-.4.3-.6.2v2.8l-.5.2-.6-.3v-2.8l-1-1.7v-4.1-.5l.9-.5-.1-4.8 13.9-8 31 18v.3z" fill="#b0b8cf"/></g><g><g><g><g><g><path d="m50.5 33.9.5-.3v2.8l-.5.3z" fill="#9ea9c9"/></g></g><g><g><path d="m51.5 29.3.5-.3v4.1l-.5.3z" fill="#9ea9c9"/></g></g><g><g><path d="m48.9 27.7.4-.3 2.7 1.6-.5.3z" fill="#e3e7f0"/></g></g><g><g><path d="m51.5 29.3v4.1l-1 .5v2.8l-.6-.4v-2.8l-1.1-1.7.1-4.1z" fill="#b0b8cf"/></g></g><g enable-background="new"><g><g><path d="m52 28.5v.6l-1.9 1.1v-.6z" fill="#9ea9c9"/></g></g><g><g><path d="m50.1 29.6v.6l-2.6-1.5v-.6z" fill="#b0b8cf"/></g></g><g><g><path d="m52 28.5-1.9 1.1-2.6-1.5 1.8-1.1z" fill="#e3e7f0"/></g></g></g><g enable-background="new"><g><g><path d="m46.7 31.7.5-.3v2.8l-.5.2z" fill="#9ea9c9"/></g></g><g><g><path d="m47.7 27.1.5-.3v4.1l-.5.3z" fill="#9ea9c9"/></g></g><g><g><path d="m45 25.5.5-.3 2.7 1.6-.5.3z" fill="#e3e7f0"/></g></g><g><g><path d="m47.7 27.1v4.1l-1 .5v2.7l-.7-.3v-2.8l-1-1.7v-4.1z" fill="#b0b8cf"/></g></g></g><g><g enable-background="new"><g><g><path d="m48.2 26.3v.6l-1.9 1.1v-.6z" fill="#9ea9c9"/></g></g><g><g><path d="m46.3 27.4v.6l-2.7-1.5v-.7z" fill="#b0b8cf"/></g></g><g><g><path d="m48.2 26.3-1.9 1.1-2.7-1.6 1.9-1z" fill="#e3e7f0"/></g></g></g></g><g enable-background="new"><g><g><path d="m42.9 29.5.4-.3v2.8l-.4.2z" fill="#9ea9c9"/></g></g><g><g><path d="m43.9 24.9.5-.3v4.1l-.5.3z" fill="#9ea9c9"/></g></g><g><g><path d="m41.2 23.3.5-.3 2.7 1.6-.5.3z" fill="#e3e7f0"/></g></g><g><g><path d="m43.9 24.9v4.1l-1 .5v2.7l-.7-.3v-2.8l-1-1.7v-4.1z" fill="#b0b8cf"/></g></g></g><g><g enable-background="new"><g><g><path d="m44.4 24.1v.6l-1.9 1.1v-.6z" fill="#9ea9c9"/></g></g><g><g><path d="m42.5 25.2v.6l-2.7-1.5v-.7z" fill="#b0b8cf"/></g></g><g><g><path d="m44.4 24.1-1.9 1.1-2.7-1.6 1.9-1.1z" fill="#e3e7f0"/></g></g></g></g><g enable-background="new"><g><g><path d="m39 27.2.5-.2v2.8l-.5.2z" fill="#9ea9c9"/></g></g><g><g><path d="m40.1 22.6.4-.2v4.1l-.4.3z" fill="#9ea9c9"/></g></g><g><g><path d="m37.4 21.1.5-.3 2.6 1.6-.4.2z" fill="#e3e7f0"/></g></g><g><g><path d="m40.1 22.6v4.2l-1.1.4v2.8l-.6-.3v-2.8l-1-1.7v-4.1z" fill="#b0b8cf"/></g></g></g><g><g enable-background="new"><g><g><path d="m40.5 21.9v.6l-1.8 1.1v-.6z" fill="#9ea9c9"/></g></g><g><g><path d="m38.7 23v.6l-2.7-1.5v-.7z" fill="#b0b8cf"/></g></g><g><g><path d="m40.5 21.9-1.8 1.1-2.7-1.6 1.9-1.1z" fill="#e3e7f0"/></g></g></g></g><g enable-background="new"><g><g><path d="m35.2 25 .5-.2v2.7l-.5.3z" fill="#9ea9c9"/></g></g><g><g><path d="m36.2 20.4.5-.2v4.1l-.5.2z" fill="#9ea9c9"/></g></g><g><g><path d="m33.6 18.9.4-.3 2.7 1.6-.5.2z" fill="#e3e7f0"/></g></g><g><g><path d="m36.2 20.4v4.1l-1 .5v2.8l-.6-.4v-2.7l-1-1.7v-4.1z" fill="#b0b8cf"/></g></g></g><g><g enable-background="new"><g><g><path d="m36.7 19.7v.6l-1.9 1.1v-.6z" fill="#9ea9c9"/></g></g><g><g><path d="m34.8 20.8v.6l-2.6-1.5v-.7z" fill="#b0b8cf"/></g></g><g><g><path d="m36.7 19.7-1.9 1.1-2.6-1.6 1.8-1.1z" fill="#e3e7f0"/></g></g></g></g><g enable-background="new"><g><g><path d="m31.4 22.8.5-.2v2.7l-.5.3z" fill="#9ea9c9"/></g></g><g><g><path d="m32.4 18.2.5-.2v4.1l-.5.2z" fill="#9ea9c9"/></g></g><g><g><path d="m29.7 16.7.5-.3 2.7 1.6-.5.2z" fill="#e3e7f0"/></g></g><g><g><path d="m32.4 18.2v4.1l-1 .5v2.8l-.7-.4v-2.7l-1-1.7v-4.1z" fill="#b0b8cf"/></g></g></g><g><g enable-background="new"><g><g><path d="m32.9 17.5v.6l-1.9 1.1v-.6z" fill="#9ea9c9"/></g></g><g><g><path d="m31 18.6v.6l-2.7-1.6v-.6z" fill="#b0b8cf"/></g></g><g><g><path d="m32.9 17.5-1.9 1.1-2.7-1.6 1.9-1.1z" fill="#e3e7f0"/></g></g></g></g><g enable-background="new"><g><g><path d="m27.6 20.6.4-.3v2.8l-.4.3z" fill="#9ea9c9"/></g></g><g><g><path d="m28.6 16 .5-.3v4.2l-.5.2z" fill="#9ea9c9"/></g></g><g><g><path d="m25.9 14.5.5-.3 2.7 1.5-.5.3z" fill="#e3e7f0"/></g></g><g><g><path d="m28.6 16v4.1l-1 .5v2.8l-.7-.4v-2.8l-1-1.6v-4.1z" fill="#b0b8cf"/></g></g></g><g><g enable-background="new"><g><g><path d="m29.1 15.3v.6l-1.9 1.1v-.7z" fill="#9ea9c9"/></g></g><g><g><path d="m27.2 16.3v.7l-2.7-1.6v-.6z" fill="#b0b8cf"/></g></g><g><g><path d="m29.1 15.3-1.9 1-2.7-1.5 1.9-1.1z" fill="#e3e7f0"/></g></g></g></g><g enable-background="new"><g><g><path d="m23.8 18.4.4-.3v2.8l-.5.3z" fill="#9ea9c9"/></g></g><g><g><path d="m24.8 13.8.4-.3v4.1l-.4.3z" fill="#9ea9c9"/></g></g><g><g><path d="m22.1 12.3.5-.3 2.6 1.5-.4.3z" fill="#e3e7f0"/></g></g><g><g><path d="m24.8 13.8v4.1l-1 .5-.1 2.8-.6-.4v-2.8l-1-1.6v-4.1z" fill="#b0b8cf"/></g></g></g><g><g enable-background="new"><g><g><path d="m25.2 13.1v.6l-1.8 1.1v-.7z" fill="#9ea9c9"/></g></g><g><g><path d="m23.4 14.1v.7l-2.7-1.6v-.6z" fill="#b0b8cf"/></g></g><g><g><path d="m25.2 13.1-1.8 1-2.7-1.5 1.9-1.1z" fill="#e3e7f0"/></g></g></g></g></g><g><g><g enable-background="new"><g><g><g><path d="m35.9 41.5-31-18.1 13.8-7.9 31 18z" fill="#414f65"/></g></g></g></g><g enable-background="new"><g><g><g><path d="m35.9 40.7-31-18.1 13.8-8 31 18.1z" fill="#c3c7cf"/></g></g></g><g><g><g><path d="m49.7 32.7v.9l-13.8 8v-.9z" fill="#1d2943"/></g></g></g></g><g enable-background="new"><g><path d="m49.7 26.9-31-18-13.9 8 .1 5.7 31 18.1 13.8-8z" fill="#1d2943"/></g><g><g><g><path d="m35.9 40.7-31-18.1-.1-5.7 31.1 18z" fill="#111d33"/></g></g></g><g><g><g><path d="m35.9 34.9-31.1-18 13.9-8 31 18z" fill="#4c5c75"/></g></g><g><g><path d="m35.9 33.8-29-16.9 11.8-6.8.1.1 28.9 16.8zm-28.4-16.9 28.3 16.5 11.2-6.5-28.3-16.4z" fill="#c9cee2"/></g></g></g><g><g><g><path d="m49.7 26.9v5.8l-13.8 8v-5.8z" fill="#1d2943"/></g></g></g></g></g><g><g><path d="m32.3 26.1c1.7-1 4.5-1 6.2 0 .6.3.9.7 1.1 1.1.4-.8 0-1.8-1.1-2.5-1.7-1-4.5-1-6.2 0-1.1.7-1.5 1.6-1.1 2.4.2-.3.5-.7 1.1-1z" fill="#111d33"/></g><g><path d="m32.3 28.4c1.7 1 4.5 1 6.2 0 .6-.3.9-.7 1.1-1.1-.2-.4-.6-.8-1.1-1.1-1.7-1-4.5-1-6.2 0-.6.3-.9.7-1.1 1.1.2.4.6.8 1.1 1.1z" fill="#adb2c3"/></g></g></g><g><g><path d="m25.3 26.6c-.6 0-1.2.3-1.6.7s-.6 1-.6 1.7c0-1.3-1-2.4-2.2-2.4.6 0 1.2-.3 1.6-.7s.6-1 .6-1.7c0 .6.2 1.3.6 1.7s.9.7 1.6.7z" fill="#fff"/></g></g><g><g><g><path d="m35.9 41.7-31-18.1v-1.2l31 18z" fill="#111d33"/></g></g></g><g><g><g enable-background="new"><g><g><path d="m32.4 44.3.5-.3v2.8l-.5.3z" fill="#9ea9c9"/></g></g><g><g><path d="m33.4 39.7.5-.3v4.1l-.5.3z" fill="#9ea9c9"/></g></g><g><g><path d="m30.8 38.2.4-.3 2.7 1.5-.5.3z" fill="#e3e7f0"/></g></g><g><g><path d="m33.4 39.7v4.1l-1 .5v2.8l-.6-.4v-2.8l-1-1.6v-4.1z" fill="#b0b8cf"/></g></g></g><g><g enable-background="new"><g><g><path d="m35.3 38.1v.7l-1.9 1.1v-.7z" fill="#9ea9c9"/></g></g><g><g><path d="m33.4 39.2v.7l-2.6-1.6v-.6z" fill="#b0b8cf"/></g></g><g><g><path d="m35.3 38.1-1.9 1.1-2.6-1.5 1.8-1.1z" fill="#e3e7f0"/></g></g></g></g></g><g><g enable-background="new"><g><g><path d="m28.6 42.1.5-.3v2.8l-.5.3z" fill="#9ea9c9"/></g></g><g><g><path d="m29.6 37.5.5-.3v4.1l-.5.3z" fill="#9ea9c9"/></g></g><g><g><path d="m26.9 36 .5-.3 2.7 1.5-.5.3z" fill="#e3e7f0"/></g></g><g><g><path d="m29.6 37.5v4.1l-1 .5v2.8l-.7-.4v-2.8l-1-1.6v-4.1z" fill="#b0b8cf"/></g></g></g><g><g enable-background="new"><g><g><path d="m31.5 35.9v.7l-1.9 1.1v-.7z" fill="#9ea9c9"/></g></g><g><g><path d="m29.6 37v.7l-2.7-1.6v-.6z" fill="#b0b8cf"/></g></g><g><g><path d="m31.5 35.9-1.9 1.1-2.7-1.5 1.9-1.1z" fill="#e3e7f0"/></g></g></g></g></g><g><g enable-background="new"><g><g><path d="m24.8 39.9.4-.3v2.8l-.4.3z" fill="#9ea9c9"/></g></g><g><g><path d="m25.8 35.3.5-.3v4.1l-.5.3z" fill="#9ea9c9"/></g></g><g><g><path d="m23.1 33.8.5-.3 2.7 1.5-.5.3z" fill="#e3e7f0"/></g></g><g><g><path d="m25.8 35.3v4.1l-1 .5v2.8l-.7-.4v-2.8l-1-1.6v-4.1z" fill="#b0b8cf"/></g></g></g><g><g enable-background="new"><g><g><path d="m27.7 33.7v.7l-1.9 1v-.6z" fill="#9ea9c9"/></g></g><g><g><path d="m25.8 34.8v.6l-2.7-1.5v-.6z" fill="#b0b8cf"/></g></g><g><g><path d="m27.7 33.7-1.9 1.1-2.7-1.5 1.9-1.1z" fill="#e3e7f0"/></g></g></g></g></g><g><g enable-background="new"><g><g><path d="m20.9 37.7.5-.3v2.8l-.5.3z" fill="#9ea9c9"/></g></g><g><g><path d="m22 33.1.4-.3v4.1l-.4.3z" fill="#9ea9c9"/></g></g><g><g><path d="m19.3 31.5.5-.2 2.6 1.5-.4.3z" fill="#e3e7f0"/></g></g><g><g><path d="m22 33.1v4.1l-1.1.5v2.8l-.6-.4v-2.8l-1-1.6v-4.2z" fill="#b0b8cf"/></g></g></g><g><g enable-background="new"><g><g><path d="m23.8 31.5v.7l-1.8 1v-.6z" fill="#9ea9c9"/></g></g><g><g><path d="m22 32.6v.6l-2.7-1.5v-.6z" fill="#b0b8cf"/></g></g><g><g><path d="m23.8 31.5-1.8 1.1-2.7-1.5 1.9-1.1z" fill="#e3e7f0"/></g></g></g></g></g><g><g enable-background="new"><g><g><path d="m17.1 35.5.5-.3v2.8l-.5.3z" fill="#9ea9c9"/></g></g><g><g><path d="m18.1 30.9.5-.3v4.1l-.5.3z" fill="#9ea9c9"/></g></g><g><g><path d="m15.5 29.3.4-.2 2.7 1.5-.5.3z" fill="#e3e7f0"/></g></g><g><g><path d="m18.1 30.9v4.1l-1 .5v2.8l-.6-.4v-2.8l-1-1.7v-4.1z" fill="#b0b8cf"/></g></g></g><g><g enable-background="new"><g><g><path d="m20 29.3v.6l-1.8 1.1v-.6z" fill="#9ea9c9"/></g></g><g><g><path d="m18.2 30.4v.6l-2.7-1.5v-.6z" fill="#b0b8cf"/></g></g><g><g><path d="m20 29.3-1.8 1.1-2.7-1.5 1.8-1.1z" fill="#e3e7f0"/></g></g></g></g></g><g><g enable-background="new"><g><g><path d="m13.3 33.3.5-.3v2.8l-.5.3z" fill="#9ea9c9"/></g></g><g><g><path d="m14.3 28.7.5-.3v4.1l-.5.3z" fill="#9ea9c9"/></g></g><g><g><path d="m11.7 27.1.4-.2 2.7 1.5-.5.3z" fill="#e3e7f0"/></g></g><g><g><path d="m14.3 28.7v4.1l-1 .5v2.8l-.7-.4.1-2.8-1.1-1.7.1-4.1z" fill="#b0b8cf"/></g></g></g><g><g enable-background="new"><g><g><path d="m16.2 27.1v.6l-1.9 1.1v-.6z" fill="#9ea9c9"/></g></g><g><g><path d="m14.3 28.2v.6l-2.6-1.5v-.7z" fill="#b0b8cf"/></g></g><g><g><path d="m16.2 27.1-1.9 1.1-2.6-1.6 1.8-1z" fill="#e3e7f0"/></g></g></g></g></g><g><g enable-background="new"><g><g><path d="m9.5 31.1.5-.3-.1 2.8-.4.2z" fill="#9ea9c9"/></g></g><g><g><path d="m10.5 26.5.5-.3v4.1l-.5.3z" fill="#9ea9c9"/></g></g><g><g><path d="m7.8 24.9.5-.3 2.7 1.6-.5.3z" fill="#e3e7f0"/></g></g><g><g><path d="m10.5 26.5v4.1l-1 .5v2.7l-.7-.3v-2.8l-1-1.7v-4.1z" fill="#b0b8cf"/></g></g></g><g><g enable-background="new"><g><g><path d="m12.4 24.9v.6l-1.9 1.1v-.6z" fill="#9ea9c9"/></g></g><g><g><path d="m10.5 26v.6l-2.7-1.5v-.7z" fill="#b0b8cf"/></g></g><g><g><path d="m12.4 24.9-1.9 1.1-2.7-1.6 1.9-1z" fill="#e3e7f0"/></g></g></g></g></g><g><g enable-background="new"><g><g><path d="m5.7 28.9.4-.3v2.8l-.4.2z" fill="#9ea9c9"/></g></g><g><g><path d="m6.7 24.3.5-.3-.1 4.1-.4.3z" fill="#9ea9c9"/></g></g><g><g><path d="m4 22.7.5-.3 2.7 1.6-.5.3z" fill="#e3e7f0"/></g></g><g><g><path d="m6.7 24.3v4.1l-1 .5v2.7l-.7-.3v-2.8l-1-1.7v-4.1z" fill="#b0b8cf"/></g></g></g><g><g enable-background="new"><g><g><path d="m8.6 22.7v.6l-1.9 1.1v-.6z" fill="#9ea9c9"/></g></g><g><g><path d="m6.7 23.8v.6l-2.7-1.5v-.7z" fill="#b0b8cf"/></g></g><g><g><path d="m8.6 22.7-1.9 1.1-2.7-1.6 1.9-1.1z" fill="#e3e7f0"/></g></g></g></g></g></g></g><g><g enable-background="new"><g><g><path d="m22.1 13.8-1 .6h-.1c-.1 0-.1 0-.1 0s-.1 0-.1-.1c0 0 0-.1.1-.1l.3-.2-1.5-.9-.1.3s0 0-.1.1h-.1c-.1 0-.1 0-.1 0-.1 0-.1-.1 0-.1l.2-.4s0 0 .1-.1h.1.2.2l1.7 1 .3-.2h.1c-.3-.1-.2 0-.1.1 0-.1 0-.1 0 0z" fill="#c9cee2"/></g></g><g><g><path d="m20 14.9c-.1.1-.2.2-.3.3-.3.1-.5.3-.9.3h-.1-.1s-.1 0-.1-.1c0 0 0-.1.1-.1h.1c.3-.1.5-.1.7-.3.3-.2.4-.4.2-.5-.1 0-.1 0-.2 0s-.2 0-.3 0-.2.1-.4.1c-.2.1-.4.1-.5.2-.1 0-.3.1-.4 0-.2 0-.3 0-.4-.1s-.2-.1-.2-.2 0-.2 0-.3c.1-.1.2-.2.3-.3.2-.1.5-.2.7-.3h.2s.1 0 .1.1c0 0 0 .1-.1.1 0 0 0 0-.1 0-.2.1-.4.1-.6.2s-.3.2-.3.3 0 .2.1.2.1.1.2.1h.3c.1 0 .2-.1.4-.1.2-.1.4-.1.5-.2h.4c.2 0 .3.1.4.1.1.1.2.1.2.2.2.2.2.2.1.3z" fill="#c9cee2"/></g><g><path d="m18.5 15.7s-.1 0-.2 0-.1 0-.1 0l-1 .6-1.7-1h-.1c-.1 0-.1 0-.2 0 0 0-.1.1-.1.1s0 .1.1.1l1.8 1h.2.2l1.1-.6c.1-.1.1-.1 0-.2.1.1.1 0 0 0z" fill="#c9cee2"/></g></g><g><g><path d="m16.1 16.6c-.1-.1-.2-.3-.4-.4s-.4-.2-.6-.2-.5-.1-.8 0c-.3 0-.5.1-.7.3l-.6.3s-.1.1-.1.1 0 .1.1.1l1.8 1.1h.1.1l.6-.4c.2-.1.4-.3.4-.4.2-.2.2-.3.1-.5zm-1.2-.4c.2 0 .4.1.5.2.2.1.3.2.3.3.1.1 0 .2 0 .3-.1.1-.2.2-.3.3l-.4.3-1.6-.9.4-.2c.2-.1.3-.2.5-.2.3-.1.5-.1.6-.1z" fill="#c9cee2"/></g></g><g><g><path d="m14.1 18.3c0 .1-.1.3-.3.4-.1.1-.3.1-.5.2-.1 0-.1 0-.2 0 0 0-.1 0-.1-.1v-.1h.1c.1 0 .2-.1.3-.1.1-.1.2-.1.2-.2s-.1-.2-.2-.3l-1.3-.8s-.1-.1-.1-.1 0-.1.1-.1h.2.1l1.3.7c.3.2.4.3.4.5z" fill="#c9cee2"/></g></g></g></g></g></g></svg>