<svg id="Capa_1" enable-background="new 0 0 512 512" height="512" viewBox="0 0 512 512" width="512" xmlns="http://www.w3.org/2000/svg"><g><path d="m434.026 0h-75.766l-5.574 4.965h-47.389l-5.067-4.965h-75.767c-7.98 0-14.511 6.529-14.511 14.511v209.562c0 7.981 6.53 14.512 14.511 14.512h209.563c7.98 0 14.511-6.53 14.511-14.512v-209.562c0-7.982-6.53-14.511-14.511-14.511z" fill="#fbc481"/><path d="m261.62 224.073v-209.562c0-7.982 6.53-14.511 14.51-14.511h-51.667c-7.98 0-14.511 6.529-14.511 14.511v209.562c0 7.981 6.53 14.512 14.511 14.512h51.667c-7.98 0-14.51-6.531-14.51-14.512z" fill="#dd9973"/><path d="m300.23 0v91.872c0 4.034 4.479 6.456 7.855 4.247l18.381-12.028c1.688-1.105 3.87-1.105 5.559 0l18.381 12.028c3.376 2.209 7.855-.213 7.855-4.247v-91.872z" fill="#d6865f"/><g><path d="m329.245 0h-29.015v91.872c0 4.034 4.479 6.456 7.855 4.247l18.381-12.028c.844-.553 1.812-.829 2.779-.829z" fill="#b97359"/></g><path d="m306.006 130.706h-52.421c-7.426 0-13.447 6.02-13.447 13.447v53.386c0 7.426 6.02 13.447 13.447 13.447h52.421c7.426 0 13.447-6.02 13.447-13.447v-53.386c0-7.427-6.02-13.447-13.447-13.447z" fill="#ffeddc"/><path d="m279.796 197.539v-53.387c0-7.426 6.02-13.447 13.447-13.447h-39.657c-7.426 0-13.447 6.02-13.447 13.447v53.387c0 7.426 6.02 13.447 13.447 13.447h39.657c-7.427 0-13.447-6.02-13.447-13.447z" fill="#fcd5ac"/><path d="m462.465 274.931c-11.528-8.243-27.454-5.436-35.572 6.269l-46.553 67.127c-.604.87-1.308 1.647-2.072 2.353l-1.477 1.224 2.701 2.701h12.512l78.981-50.972 2.279-4.811c.219-8.696-3.542-18.702-10.799-23.891z" fill="#ffcebe"/><path d="m456.082 281.2c1.764-2.543 3.896-4.665 6.271-6.345-11.519-8.146-27.368-5.323-35.46 6.345l-46.553 67.127c-.604.87-1.308 1.647-2.072 2.353l-1.477 1.224 2.701 2.701h12.512l23.841-15.386z" fill="#ffb1a0"/><path d="m496.014 310.267c-7.973-12.086-24.355-15.094-36.113-6.81l-65.98 46.486c-2.941 2.072-6.53 3.016-10.11 2.66l-48.283-4.808c-.342-.034-.364-.534-.024-.588 12.052-1.917 21.895-11.555 23.439-24.229 1.825-14.976-8.63-28.69-23.62-30.982l-113.44-17.345c-12.83-1.962-25.925 1.113-36.518 8.577l-60.617 42.708-3.339 11.99 60.094 86.057h12.69c24.478-14.008 52.353-21.317 80.771-20.971 11.489.14 90.566 1.103 102.22 1.245 17.549.436 34.77-4.781 49.096-14.874l62.633-44.129c11.297-7.958 14.696-23.475 7.101-34.987z" fill="#ffdecf"/><g><path d="m180.561 343.735c-2.569-3.678-3.359-8.312-2.156-12.634.93-3.34 2.986-6.256 5.821-8.252l56.234-39.62c2.499-1.761 5.141-3.268 7.881-4.531l-26.459-4.046c-12.83-1.962-25.925 1.113-36.518 8.577l-60.617 42.708-3.339 11.99 60.094 86.057h12.69c10.327-5.909 21.263-10.611 32.584-14.064z" fill="#ffcebe"/></g><g><path d="m296.004 191.502h-32.417c-4.267 0-7.726-3.459-7.726-7.726s3.459-7.726 7.726-7.726h32.417c4.267 0 7.726 3.459 7.726 7.726.001 4.266-3.459 7.726-7.726 7.726z" fill="#d6865f"/></g><g><path d="m296.004 165.643h-32.417c-4.267 0-7.726-3.459-7.726-7.726s3.459-7.726 7.726-7.726h32.417c4.267 0 7.726 3.459 7.726 7.726.001 4.267-3.459 7.726-7.726 7.726z" fill="#d6865f"/></g><path d="m287.33 343.726 47.947 3.83c-.03-.15.034-.318.226-.348 8.344-1.327 15.623-6.358 19.828-13.532-.127-.017-.252-.04-.382-.05l-66.389-5.303c-4.258-.349-7.977 2.833-8.317 7.087-.34 4.253 2.833 7.977 7.087 8.316z" fill="#ffcebe"/><path d="m201.301 434.019-83.94-118.51c-3.66-5.167-10.87-6.351-16.105-2.643l-24.486 17.344v10.51l88.936 122.936 8.257 3.776 24.487-17.344c5.235-3.707 6.511-10.902 2.851-16.069z" fill="#dbedff"/><path d="m129.637 332.841-12.276-17.331c-3.66-5.167-10.87-6.351-16.105-2.643l-24.486 17.343v10.51l14.142 19.549z" fill="#b5dcff"/><path d="m76.77 330.21-59.762 42.329c-5.339 3.782-6.7 11.036-3.041 16.203l83.94 118.51c3.66 5.167 10.955 6.29 16.294 2.509l59.762-42.329z" fill="#7fb3fa"/><path d="m61.109 395.429c-3.66-5.167-1.644-12.886 4.504-17.24l30.06-21.291-18.903-26.688-59.762 42.329c-5.339 3.782-6.7 11.036-3.041 16.203l83.94 118.51c3.66 5.167 10.955 6.29 16.294 2.509l18.572-13.154z" fill="#64a6f4"/></g></svg>