<svg id="Flat" height="512" viewBox="0 0 512 512" width="512" xmlns="http://www.w3.org/2000/svg"><rect fill="#2978b8" height="272" rx="32" width="272" x="120" y="120"/><rect fill="#3397e8" height="208" rx="16" width="208" x="152" y="152"/><path d="m216 296a7.976 7.976 0 0 1 -5.657-2.343l-32-32a8 8 0 0 1 0-11.314l32-32a8 8 0 0 1 11.314 11.314l-26.343 26.343 26.343 26.343a8 8 0 0 1 -5.657 13.657z" fill="#e9eef2"/><path d="m296 296a8 8 0 0 1 -5.657-13.657l26.343-26.343-26.343-26.343a8 8 0 0 1 11.314-11.314l32 32a8 8 0 0 1 0 11.314l-32 32a7.974 7.974 0 0 1 -5.657 2.343z" fill="#e9eef2"/><path d="m248.006 296a8.008 8.008 0 0 1 -7.767-9.942l16-64a8 8 0 1 1 15.522 3.88l-16 64a8 8 0 0 1 -7.755 6.062z" fill="#e9eef2"/><path d="m168 496a8 8 0 0 1 -8-8v-72a8 8 0 0 1 16 0v72a8 8 0 0 1 -8 8z" fill="#dadcde"/><path d="m344 496a8 8 0 0 1 -8-8v-72a8 8 0 0 1 16 0v72a8 8 0 0 1 -8 8z" fill="#dadcde"/><path d="m280 496a8 8 0 0 1 -8-8v-72a8 8 0 0 1 16 0v72a8 8 0 0 1 -8 8z" fill="#dadcde"/><path d="m456 200h-40a8 8 0 0 1 0-16h34.234l14.176-42.53a8 8 0 0 1 7.59-5.47h16a8 8 0 0 1 0 16h-10.234l-14.176 42.53a8 8 0 0 1 -7.59 5.47z" fill="#dadcde"/><path d="m488 376h-16a8 8 0 0 1 -7.59-5.47l-14.176-42.53h-34.234a8 8 0 0 1 0-16h40a8 8 0 0 1 7.59 5.47l14.176 42.53h10.234a8 8 0 0 1 0 16z" fill="#dadcde"/><path d="m488 264h-72a8 8 0 0 1 0-16h72a8 8 0 0 1 0 16z" fill="#dadcde"/><path d="m96 200h-40a8 8 0 0 1 -7.589-5.47l-14.177-42.53h-10.234a8 8 0 0 1 0-16h16a8 8 0 0 1 7.589 5.47l14.177 42.53h34.234a8 8 0 0 1 0 16z" fill="#dadcde"/><path d="m40 376h-16a8 8 0 0 1 0-16h10.234l14.177-42.53a8 8 0 0 1 7.589-5.47h40a8 8 0 0 1 0 16h-34.234l-14.177 42.53a8 8 0 0 1 -7.589 5.47z" fill="#dadcde"/><path d="m96 264h-72a8 8 0 0 1 0-16h72a8 8 0 0 1 0 16z" fill="#dadcde"/><path d="m168 104a8 8 0 0 1 -8-8v-72a8 8 0 0 1 16 0v72a8 8 0 0 1 -8 8z" fill="#dadcde"/><path d="m344 104a8 8 0 0 1 -8-8v-72a8 8 0 0 1 16 0v72a8 8 0 0 1 -8 8z" fill="#dadcde"/><path d="m280 104a8 8 0 0 1 -8-8v-72a8 8 0 0 1 16 0v72a8 8 0 0 1 -8 8z" fill="#dadcde"/><g fill="#2978b8"><circle cx="168" cy="104" r="16"/><circle cx="280" cy="104" r="16"/><circle cx="344" cy="104" r="16"/><circle cx="408" cy="256" r="16"/><circle cx="408" cy="192" r="16"/><circle cx="408" cy="320" r="16"/><circle cx="104" cy="256" r="16"/><circle cx="104" cy="192" r="16"/><circle cx="104" cy="320" r="16"/><circle cx="168" cy="408" r="16"/><circle cx="280" cy="408" r="16"/><circle cx="344" cy="408" r="16"/></g></svg>