<svg clip-rule="evenodd" fill-rule="evenodd" height="512" image-rendering="optimizeQuality" shape-rendering="geometricPrecision" text-rendering="geometricPrecision" viewBox="0 0 512 512" width="512" xmlns="http://www.w3.org/2000/svg"><g id="Layer_x0020_1"><g id="_528069736"><g fill="#29485a"><path d="m56 255c-5 0-8-3-8-7v-72c0-22 18-39 40-39h119c4 0 8 3 8 7s-4 8-8 8h-119c-14 0-25 11-25 25v71c0 4-3 7-7 7z"/><path d="m456 255c-4 0-7-3-7-7v-72c0-14-11-25-25-25h-120c-4 0-7-3-7-7s3-8 7-8h120c22 0 39 18 39 40v71c1 5-2 8-7 8z"/><path d="m256 327c-4 0-7-3-7-7v-128c0-4 3-7 7-7s7 3 7 7v128c0 4-3 7-7 7z" stroke="#29485a" stroke-width=".9"/><path d="m208 375h-104c-4 0-8-3-8-7s4-8 8-8h104c4 0 7 4 7 8s-3 7-7 7z"/><path d="m408 375h-104c-4 0-7-3-7-7s4-7 7-7h104c4 0 7 3 7 7s-3 7-7 7z"/></g><path d="m283 200h-54c-15 0-28-13-28-29v-54c0-16 13-29 28-29h54c16 0 29 14 29 29v54c0 16-13 29-29 29z" fill="#ff4141"/><path d="m283 424h-54c-15 0-28-13-28-29v-54c0-16 13-29 28-29h54c16 0 29 13 29 29v54c0 15-14 29-29 29z" fill="#ffd300"/><path d="m82 424h-53c-16 0-29-14-29-29v-54c0-16 13-29 29-29h53c16 0 29 13 29 29v54c0 16-13 29-29 29z" fill="#55acee"/><path d="m483 424h-53c-16 0-29-14-29-29v-54c0-16 13-29 29-29h53c16 0 29 13 29 29v54c0 16-13 29-29 29z" fill="#ff4141"/><path d="m56 255c-2 0-4 0-5-2l-46-45c-3-3-3-8 0-11 3-2 8-2 11 0l40 40 40-40c3-2 7-2 10 0 3 3 3 8 0 11l-45 45c-2 2-3 2-5 2z" fill="#29485a"/><path d="m456 255c-2 0-3 0-5-2l-45-45c-3-3-3-8 0-11 3-2 7-2 10 0l40 40 40-40c3-2 8-2 11 0 3 3 3 8 0 11l-45 45c-1 2-4 2-6 2z" fill="#29485a"/><path d="m512 341c0-15-13-29-29-29h-53c-15 0-27 11-29 25 4-1 7-2 11-2h54c16 0 28 14 28 29v54 4c11-5 18-15 18-27v-20-15z" fill="#e63535"/><path d="m312 117c0-15-13-29-29-29h-54c-14 0-26 11-28 25 3-1 7-2 11-2h53c16 0 29 14 29 29v54 3c10-4 18-14 18-26v-20-15z" fill="#e63535"/><path d="m312 341c0-15-13-29-29-29h-54c-14 0-26 11-28 25 3-1 7-2 11-2h53c16 0 29 14 29 29v54 4c10-5 18-15 18-27v-20-15z" fill="#ffab00"/><path d="m111 341c0-15-13-29-29-29h-53c-15 0-27 11-29 25 3-1 7-2 11-2h54c15 0 28 14 28 29v54 4c11-5 18-15 18-27v-20-15z" fill="#4f95ca"/></g></g></svg>