<svg enable-background="new 0 0 512 512" height="512" viewBox="0 0 512 512" width="512" xmlns="http://www.w3.org/2000/svg"><g id="_x39_5_x2C__prototype_x2C__art_x2C__design_x2C__seo_x2C__interface"><g id="XMLID_2485_"><path id="XMLID_2512_" d="m211 431-95 18.13-95-18.13v-100-100l95-19.87 95 19.87v99.999z" fill="#ececf1"/><path id="XMLID_1370_" d="m301 191v-55-55l95-15 95 15v100 100l-95 15.13-95-15.13v-45z" fill="#ececf1"/><g fill="#4f737c"><path id="XMLID_1369_" d="m491 57.94v23.06h-190v-23.06c0-20.4 16.54-36.94 36.94-36.94h116.12c20.4 0 36.94 16.54 36.94 36.94z"/><path id="XMLID_1368_" d="m491 281v23.06c0 20.4-16.54 36.94-36.94 36.94h-116.12c-20.4 0-36.94-16.54-36.94-36.94v-23.06z"/><path id="XMLID_1367_" d="m211 431v23.06c0 20.4-16.54 36.94-36.94 36.94h-116.12c-20.4 0-36.94-16.54-36.94-36.94v-23.06z"/><path id="XMLID_1366_" d="m211 207.94v23.06h-190v-23.06c0-20.4 16.54-36.94 36.94-36.94h116.12c20.4 0 36.94 16.54 36.94 36.94z"/></g><path id="XMLID_1365_" d="m466 391c8.28 0 15 6.72 15 15s-6.72 15-15 15-15-6.72-15-15 6.72-15 15-15z" fill="#25d9f8"/><path id="XMLID_1364_" d="m381 471c5.52 0 10 4.48 10 10s-4.48 10-10 10-10-4.48-10-10 4.48-10 10-10z" fill="#ececf1"/><path id="XMLID_1363_" d="m271 391c5.52 0 10 4.48 10 10s-4.48 10-10 10-10-4.48-10-10 4.48-10 10-10z" fill="#ff641a"/><path id="XMLID_1362_" d="m251 101c5.52 0 10 4.48 10 10s-4.48 10-10 10-10-4.48-10-10 4.48-10 10-10z" fill="#ececf1"/><path id="XMLID_1361_" d="m176 51c8.28 0 15 6.72 15 15s-6.72 15-15 15-15-6.72-15-15 6.72-15 15-15z" fill="#25d9f8"/><path id="XMLID_1360_" d="m51 61c5.52 0 10 4.48 10 10s-4.48 10-10 10-10-4.48-10-10 4.48-10 10-10z" fill="#4f737c"/><path id="XMLID_1359_" d="m418.071 183.929-20-20c-3.906-3.904-10.236-3.904-14.143 0-3.905 3.905-3.905 10.237 0 14.143l2.929 2.929h-102.627c-23.836-.001-43.23 19.392-43.23 43.229v83.54c0 12.81-10.421 23.23-23.23 23.23h-106.77c-5.523 0-10 4.478-10 10s4.477 10 10 10h106.77c23.837 0 43.23-19.394 43.23-43.23v-83.54c0-12.809 10.421-23.23 23.23-23.23h102.627l-2.929 2.929c-3.905 3.905-3.905 10.237 0 14.143 1.954 1.952 4.512 2.928 7.072 2.928s5.118-.977 7.071-2.929l20-20c3.939-3.939 3.855-10.287 0-14.142z" fill="#ff641a"/><circle id="XMLID_1358_" cx="111" cy="341" fill="#25d9f8" r="30"/></g></g></svg>