<svg id="Layer_1" height="512" viewBox="0 0 110 110" width="512" xmlns="http://www.w3.org/2000/svg" data-name="Layer 1"><path d="m79.06 22.52v74.41a5 5 0 0 1 -5 5h-62.06a5 5 0 0 1 -5-5v-74.41a5 5 0 0 1 5-5h16.5v6.37a1.47 1.47 0 0 0 1.5 1.44h26.6a1.46 1.46 0 0 0 1.4-1.46v-6.37h16a5 5 0 0 1 5.06 5.02z" fill="#fbd277"/><path d="m79.06 22.51v74.42a5 5 0 0 1 -5 5h-62.06a5 5 0 0 1 -5-5v-1.37a67 67 0 0 0 65.69-67v-11h1.31a5 5 0 0 1 5.06 4.95z" fill="#fdcd56"/><path d="m72.7 24.65v70.93h-58a1.28 1.28 0 0 1 -1.28-1.28v-69.65a1.27 1.27 0 0 1 1.28-1.26h13.82v.48a1.47 1.47 0 0 0 1.48 1.46h26.6a1.46 1.46 0 0 0 1.4-1.46v-.48h13.42a1.27 1.27 0 0 1 1.28 1.26z" fill="#f4f6f8"/><path d="m20.21 75.46h13.52v13.52h-13.52z" fill="#f76c82"/><path d="m33.73 75.45v13.55h-13.53v-3h.37a10.19 10.19 0 0 0 10.19-10.19v-.36z" fill="#eb5463"/><path d="m20.21 54.4h13.52v13.52h-13.52z" fill="#66d4f1"/><path d="m33.73 54.4v13.52h-13.53v-2.92h.37a10.19 10.19 0 0 0 10.19-10.24v-.36z" fill="#4fc0e8"/><path d="m20.21 32.13h13.52v13.52h-13.52z" fill="#b4df80"/><path d="m33.73 32.13v13.52h-13.53v-3h.37a10.19 10.19 0 0 0 10.19-10.16v-.36z" fill="#9ed26a"/><path d="m58 15.86v8a1.46 1.46 0 0 1 -1.45 1.46h-26.55a1.47 1.47 0 0 1 -1.46-1.46v-8a1.46 1.46 0 0 1 1.46-1.46h8.75v-1.81a4.54 4.54 0 0 1 4.54-4.54 4.55 4.55 0 0 1 4.55 4.54v1.81h8.74a1.45 1.45 0 0 1 1.42 1.46z" fill="#656d78"/><path d="m58 15.86v8a1.46 1.46 0 0 1 -1.45 1.46h-26.55a1.46 1.46 0 0 1 -1.46-1.46v-2.72h15.83a9.51 9.51 0 0 0 9.07-6.75h3.14a1.46 1.46 0 0 1 1.42 1.47z" fill="#434a54"/><path d="m25.72 85.59a1 1 0 0 1 -.72-.29l-2.25-2.25a1 1 0 0 1 1.41-1.41l1.55 1.54 4-4.05a1 1 0 0 1 1.42 1.42l-4.71 4.75a1 1 0 0 1 -.7.29z" fill="#fff"/><path d="m66 58.84h-26.27a1 1 0 1 1 0-2h26.27a1 1 0 0 1 0 2z" fill="#434a54"/><path d="m66 65.49h-26.27a1 1 0 0 1 0-2h26.27a1 1 0 1 1 0 2z" fill="#434a54"/><path d="m25.72 42.27a1 1 0 0 1 -.72-.27l-2.25-2.25a1 1 0 0 1 0-1.42 1 1 0 0 1 1.41 0l1.55 1.54 4-4a1 1 0 0 1 1.42 0 1 1 0 0 1 0 1.41l-4.71 4.72a1 1 0 0 1 -.7.27z" fill="#fff"/><g fill="#434a54"><path d="m66 36.56h-26.27a1 1 0 1 1 0-2h26.27a1 1 0 0 1 0 2z"/><path d="m66 43.22h-26.27a1 1 0 1 1 0-2h26.27a1 1 0 0 1 0 2z"/><path d="m66 79.89h-26.27a1 1 0 0 1 0-2h26.27a1 1 0 0 1 0 2z"/><path d="m66 86.54h-26.27a1 1 0 0 1 0-2h26.27a1 1 0 0 1 0 2z"/></g><path d="m24.42 64.71a1 1 0 0 1 -.71-.29 1 1 0 0 1 0-1.41l5.1-5.1a1 1 0 0 1 1.42 0 1 1 0 0 1 0 1.41l-5.1 5.1a1 1 0 0 1 -.71.29z" fill="#fff"/><path d="m29.52 64.71a1 1 0 0 1 -.71-.29l-5.1-5.1a1 1 0 0 1 0-1.41 1 1 0 0 1 1.42 0l5.1 5.1a1 1 0 0 1 0 1.41 1 1 0 0 1 -.71.29z" fill="#fff"/><path d="m103 52.48v5a2.25 2.25 0 0 1 -1.52 2.11l-3.8 1.27a2.22 2.22 0 0 0 -1.29 3.14l1.79 3.58a2.22 2.22 0 0 1 -.42 2.57l-3.54 3.55a2.22 2.22 0 0 1 -2.58.41l-3.57-1.78a2.23 2.23 0 0 0 -3.07 1.28l-1.27 3.8a2.21 2.21 0 0 1 -2.11 1.53h-2.56v-47.88h2.51a2.21 2.21 0 0 1 2.11 1.53l1.32 3.79a2.23 2.23 0 0 0 3.12 1.29l3.57-1.79a2.24 2.24 0 0 1 2.58.42l3.54 3.55a2.22 2.22 0 0 1 .42 2.57l-1.84 3.58a2.23 2.23 0 0 0 1.3 3.11l3.79 1.27a2.23 2.23 0 0 1 1.52 2.1z" fill="#f76c82"/><path d="m98.51 53v4a1.82 1.82 0 0 1 -1.23 1.71l-3.09 1a1.81 1.81 0 0 0 -1 2.53l1.45 2.91a1.79 1.79 0 0 1 -.33 2.09l-2.88 2.88a1.79 1.79 0 0 1 -2.1.34l-2.9-1.45a1.81 1.81 0 0 0 -2.53 1l-1 3.08a1.8 1.8 0 0 1 -1.72 1.24h-2v-38.78h2a1.8 1.8 0 0 1 1.72 1.24l1 3.08a1.81 1.81 0 0 0 2.53 1.05l2.9-1.45a1.81 1.81 0 0 1 2.1.33l2.88 2.89a1.79 1.79 0 0 1 .33 2.09l-1.45 2.9a1.81 1.81 0 0 0 1.06 2.53l3.08 1a1.84 1.84 0 0 1 1.18 1.79z" fill="#eb5463"/><path d="m88.5 55a9.44 9.44 0 0 1 -9.44 9.43v-18.87a9.44 9.44 0 0 1 9.44 9.44z" fill="#fff"/></svg>