<svg id="Layer_1" enable-background="new 0 0 512 512" viewBox="0 0 512 512" xmlns="http://www.w3.org/2000/svg"><g><g><circle clip-rule="evenodd" cx="312.949" cy="48.389" fill-rule="evenodd" r="10.678"/></g><g><g><g><g><path clip-rule="evenodd" d="m271.948 396.541h61.804c5.872 0 10.661-4.87 10.661-10.841v-68.054c0-3.103-2.489-5.635-5.542-5.635h-72.043c-3.052 0-5.542 2.532-5.542 5.635v68.054c.001 5.971 4.79 10.841 10.662 10.841z" fill="#e3a76f" fill-rule="evenodd"/></g><g><path clip-rule="evenodd" d="m323.09 396.541h10.662c5.872 0 10.661-4.87 10.661-10.841v-68.053c0-3.103-2.489-5.635-5.542-5.635h-10.661c3.052 0 5.542 2.532 5.542 5.635v68.053c-.001 5.971-4.79 10.841-10.662 10.841z" fill="#c48958" fill-rule="evenodd"/></g></g><g><g><path clip-rule="evenodd" d="m288.934 312.011h27.832v28.585c0 2.936-2.394 5.33-5.33 5.33h-17.172c-2.936 0-5.33-2.394-5.33-5.33z" fill="#f2d1a5" fill-rule="evenodd"/></g><g><path clip-rule="evenodd" d="m310.478 312.011h6.288v28.585c0 2.936-2.394 5.331-5.33 5.331h-6.288c2.936 0 5.33-2.394 5.33-5.331z" fill="#ecba78" fill-rule="evenodd"/></g></g></g><g><g><g><path clip-rule="evenodd" d="m388.964 396.541h61.804c5.872 0 10.661-4.87 10.661-10.841v-68.054c0-3.103-2.489-5.635-5.542-5.635h-72.043c-3.052 0-5.541 2.532-5.541 5.635v68.054c0 5.971 4.789 10.841 10.661 10.841z" fill="#e3a76f" fill-rule="evenodd"/></g><g><path clip-rule="evenodd" d="m440.106 396.541h10.662c5.872 0 10.661-4.87 10.661-10.841v-68.053c0-3.103-2.489-5.635-5.542-5.635h-10.662c3.052 0 5.542 2.532 5.542 5.635v68.053c.001 5.971-4.789 10.841-10.661 10.841z" fill="#c48958" fill-rule="evenodd"/></g></g><g><g><path clip-rule="evenodd" d="m405.95 312.011h27.833v28.585c0 2.936-2.394 5.33-5.33 5.33h-17.173c-2.936 0-5.33-2.394-5.33-5.33z" fill="#f2d1a5" fill-rule="evenodd"/></g><g><path clip-rule="evenodd" d="m427.494 312.011h6.288v28.585c0 2.936-2.394 5.331-5.33 5.331h-6.288c2.936 0 5.33-2.394 5.33-5.331z" fill="#ecba78" fill-rule="evenodd"/></g></g></g></g><g><g><path clip-rule="evenodd" d="m309.762 75.896-10.814-48.059-200.207 123.012 53.196 64.92z" fill="#d1d1d6" fill-rule="evenodd"/></g><g><g><path clip-rule="evenodd" d="m468.686 224.139c0 20.748-11.523 38.805-28.517 48.122v-48.909l-26.891-15.526-26.891 15.526v48.275c-16.375-9.488-27.391-27.2-27.391-47.488 0-30.29 24.555-54.845 54.845-54.845 30.291 0 54.845 24.555 54.845 54.845z" fill="#d1d1d6" fill-rule="evenodd"/></g><g><path clip-rule="evenodd" d="m468.686 224.139c0 20.748-11.523 38.805-28.517 48.122v-.378c13.557-9.985 22.354-26.057 22.354-44.186 0-30.29-24.555-54.845-54.845-54.845-8.707 0-16.938 2.032-24.25 5.643 8.704-5.811 19.162-9.201 30.413-9.201 30.29 0 54.845 24.555 54.845 54.845zm-82.298-.788-6.163 3.558v40.564c1.953 1.517 4.011 2.908 6.163 4.154z" fill="#b1b1b5" fill-rule="evenodd"/></g></g><g><path clip-rule="evenodd" d="m89.996 379.51 104.439-1.398-42.831-162.085c-23.605-10.596-44.959-29.193-71.894-25.91z" fill="#d1d1d6" fill-rule="evenodd"/></g><g><path clip-rule="evenodd" d="m313.638 76.469 76.091 66.364c7.702-6.415 19.782-9.749 22.795-22.091l-66.482-75.719c-15.533 13.404-27.97 26.525-32.404 31.446z" fill="#d1d1d6" fill-rule="evenodd"/></g><g><g><ellipse clip-rule="evenodd" cx="318.468" cy="49.188" fill="#b1b1b5" fill-rule="evenodd" rx="29.25" ry="29.251" transform="matrix(.23 -.973 .973 .23 197.427 347.835)"/></g><g><path clip-rule="evenodd" d="m318.468 19.937c16.155 0 29.251 13.096 29.251 29.251s-13.096 29.25-29.251 29.25c-1.705 0-3.375-.148-5-.427 13.773-2.372 24.25-14.373 24.25-28.823s-10.478-26.451-24.25-28.823c1.624-.28 3.295-.428 5-.428z" fill="#9c9c9e" fill-rule="evenodd"/></g></g><g><g><ellipse clip-rule="evenodd" cx="413.842" cy="145.004" fill="#b1b1b5" fill-rule="evenodd" rx="24.732" ry="24.732" transform="matrix(.16 -.987 .987 .16 204.42 530.275)"/></g><g><path clip-rule="evenodd" d="m413.841 120.272c13.659 0 24.732 11.073 24.732 24.732s-11.074 24.732-24.732 24.732c-1.713 0-3.385-.174-5-.506 11.262-2.312 19.732-12.28 19.732-24.226s-8.47-21.914-19.732-24.226c1.615-.332 3.287-.506 5-.506z" fill="#9c9c9e" fill-rule="evenodd"/></g></g><g><g><ellipse clip-rule="evenodd" cx="121.716" cy="186.31" fill="#b1b1b5" fill-rule="evenodd" rx="42.283" ry="42.283" transform="matrix(.29 -.957 .957 .29 -91.871 248.814)"/></g><g><path clip-rule="evenodd" d="m121.716 144.028c23.351 0 42.283 18.931 42.283 42.282 0 23.352-18.931 42.283-42.283 42.283-1.692 0-3.36-.102-5-.296 20.994-2.474 37.282-20.328 37.282-41.987s-16.288-39.513-37.282-41.987c1.64-.193 3.308-.295 5-.295z" fill="#9c9c9e" fill-rule="evenodd"/></g></g><g><g><ellipse clip-rule="evenodd" cx="121.716" cy="186.31" fill="#9facba" fill-rule="evenodd" rx="15.154" ry="15.154" transform="matrix(.16 -.987 .987 .16 -81.685 276.611)"/></g><g><path clip-rule="evenodd" d="m121.716 171.156c1.752 0 3.435.298 5 .846-5.912 2.066-10.154 7.691-10.154 14.309s4.242 12.243 10.154 14.309c-1.566.547-3.248.846-5 .846-8.369 0-15.154-6.785-15.154-15.154 0-8.371 6.785-15.156 15.154-15.156z" fill="#8d9ca8" fill-rule="evenodd"/></g></g><g><g><path clip-rule="evenodd" d="m54.456 403.236h173.301v-25.246c0-7.239-6.855-13.161-15.234-13.161h-142.835c-8.379 0-15.232 5.922-15.232 13.161z" fill="#b1b1b5" fill-rule="evenodd"/></g><g><path clip-rule="evenodd" d="m217.757 403.236h10v-25.246c0-7.239-6.855-13.161-15.234-13.161h-142.835c-7.416 0-13.635 4.639-14.967 10.724 1.559-.468 3.23-.723 4.967-.723h142.834c8.38 0 15.234 5.922 15.234 13.161v15.245z" fill="#9c9c9e" fill-rule="evenodd"/></g></g></g><g><g><g><path clip-rule="evenodd" d="m66.549 396.542h384.479c26.268 0 47.76 21.492 47.76 47.76 0 26.268-21.492 47.76-47.76 47.76h-384.479c-26.268 0-47.76-21.492-47.76-47.76 0-26.268 21.492-47.76 47.76-47.76z" fill="#9facba" fill-rule="evenodd"/></g><g><path clip-rule="evenodd" d="m441.028 396.542h10c26.268 0 47.76 21.492 47.76 47.76 0 26.268-21.492 47.76-47.76 47.76h-10c26.268 0 47.76-21.492 47.76-47.76 0-26.268-21.492-47.76-47.76-47.76z" fill="#8d9ca8" fill-rule="evenodd"/></g></g><g><path clip-rule="evenodd" d="m111.789 427.054c-4.418 0-8-3.582-8-8s3.582-8 8-8h37.679c4.418 0 8 3.582 8 8s-3.582 8-8 8zm128.16 0c-4.418 0-8-3.582-8-8s3.582-8 8-8h37.68c4.418 0 8 3.582 8 8s-3.582 8-8 8zm128.16 0c-4.418 0-8-3.582-8-8s3.582-8 8-8h37.68c4.418 0 8 3.582 8 8s-3.582 8-8 8zm37.679 34.496c4.418 0 8 3.582 8 8s-3.582 8-8 8h-37.68c-4.418 0-8-3.582-8-8s3.582-8 8-8zm-128.159 0c4.418 0 8 3.582 8 8s-3.582 8-8 8h-37.68c-4.418 0-8-3.582-8-8s3.582-8 8-8zm-128.16 0c4.418 0 8 3.582 8 8s-3.582 8-8 8h-37.679c-4.418 0-8-3.582-8-8s3.582-8 8-8z" fill="#8192a5" fill-rule="evenodd"/></g><g><g><circle clip-rule="evenodd" cx="66.549" cy="444.302" fill="#8192a5" fill-rule="evenodd" r="25.248"/></g><g><path clip-rule="evenodd" d="m66.549 419.054c13.944 0 25.248 11.304 25.248 25.248s-11.304 25.248-25.248 25.248c-1.712 0-3.384-.171-5-.496 11.549-2.32 20.248-12.52 20.248-24.752s-8.699-22.432-20.248-24.752c1.616-.325 3.288-.496 5-.496z" fill="#65788e" fill-rule="evenodd"/></g></g><g><g><ellipse clip-rule="evenodd" cx="194.709" cy="444.302" fill="#8192a5" fill-rule="evenodd" rx="25.248" ry="25.248" transform="matrix(.23 -.973 .973 .23 -282.443 531.723)"/></g><g><path clip-rule="evenodd" d="m194.709 419.054c13.944 0 25.248 11.304 25.248 25.248s-11.304 25.248-25.248 25.248c-1.712 0-3.384-.171-5-.496 11.549-2.32 20.248-12.52 20.248-24.752s-8.699-22.432-20.248-24.752c1.616-.325 3.288-.496 5-.496z" fill="#65788e" fill-rule="evenodd"/></g></g><g><g><ellipse clip-rule="evenodd" cx="322.869" cy="444.302" fill="#8192a5" fill-rule="evenodd" rx="25.248" ry="25.248" transform="matrix(.707 -.707 .707 .707 -219.603 358.436)"/></g><g><path clip-rule="evenodd" d="m322.869 419.054c13.944 0 25.248 11.304 25.248 25.248s-11.304 25.248-25.248 25.248c-1.712 0-3.384-.171-5-.496 11.549-2.32 20.248-12.52 20.248-24.752s-8.699-22.432-20.248-24.752c1.616-.325 3.288-.496 5-.496z" fill="#65788e" fill-rule="evenodd"/></g></g><g><g><circle clip-rule="evenodd" cx="451.028" cy="444.302" fill="#8192a5" fill-rule="evenodd" r="25.248"/></g><g><path clip-rule="evenodd" d="m451.028 419.054c13.944 0 25.248 11.304 25.248 25.248s-11.304 25.248-25.248 25.248c-1.712 0-3.384-.171-5-.496 11.549-2.32 20.248-12.52 20.248-24.752s-8.699-22.432-20.248-24.752c1.616-.325 3.288-.496 5-.496z" fill="#65788e" fill-rule="evenodd"/></g></g></g><g><g><path clip-rule="evenodd" d="m154.995 82.216c10.44 2.484 20.411 6.624 29.549 12.25l19.201-8.528 22.63 22.63-8.525 19.195c5.628 9.14 9.768 19.114 12.252 29.556l19.589 7.54v32.003l-19.594 7.542c-2.484 10.44-6.624 20.411-12.25 29.549l8.528 19.201-22.63 22.63-19.195-8.525c-9.14 5.628-19.114 9.767-29.556 12.252l-7.54 19.59h-32.004l-7.542-19.594c-10.44-2.485-20.411-6.624-29.549-12.25l-19.201 8.527-22.63-22.629 8.525-19.195c-5.628-9.14-9.767-19.115-12.252-29.557l-19.59-7.54v-32.003l19.592-7.541c2.484-10.441 6.623-20.413 12.251-29.551l-8.527-19.199 22.63-22.631 19.201 8.528c9.138-5.626 19.109-9.765 29.549-12.25l7.542-19.594h32.003z" fill="#ffe177" fill-rule="evenodd"/></g><g><path clip-rule="evenodd" d="m197.296 88.802 6.448-2.864 22.631 22.63-8.525 19.195c5.628 9.139 9.767 19.114 12.252 29.556l19.589 7.541v32.003l-19.594 7.542c-2.484 10.44-6.624 20.411-12.25 29.549l8.528 19.2-22.63 22.631-6.448-2.864 19.766-19.767-8.527-19.2c5.626-9.138 9.766-19.109 12.25-29.549l19.594-7.542v-32.003l-19.589-7.541c-2.485-10.442-6.624-20.417-12.252-29.556l8.525-19.195zm-141.002 0 2.864-2.864 19.201 8.528c-1.357.752-2.698 1.535-4.021 2.35zm98.701-6.586c10.44 2.484 20.411 6.624 29.549 12.25l-5.291 2.35c-9.138-5.626-23.13-12.116-33.569-14.6l-7.542-19.594h9.311zm-76.636 185.041-19.201 8.528-2.864-2.864 18.044-8.013c1.323.814 2.664 1.597 4.021 2.349zm106.191.003c-9.139 5.628-19.114 9.767-29.557 12.252l-7.54 19.59h-9.311l7.54-19.59c10.442-2.485 24.437-8.974 33.577-14.602z" fill="#ffd064" fill-rule="evenodd"/></g><g><ellipse clip-rule="evenodd" cx="131.451" cy="180.861" fill="#eceff1" fill-rule="evenodd" rx="68.744" ry="68.744" transform="matrix(.707 -.707 .707 .707 -89.387 145.923)"/></g><g><path clip-rule="evenodd" d="m131.451 112.117c1.565 0 3.117.057 4.656.16-35.794 2.395-64.089 32.184-64.089 68.584s28.295 66.189 64.089 68.584c-1.539.103-3.091.16-4.656.16-37.965 0-68.744-30.779-68.744-68.744s30.779-68.744 68.744-68.744z" fill="#d1d1d6" fill-rule="evenodd"/></g></g></g></svg>