<svg height="512" viewBox="0 0 512 512" width="512" xmlns="http://www.w3.org/2000/svg"><g id="Layer_24" data-name="Layer 24"><path d="m72 12.5h424v480h-424z" fill="#306f49"/><path d="m128 12.5a32 32 0 0 0 -32 32v416a32 32 0 0 0 32 32h368v-480z" fill="#469c65"/><path d="m16 364.5h192v96h-192z" fill="#e6b25e"/><path d="m64 364.5a24 24 0 0 0 -24 24v48a24 24 0 0 0 24 24h144v-96z" fill="#f3d16e"/><path d="m48 52.5h48v80h-48z" fill="#e6b25e"/><path d="m80 52.5a16 16 0 0 0 -16 16v48a16 16 0 0 0 16 16h16v-80z" fill="#f3d16e"/><path d="m16 68.5h32v48h-32z" fill="#c8cded"/><path d="m32 84.5v16a16 16 0 0 0 16 16v-48a16 16 0 0 0 -16 16z" fill="#e2e7f6"/><rect fill="#f9f18f" height="16" rx="8" width="192" x="16" y="388.5"/><rect fill="#f9f18f" height="16" rx="8" width="192" x="16" y="420.5"/><g fill="#f3d16e"><path d="m200 76.5a8 8 0 0 1 -8-8v-24a8 8 0 0 1 16 0v24a8 8 0 0 1 -8 8z"/><path d="m232 76.5a8 8 0 0 1 -8-8v-24a8 8 0 0 1 16 0v24a8 8 0 0 1 -8 8z"/><path d="m264 76.5a8 8 0 0 1 -8-8v-24a8 8 0 0 1 16 0v24a8 8 0 0 1 -8 8z"/><path d="m296 76.5a8 8 0 0 1 -8-8v-24a8 8 0 0 1 16 0v24a8 8 0 0 1 -8 8z"/><path d="m200 260.5a8 8 0 0 1 -8-8v-24a8 8 0 0 1 16 0v24a8 8 0 0 1 -8 8z"/><path d="m232 260.5a8 8 0 0 1 -8-8v-24a8 8 0 0 1 16 0v24a8 8 0 0 1 -8 8z"/><path d="m264 260.5a8 8 0 0 1 -8-8v-24a8 8 0 0 1 16 0v24a8 8 0 0 1 -8 8z"/><path d="m296 260.5a8 8 0 0 1 -8-8v-24a8 8 0 0 1 16 0v24a8 8 0 0 1 -8 8z"/><path d="m168 204.5h-24a8 8 0 0 1 0-16h24a8 8 0 0 1 0 16z"/><path d="m168 172.5h-24a8 8 0 0 1 0-16h24a8 8 0 0 1 0 16z"/><path d="m168 140.5h-24a8 8 0 0 1 0-16h24a8 8 0 0 1 0 16z"/><path d="m168 108.5h-24a8 8 0 0 1 0-16h24a8 8 0 0 1 0 16z"/><path d="m352 204.5h-24a8 8 0 0 1 0-16h24a8 8 0 0 1 0 16z"/><path d="m352 172.5h-24a8 8 0 0 1 0-16h24a8 8 0 0 1 0 16z"/><path d="m352 140.5h-24a8 8 0 0 1 0-16h24a8 8 0 0 1 0 16z"/><path d="m352 108.5h-24a8 8 0 0 1 0-16h24a8 8 0 0 1 0 16z"/></g><path d="m368 236.5h32v224h-32z" fill="#e6b25e"/><path d="m384 252.5v192a16 16 0 0 0 16 16v-224a16 16 0 0 0 -16 16z" fill="#f3d16e"/><path d="m432 236.5h32v224h-32z" fill="#e6b25e"/><path d="m448 252.5v192a16 16 0 0 0 16 16v-224a16 16 0 0 0 -16 16z" fill="#f3d16e"/><circle cx="448" cy="124.5" fill="#e6b25e" r="16"/><ellipse cx="456" cy="124.5" fill="#f3d16e" rx="8" ry="13.781"/><circle cx="448" cy="188.5" fill="#e6b25e" r="16"/><ellipse cx="456" cy="188.5" fill="#f3d16e" rx="8" ry="13.781"/><path d="m120 332.5h-16a8 8 0 0 1 0-16h16a8 8 0 0 1 0 16z" fill="#c8cded"/><path d="m120 300.5h-16a8 8 0 0 1 0-16h16a8 8 0 0 1 0 16z" fill="#c8cded"/><path d="m168 300.5h-16a8 8 0 0 1 0-16h16a8 8 0 0 1 0 16z" fill="#c8cded"/><path d="m168 332.5h-16a8 8 0 0 1 0-16h16a8 8 0 0 1 0 16z" fill="#c8cded"/><path d="m240 364.5h32v32h-32z" fill="#c8cded"/><path d="m264 364.5a8 8 0 0 0 -8 8v16a8 8 0 0 0 8 8h8v-32z" fill="#e2e7f6"/><path d="m304 428.5h32v32h-32z" fill="#c8cded"/><path d="m328 428.5a8 8 0 0 0 -8 8v16a8 8 0 0 0 8 8h8v-32z" fill="#e2e7f6"/><path d="m304 364.5h32v32h-32z" fill="#c8cded"/><path d="m328 364.5a8 8 0 0 0 -8 8v16a8 8 0 0 0 8 8h8v-32z" fill="#e2e7f6"/><path d="m48 164.5h48v80h-48z" fill="#e6b25e"/><path d="m80 164.5a16 16 0 0 0 -16 16v48a16 16 0 0 0 16 16h16v-80z" fill="#f3d16e"/><path d="m16 180.5h32v48h-32z" fill="#c8cded"/><path d="m32 196.5v16a16 16 0 0 0 16 16v-48a16 16 0 0 0 -16 16z" fill="#e2e7f6"/><path d="m240 428.5h32v32h-32z" fill="#c8cded"/><path d="m264 428.5a8 8 0 0 0 -8 8v16a8 8 0 0 0 8 8h8v-32z" fill="#e2e7f6"/><path d="m168 68.5h160v160h-160z" fill="#e6b25e"/><path d="m216 116.5h64v64h-64z" fill="#f3d16e"/><path d="m368 44.5h32v32h-32z" fill="#c8cded"/><path d="m392 44.5a8 8 0 0 0 -8 8v16a8 8 0 0 0 8 8h8v-32z" fill="#e2e7f6"/><path d="m432 44.5h32v32h-32z" fill="#c8cded"/><path d="m456 44.5a8 8 0 0 0 -8 8v16a8 8 0 0 0 8 8h8v-32z" fill="#e2e7f6"/></g></svg>