<svg id="Layer_1" enable-background="new 0 0 512 512" height="512" viewBox="0 0 512 512" width="512" xmlns="http://www.w3.org/2000/svg"><g><path d="m392 292.232v-92.232h-16v92.232c-7.815 3.166-13.333 10.817-13.333 19.768 0 11.782 9.551 21.333 21.333 21.333s21.333-9.551 21.333-21.333c0-8.951-5.518-16.602-13.333-19.768z" fill="#ffcd05"/><g><path d="m158.059 54.863h67.882v226.274h-67.882z" fill="#555a6e" transform="matrix(-.707 -.707 .707 -.707 208.971 422.558)"/></g><g><path d="m280 288-72-72c0-35.346-28.654-64-64-64h-32c-35.346 0-64 28.654-64 64 0 35.346 28.654 64 64 64h32l72 72z" fill="#faa019"/></g><g><path d="m368 120h32v24h-32z" fill="#463c4b"/></g><g><path d="m400 200h-32c-4.418 0-8-3.582-8-8v-40c0-4.418 3.582-8 8-8h32c4.418 0 8 3.582 8 8v40c0 4.418-3.582 8-8 8z" fill="#a5c3dc"/></g><g><path d="m384 200h-16c-4.418 0-8-3.582-8-8v-40c0-4.418 3.582-8 8-8h16z" fill="#d7e6f0"/></g><g><path d="m176 216c0-35.346-28.654-64-64-64s-64 28.654-64 64 28.654 64 64 64l88 88 64-64z" fill="#ffcd05"/></g><g><path d="m280 280h-48c-30.928 0-56 25.072-56 56v40h160v-40c0-30.928-25.072-56-56-56z" fill="#463c4b"/></g><g><path d="m232 280c-30.928 0-56 25.072-56 56v40h112v-40c0-30.928-25.072-56-56-56z" fill="#555a6e"/></g><g><circle cx="232" cy="336" fill="#ffcd05" r="24"/></g><g><circle cx="112" cy="216" fill="#555a6e" r="32"/></g><g><path d="m272 136h-32c-26.51 0-48-21.49-48-48 0-26.51 21.49-48 48-48h32c26.51 0 48 21.49 48 48 0 26.51-21.49 48-48 48z" fill="#faa019"/></g><g><path d="m368 64h-86.438c-8.3-14.343-23.799-24-41.562-24-26.51 0-48 21.49-48 48s21.49 48 48 48c17.764 0 33.262-9.657 41.562-24h86.438z" fill="#ffcd05"/></g><g><circle cx="240" cy="88" fill="#555a6e" r="24"/></g><g><path d="m392 128h-24c-22.091 0-40-17.909-40-40 0-22.091 17.909-40 40-40h24c22.091 0 40 17.909 40 40 0 22.091-17.909 40-40 40z" fill="#463c4b"/></g><g><circle cx="368" cy="88" fill="#555a6e" r="40"/></g><g><circle cx="368" cy="88" fill="#ffcd05" r="16"/></g><g><g><path d="m448 472h-384c-26.51 0-48-21.49-48-48 0-26.51 21.49-48 48-48h384c26.51 0 48 21.49 48 48 0 26.51-21.49 48-48 48z" fill="#d7e6f0"/></g><g><g><path d="m483.77 392h-455.54c.59-.66 1.2-1.31 1.83-1.94 8.68-8.69 20.68-14.06 33.94-14.06h384c14.22 0 26.99 6.18 35.77 16z" fill="#d7e6f0"/></g><g><path d="m483.77 456c-.59.66-1.2 1.31-1.83 1.94-8.68 8.69-20.68 14.06-33.94 14.06h-384c-14.22 0-26.99-6.18-35.77-16z" fill="#d7e6f0"/></g><g><path d="m496 424c0 2.73-.23 5.4-.67 8h-478.66c-.44-2.6-.67-5.27-.67-8s.23-5.4.67-8h478.66c.44 2.6.67 5.27.67 8z" fill="#d7e6f0"/></g><g><path d="m483.77 392h-455.54c.59-.66 1.2-1.31 1.83-1.94 8.68-8.69 20.68-14.06 33.94-14.06h384c14.22 0 26.99 6.18 35.77 16z" fill="#a5c3dc"/></g><g><path d="m496 424c0 2.73-.23 5.4-.67 8h-478.66c-.44-2.6-.67-5.27-.67-8s.23-5.4.67-8h478.66c.44 2.6.67 5.27.67 8z" fill="#a5c3dc"/></g><g><path d="m483.77 456c-.59.66-1.2 1.31-1.83 1.94-8.68 8.69-20.68 14.06-33.94 14.06h-384c-14.22 0-26.99-6.18-35.77-16z" fill="#a5c3dc"/></g></g><g><path d="m448 472h-192c-26.51 0-48-21.49-48-48 0-26.51 21.49-48 48-48h192c26.51 0 48 21.49 48 48 0 26.51-21.49 48-48 48z" fill="#a5c3dc"/></g><g><path d="m256 456c-17.645 0-32-14.355-32-32s14.355-32 32-32h192c17.645 0 32 14.355 32 32s-14.355 32-32 32z" fill="#463c4b"/></g><g><circle cx="256" cy="424" fill="#a5c3dc" r="16"/></g><g><circle cx="320" cy="424" fill="#a5c3dc" r="16"/></g><g><circle cx="384" cy="424" fill="#a5c3dc" r="16"/></g><g><circle cx="448" cy="424" fill="#a5c3dc" r="16"/></g></g><g><path d="m432 376h-96c-8.837 0-16-7.163-16-16v-32c0-8.837 7.163-16 16-16h96c8.837 0 16 7.163 16 16v32c0 8.837-7.163 16-16 16z" fill="#2387c3"/></g><g><path d="m368 376h-32c-8.837 0-16-7.163-16-16v-32c0-8.837 7.163-16 16-16h32c8.837 0 16 7.163 16 16v32c0 8.837-7.163 16-16 16z" fill="#5ad7ff"/></g><g><path d="m408 292c-1.024 0-2.047-.391-2.829-1.171-1.562-1.563-1.562-4.095 0-5.657l16-16c1.563-1.562 4.095-1.562 5.657 0 1.562 1.563 1.562 4.095 0 5.657l-16 16c-.781.78-1.804 1.171-2.828 1.171z" fill="#ffcd05"/></g><g><path d="m440 260c-1.024 0-2.047-.391-2.829-1.171-1.562-1.563-1.562-4.095 0-5.657l8-8c1.563-1.562 4.095-1.562 5.657 0 1.562 1.563 1.562 4.095 0 5.657l-8 8c-.781.78-1.804 1.171-2.828 1.171z" fill="#ffcd05"/></g><g><path d="m360 292c-1.024 0-2.047-.391-2.829-1.171l-16-16c-1.562-1.563-1.562-4.095 0-5.657 1.563-1.562 4.095-1.562 5.657 0l16 16c1.562 1.563 1.562 4.095 0 5.657-.781.78-1.804 1.171-2.828 1.171z" fill="#ffcd05"/></g><g><path d="m328 260c-1.024 0-2.047-.391-2.829-1.171l-8-8c-1.562-1.563-1.562-4.095 0-5.657 1.563-1.562 4.095-1.562 5.657 0l8 8c1.562 1.563 1.562 4.095 0 5.657-.781.78-1.804 1.171-2.828 1.171z" fill="#ffcd05"/></g></g></svg>