<svg width="783" height="327" viewBox="0 0 783 327" fill="none" xmlns="http://www.w3.org/2000/svg">
<g filter="url(#filter0_d_63_547)">
<path d="M762.683 14.0273H20.683V300.027H762.683V14.0273Z" fill="#2F3C54"/>
</g>
<path d="M83.0661 63.0547C83.0661 61.6814 83.3728 60.4547 83.9861 59.3747C84.6128 58.2814 85.4594 57.4347 86.5261 56.8347C87.6061 56.2214 88.8128 55.9147 90.1461 55.9147C91.7061 55.9147 93.0728 56.3147 94.2461 57.1147C95.4194 57.9147 96.2394 59.0214 96.7061 60.4347H93.4861C93.1661 59.768 92.7128 59.268 92.1261 58.9347C91.5528 58.6014 90.8861 58.4347 90.1261 58.4347C89.3128 58.4347 88.5861 58.628 87.9461 59.0147C87.3194 59.388 86.8261 59.9214 86.4661 60.6147C86.1194 61.308 85.9461 62.1214 85.9461 63.0547C85.9461 63.9747 86.1194 64.788 86.4661 65.4947C86.8261 66.188 87.3194 66.728 87.9461 67.1147C88.5861 67.488 89.3128 67.6747 90.1261 67.6747C90.8861 67.6747 91.5528 67.508 92.1261 67.1747C92.7128 66.828 93.1661 66.3214 93.4861 65.6547H96.7061C96.2394 67.0814 95.4194 68.1947 94.2461 68.9947C93.0861 69.7814 91.7194 70.1747 90.1461 70.1747C88.8128 70.1747 87.6061 69.8747 86.5261 69.2747C85.4594 68.6614 84.6128 67.8147 83.9861 66.7347C83.3728 65.6547 83.0661 64.428 83.0661 63.0547ZM111.038 70.0547H108.238L101.898 60.4747V70.0547H99.0977V56.0747H101.898L108.238 65.6747V56.0747H111.038V70.0547ZM113.125 63.0547C113.125 61.6814 113.431 60.4547 114.045 59.3747C114.671 58.2814 115.518 57.4347 116.585 56.8347C117.665 56.2214 118.871 55.9147 120.205 55.9147C121.765 55.9147 123.131 56.3147 124.305 57.1147C125.478 57.9147 126.298 59.0214 126.765 60.4347H123.545C123.225 59.768 122.771 59.268 122.185 58.9347C121.611 58.6014 120.945 58.4347 120.185 58.4347C119.371 58.4347 118.645 58.628 118.005 59.0147C117.378 59.388 116.885 59.9214 116.525 60.6147C116.178 61.308 116.005 62.1214 116.005 63.0547C116.005 63.9747 116.178 64.788 116.525 65.4947C116.885 66.188 117.378 66.728 118.005 67.1147C118.645 67.488 119.371 67.6747 120.185 67.6747C120.945 67.6747 121.611 67.508 122.185 67.1747C122.771 66.828 123.225 66.3214 123.545 65.6547H126.765C126.298 67.0814 125.478 68.1947 124.305 68.9947C123.145 69.7814 121.778 70.1747 120.205 70.1747C118.871 70.1747 117.665 69.8747 116.585 69.2747C115.518 68.6614 114.671 67.8147 114.045 66.7347C113.431 65.6547 113.125 64.428 113.125 63.0547ZM149.142 56.0947V70.0547H146.342V60.9747L142.602 70.0547H140.482L136.722 60.9747V70.0547H133.922V56.0947H137.102L141.542 66.4747L145.982 56.0947H149.142ZM151.19 64.4747C151.19 63.3547 151.41 62.3614 151.85 61.4947C152.303 60.628 152.91 59.9614 153.67 59.4947C154.443 59.028 155.303 58.7947 156.25 58.7947C157.077 58.7947 157.797 58.9614 158.41 59.2947C159.037 59.628 159.537 60.048 159.91 60.5547V58.9747H162.73V70.0547H159.91V68.4347C159.55 68.9547 159.05 69.388 158.41 69.7347C157.783 70.068 157.057 70.2347 156.23 70.2347C155.297 70.2347 154.443 69.9947 153.67 69.5147C152.91 69.0347 152.303 68.3614 151.85 67.4947C151.41 66.6147 151.19 65.608 151.19 64.4747ZM159.91 64.5147C159.91 63.8347 159.777 63.2547 159.51 62.7747C159.243 62.2814 158.883 61.908 158.43 61.6547C157.977 61.388 157.49 61.2547 156.97 61.2547C156.45 61.2547 155.97 61.3814 155.53 61.6347C155.09 61.888 154.73 62.2614 154.45 62.7547C154.183 63.2347 154.05 63.808 154.05 64.4747C154.05 65.1414 154.183 65.728 154.45 66.2347C154.73 66.728 155.09 67.108 155.53 67.3747C155.983 67.6414 156.463 67.7747 156.97 67.7747C157.49 67.7747 157.977 67.648 158.43 67.3947C158.883 67.128 159.243 66.7547 159.51 66.2747C159.777 65.7814 159.91 65.1947 159.91 64.5147ZM164.745 64.5147C164.745 63.368 164.978 62.368 165.445 61.5147C165.912 60.648 166.558 59.9814 167.385 59.5147C168.212 59.0347 169.158 58.7947 170.225 58.7947C171.598 58.7947 172.732 59.1414 173.625 59.8347C174.532 60.5147 175.138 61.4747 175.445 62.7147H172.425C172.265 62.2347 171.992 61.8614 171.605 61.5947C171.232 61.3147 170.765 61.1747 170.205 61.1747C169.405 61.1747 168.772 61.468 168.305 62.0547C167.838 62.628 167.605 63.448 167.605 64.5147C167.605 65.568 167.838 66.388 168.305 66.9747C168.772 67.548 169.405 67.8347 170.205 67.8347C171.338 67.8347 172.078 67.328 172.425 66.3147H175.445C175.138 67.5147 174.532 68.468 173.625 69.1747C172.718 69.8814 171.585 70.2347 170.225 70.2347C169.158 70.2347 168.212 70.0014 167.385 69.5347C166.558 69.0547 165.912 68.388 165.445 67.5347C164.978 66.668 164.745 65.6614 164.745 64.5147ZM183.736 58.8147C184.576 58.8147 185.323 59.0014 185.976 59.3747C186.629 59.7347 187.136 60.2747 187.496 60.9947C187.869 61.7014 188.056 62.5547 188.056 63.5547V70.0547H185.256V63.9347C185.256 63.0547 185.036 62.3814 184.596 61.9147C184.156 61.4347 183.556 61.1947 182.796 61.1947C182.023 61.1947 181.409 61.4347 180.956 61.9147C180.516 62.3814 180.296 63.0547 180.296 63.9347V70.0547H177.496V55.2547H180.296V60.3547C180.656 59.8747 181.136 59.5014 181.736 59.2347C182.336 58.9547 183.003 58.8147 183.736 58.8147ZM192.139 57.6547C191.645 57.6547 191.232 57.5014 190.899 57.1947C190.579 56.8747 190.419 56.4814 190.419 56.0147C190.419 55.548 190.579 55.1614 190.899 54.8547C191.232 54.5347 191.645 54.3747 192.139 54.3747C192.632 54.3747 193.039 54.5347 193.359 54.8547C193.692 55.1614 193.859 55.548 193.859 56.0147C193.859 56.4814 193.692 56.8747 193.359 57.1947C193.039 57.5014 192.632 57.6547 192.139 57.6547ZM193.519 58.9747V70.0547H190.719V58.9747H193.519ZM202.425 58.8147C203.745 58.8147 204.812 59.2347 205.625 60.0747C206.438 60.9014 206.845 62.0614 206.845 63.5547V70.0547H204.045V63.9347C204.045 63.0547 203.825 62.3814 203.385 61.9147C202.945 61.4347 202.345 61.1947 201.585 61.1947C200.812 61.1947 200.198 61.4347 199.745 61.9147C199.305 62.3814 199.085 63.0547 199.085 63.9347V70.0547H196.285V58.9747H199.085V60.3547C199.458 59.8747 199.932 59.5014 200.505 59.2347C201.092 58.9547 201.732 58.8147 202.425 58.8147ZM219.808 64.2747C219.808 64.6747 219.781 65.0347 219.728 65.3547H211.628C211.694 66.1547 211.974 66.7814 212.468 67.2347C212.961 67.688 213.568 67.9147 214.288 67.9147C215.328 67.9147 216.068 67.468 216.508 66.5747H219.528C219.208 67.6414 218.594 68.5214 217.688 69.2147C216.781 69.8947 215.668 70.2347 214.348 70.2347C213.281 70.2347 212.321 70.0014 211.468 69.5347C210.628 69.0547 209.968 68.3814 209.488 67.5147C209.021 66.648 208.788 65.648 208.788 64.5147C208.788 63.368 209.021 62.3614 209.488 61.4947C209.954 60.628 210.608 59.9614 211.448 59.4947C212.288 59.028 213.254 58.7947 214.348 58.7947C215.401 58.7947 216.341 59.0214 217.168 59.4747C218.008 59.928 218.654 60.5747 219.108 61.4147C219.574 62.2414 219.808 63.1947 219.808 64.2747ZM216.908 63.4747C216.894 62.7547 216.634 62.1814 216.128 61.7547C215.621 61.3147 215.001 61.0947 214.268 61.0947C213.574 61.0947 212.988 61.308 212.508 61.7347C212.041 62.148 211.754 62.728 211.648 63.4747H216.908Z" fill="white"/>
<path d="M103.07 99.1387C102.294 99.1387 101.578 98.9587 100.922 98.5987C100.274 98.2307 99.7581 97.7227 99.3741 97.0747C98.9981 96.4187 98.8101 95.6827 98.8101 94.8667C98.8101 94.0507 98.9981 93.3187 99.3741 92.6707C99.7581 92.0227 100.274 91.5187 100.922 91.1587C101.578 90.7907 102.294 90.6067 103.07 90.6067C103.854 90.6067 104.57 90.7907 105.218 91.1587C105.874 91.5187 106.39 92.0227 106.766 92.6707C107.142 93.3187 107.33 94.0507 107.33 94.8667C107.33 95.6827 107.142 96.4187 106.766 97.0747C106.39 97.7227 105.874 98.2307 105.218 98.5987C104.57 98.9587 103.854 99.1387 103.07 99.1387ZM103.07 97.9507C103.622 97.9507 104.114 97.8267 104.546 97.5787C104.978 97.3227 105.314 96.9627 105.554 96.4987C105.802 96.0267 105.926 95.4827 105.926 94.8667C105.926 94.2507 105.802 93.7107 105.554 93.2467C105.314 92.7827 104.978 92.4267 104.546 92.1787C104.114 91.9307 103.622 91.8067 103.07 91.8067C102.518 91.8067 102.026 91.9307 101.594 92.1787C101.162 92.4267 100.822 92.7827 100.574 93.2467C100.334 93.7107 100.214 94.2507 100.214 94.8667C100.214 95.4827 100.334 96.0267 100.574 96.4987C100.822 96.9627 101.162 97.3227 101.594 97.5787C102.026 97.8267 102.518 97.9507 103.07 97.9507ZM112.012 92.3347C112.532 92.3347 112.996 92.4427 113.404 92.6587C113.82 92.8747 114.144 93.1947 114.376 93.6187C114.608 94.0427 114.724 94.5547 114.724 95.1547V99.0547H113.368V95.3587C113.368 94.7667 113.22 94.3147 112.924 94.0027C112.628 93.6827 112.224 93.5227 111.712 93.5227C111.2 93.5227 110.792 93.6827 110.488 94.0027C110.192 94.3147 110.044 94.7667 110.044 95.3587V99.0547H108.676V92.4427H110.044V93.1987C110.268 92.9267 110.552 92.7147 110.896 92.5627C111.248 92.4107 111.62 92.3347 112.012 92.3347ZM117.837 90.1747V99.0547H116.469V90.1747H117.837ZM120.329 91.5667C120.081 91.5667 119.873 91.4827 119.705 91.3147C119.537 91.1467 119.453 90.9387 119.453 90.6907C119.453 90.4427 119.537 90.2347 119.705 90.0667C119.873 89.8987 120.081 89.8147 120.329 89.8147C120.569 89.8147 120.773 89.8987 120.941 90.0667C121.109 90.2347 121.193 90.4427 121.193 90.6907C121.193 90.9387 121.109 91.1467 120.941 91.3147C120.773 91.4827 120.569 91.5667 120.329 91.5667ZM121.001 92.4427V99.0547H119.633V92.4427H121.001ZM126.133 92.3347C126.653 92.3347 127.117 92.4427 127.525 92.6587C127.941 92.8747 128.265 93.1947 128.497 93.6187C128.729 94.0427 128.845 94.5547 128.845 95.1547V99.0547H127.489V95.3587C127.489 94.7667 127.341 94.3147 127.045 94.0027C126.749 93.6827 126.345 93.5227 125.833 93.5227C125.321 93.5227 124.913 93.6827 124.609 94.0027C124.313 94.3147 124.165 94.7667 124.165 95.3587V99.0547H122.797V92.4427H124.165V93.1987C124.389 92.9267 124.673 92.7147 125.017 92.5627C125.369 92.4107 125.741 92.3347 126.133 92.3347ZM136.65 95.5867C136.65 95.8347 136.634 96.0587 136.602 96.2587H131.55C131.59 96.7867 131.786 97.2107 132.138 97.5307C132.49 97.8507 132.922 98.0107 133.434 98.0107C134.17 98.0107 134.69 97.7027 134.994 97.0867H136.47C136.27 97.6947 135.906 98.1947 135.378 98.5867C134.858 98.9707 134.21 99.1627 133.434 99.1627C132.802 99.1627 132.234 99.0227 131.73 98.7427C131.234 98.4547 130.842 98.0547 130.554 97.5427C130.274 97.0227 130.134 96.4227 130.134 95.7427C130.134 95.0627 130.27 94.4667 130.542 93.9547C130.822 93.4347 131.21 93.0347 131.706 92.7547C132.21 92.4747 132.786 92.3347 133.434 92.3347C134.058 92.3347 134.614 92.4707 135.102 92.7427C135.59 93.0147 135.97 93.3987 136.242 93.8947C136.514 94.3827 136.65 94.9467 136.65 95.5867ZM135.222 95.1547C135.214 94.6507 135.034 94.2467 134.682 93.9427C134.33 93.6387 133.894 93.4867 133.374 93.4867C132.902 93.4867 132.498 93.6387 132.162 93.9427C131.826 94.2387 131.626 94.6427 131.562 95.1547H135.222Z" fill="#34C767"/>
<path d="M88.3661 99.0547C91.6798 99.0547 94.3661 96.3684 94.3661 93.0547C94.3661 89.741 91.6798 87.0547 88.3661 87.0547C85.0524 87.0547 82.3661 89.741 82.3661 93.0547C82.3661 96.3684 85.0524 99.0547 88.3661 99.0547Z" fill="#34C767"/>
<path d="M109.482 131.297C110.546 131.297 111.465 131.497 112.24 131.899C113.024 132.291 113.621 132.855 114.032 133.593C114.452 134.33 114.662 135.198 114.662 136.197C114.662 137.195 114.452 138.063 114.032 138.801C113.621 139.529 113.024 140.089 112.24 140.481C111.465 140.863 110.546 141.055 109.482 141.055H106.444V131.297H109.482ZM109.482 140.005C110.742 140.005 111.703 139.673 112.366 139.011C113.029 138.339 113.36 137.401 113.36 136.197C113.36 134.983 113.024 134.036 112.352 133.355C111.689 132.673 110.733 132.333 109.482 132.333H107.718V140.005H109.482ZM115.867 137.191C115.867 136.407 116.025 135.721 116.343 135.133C116.66 134.535 117.094 134.073 117.645 133.747C118.205 133.42 118.825 133.257 119.507 133.257C120.179 133.257 120.762 133.401 121.257 133.691C121.751 133.98 122.12 134.344 122.363 134.783V133.383H123.651V141.055H122.363V139.627C122.111 140.075 121.733 140.448 121.229 140.747C120.734 141.036 120.155 141.181 119.493 141.181C118.811 141.181 118.195 141.013 117.645 140.677C117.094 140.341 116.66 139.869 116.343 139.263C116.025 138.656 115.867 137.965 115.867 137.191ZM122.363 137.205C122.363 136.626 122.246 136.122 122.013 135.693C121.779 135.263 121.462 134.937 121.061 134.713C120.669 134.479 120.235 134.363 119.759 134.363C119.283 134.363 118.849 134.475 118.457 134.699C118.065 134.923 117.752 135.249 117.519 135.679C117.285 136.108 117.169 136.612 117.169 137.191C117.169 137.779 117.285 138.292 117.519 138.731C117.752 139.16 118.065 139.491 118.457 139.725C118.849 139.949 119.283 140.061 119.759 140.061C120.235 140.061 120.669 139.949 121.061 139.725C121.462 139.491 121.779 139.16 122.013 138.731C122.246 138.292 122.363 137.783 122.363 137.205ZM126.461 132.137C126.219 132.137 126.013 132.053 125.845 131.885C125.677 131.717 125.593 131.511 125.593 131.269C125.593 131.026 125.677 130.821 125.845 130.653C126.013 130.485 126.219 130.401 126.461 130.401C126.695 130.401 126.891 130.485 127.049 130.653C127.217 130.821 127.301 131.026 127.301 131.269C127.301 131.511 127.217 131.717 127.049 131.885C126.891 132.053 126.695 132.137 126.461 132.137ZM127.077 133.383V141.055H125.803V133.383H127.077ZM130.523 130.695V141.055H129.249V130.695H130.523ZM139.302 133.383L134.682 144.667H133.366L134.878 140.971L131.784 133.383H133.198L135.606 139.599L137.986 133.383H139.302ZM143.839 136.169C143.839 135.217 144.054 134.363 144.483 133.607C144.913 132.841 145.496 132.244 146.233 131.815C146.98 131.385 147.806 131.171 148.711 131.171C149.775 131.171 150.704 131.427 151.497 131.941C152.291 132.454 152.869 133.182 153.233 134.125H151.707C151.437 133.537 151.045 133.084 150.531 132.767C150.027 132.449 149.421 132.291 148.711 132.291C148.03 132.291 147.419 132.449 146.877 132.767C146.336 133.084 145.911 133.537 145.603 134.125C145.295 134.703 145.141 135.385 145.141 136.169C145.141 136.943 145.295 137.625 145.603 138.213C145.911 138.791 146.336 139.239 146.877 139.557C147.419 139.874 148.03 140.033 148.711 140.033C149.421 140.033 150.027 139.879 150.531 139.571C151.045 139.253 151.437 138.801 151.707 138.213H153.233C152.869 139.146 152.291 139.869 151.497 140.383C150.704 140.887 149.775 141.139 148.711 141.139C147.806 141.139 146.98 140.929 146.233 140.509C145.496 140.079 144.913 139.487 144.483 138.731C144.054 137.975 143.839 137.121 143.839 136.169ZM158.476 141.181C157.757 141.181 157.104 141.017 156.516 140.691C155.937 140.364 155.48 139.902 155.144 139.305C154.817 138.698 154.654 137.998 154.654 137.205C154.654 136.421 154.822 135.73 155.158 135.133C155.503 134.526 155.97 134.064 156.558 133.747C157.146 133.42 157.804 133.257 158.532 133.257C159.26 133.257 159.918 133.42 160.506 133.747C161.094 134.064 161.556 134.521 161.892 135.119C162.237 135.716 162.41 136.411 162.41 137.205C162.41 137.998 162.232 138.698 161.878 139.305C161.532 139.902 161.061 140.364 160.464 140.691C159.866 141.017 159.204 141.181 158.476 141.181ZM158.476 140.061C158.933 140.061 159.362 139.953 159.764 139.739C160.165 139.524 160.487 139.202 160.73 138.773C160.982 138.343 161.108 137.821 161.108 137.205C161.108 136.589 160.986 136.066 160.744 135.637C160.501 135.207 160.184 134.89 159.792 134.685C159.4 134.47 158.975 134.363 158.518 134.363C158.051 134.363 157.622 134.47 157.23 134.685C156.847 134.89 156.539 135.207 156.306 135.637C156.072 136.066 155.956 136.589 155.956 137.205C155.956 137.83 156.068 138.357 156.292 138.787C156.525 139.216 156.833 139.538 157.216 139.753C157.598 139.958 158.018 140.061 158.476 140.061ZM167.823 133.243C168.756 133.243 169.512 133.527 170.091 134.097C170.669 134.657 170.959 135.469 170.959 136.533V141.055H169.699V136.715C169.699 135.949 169.507 135.366 169.125 134.965C168.742 134.554 168.219 134.349 167.557 134.349C166.885 134.349 166.348 134.559 165.947 134.979C165.555 135.399 165.359 136.01 165.359 136.813V141.055H164.085V133.383H165.359V134.475C165.611 134.083 165.951 133.779 166.381 133.565C166.819 133.35 167.3 133.243 167.823 133.243ZM175.756 141.181C175.168 141.181 174.64 141.083 174.174 140.887C173.707 140.681 173.338 140.401 173.068 140.047C172.797 139.683 172.648 139.267 172.62 138.801H173.936C173.973 139.183 174.15 139.496 174.468 139.739C174.794 139.981 175.219 140.103 175.742 140.103C176.227 140.103 176.61 139.995 176.89 139.781C177.17 139.566 177.31 139.295 177.31 138.969C177.31 138.633 177.16 138.385 176.862 138.227C176.563 138.059 176.101 137.895 175.476 137.737C174.906 137.587 174.44 137.438 174.076 137.289C173.721 137.13 173.413 136.901 173.152 136.603C172.9 136.295 172.774 135.893 172.774 135.399C172.774 135.007 172.89 134.647 173.124 134.321C173.357 133.994 173.688 133.737 174.118 133.551C174.547 133.355 175.037 133.257 175.588 133.257C176.437 133.257 177.123 133.471 177.646 133.901C178.168 134.33 178.448 134.918 178.486 135.665H177.212C177.184 135.263 177.02 134.941 176.722 134.699C176.432 134.456 176.04 134.335 175.546 134.335C175.088 134.335 174.724 134.433 174.454 134.629C174.183 134.825 174.048 135.081 174.048 135.399C174.048 135.651 174.127 135.861 174.286 136.029C174.454 136.187 174.659 136.318 174.902 136.421C175.154 136.514 175.499 136.621 175.938 136.743C176.488 136.892 176.936 137.041 177.282 137.191C177.627 137.331 177.921 137.545 178.164 137.835C178.416 138.124 178.546 138.502 178.556 138.969C178.556 139.389 178.439 139.767 178.206 140.103C177.972 140.439 177.641 140.705 177.212 140.901C176.792 141.087 176.306 141.181 175.756 141.181ZM187.158 133.383V141.055H185.884V139.921C185.642 140.313 185.301 140.621 184.862 140.845C184.433 141.059 183.957 141.167 183.434 141.167C182.837 141.167 182.3 141.045 181.824 140.803C181.348 140.551 180.97 140.177 180.69 139.683C180.42 139.188 180.284 138.586 180.284 137.877V133.383H181.544V137.709C181.544 138.465 181.736 139.048 182.118 139.459C182.501 139.86 183.024 140.061 183.686 140.061C184.368 140.061 184.904 139.851 185.296 139.431C185.688 139.011 185.884 138.399 185.884 137.597V133.383H187.158ZM198.535 133.243C199.133 133.243 199.665 133.369 200.131 133.621C200.598 133.863 200.967 134.232 201.237 134.727C201.508 135.221 201.643 135.823 201.643 136.533V141.055H200.383V136.715C200.383 135.949 200.192 135.366 199.809 134.965C199.436 134.554 198.927 134.349 198.283 134.349C197.621 134.349 197.093 134.563 196.701 134.993C196.309 135.413 196.113 136.024 196.113 136.827V141.055H194.853V136.715C194.853 135.949 194.662 135.366 194.279 134.965C193.906 134.554 193.397 134.349 192.753 134.349C192.091 134.349 191.563 134.563 191.171 134.993C190.779 135.413 190.583 136.024 190.583 136.827V141.055H189.309V133.383H190.583V134.489C190.835 134.087 191.171 133.779 191.591 133.565C192.021 133.35 192.492 133.243 193.005 133.243C193.649 133.243 194.219 133.387 194.713 133.677C195.208 133.966 195.577 134.391 195.819 134.951C196.034 134.409 196.389 133.989 196.883 133.691C197.378 133.392 197.929 133.243 198.535 133.243ZM205.007 134.797C205.259 134.358 205.632 133.994 206.127 133.705C206.631 133.406 207.214 133.257 207.877 133.257C208.558 133.257 209.174 133.42 209.725 133.747C210.285 134.073 210.724 134.535 211.041 135.133C211.358 135.721 211.517 136.407 211.517 137.191C211.517 137.965 211.358 138.656 211.041 139.263C210.724 139.869 210.285 140.341 209.725 140.677C209.174 141.013 208.558 141.181 207.877 141.181C207.224 141.181 206.645 141.036 206.141 140.747C205.646 140.448 205.268 140.079 205.007 139.641V144.695H203.733V133.383H205.007V134.797ZM210.215 137.191C210.215 136.612 210.098 136.108 209.865 135.679C209.632 135.249 209.314 134.923 208.913 134.699C208.521 134.475 208.087 134.363 207.611 134.363C207.144 134.363 206.71 134.479 206.309 134.713C205.917 134.937 205.6 135.268 205.357 135.707C205.124 136.136 205.007 136.635 205.007 137.205C205.007 137.783 205.124 138.292 205.357 138.731C205.6 139.16 205.917 139.491 206.309 139.725C206.71 139.949 207.144 140.061 207.611 140.061C208.087 140.061 208.521 139.949 208.913 139.725C209.314 139.491 209.632 139.16 209.865 138.731C210.098 138.292 210.215 137.779 210.215 137.191ZM214.748 134.433V138.955C214.748 139.328 214.827 139.594 214.986 139.753C215.145 139.902 215.42 139.977 215.812 139.977H216.75V141.055H215.602C214.893 141.055 214.361 140.891 214.006 140.565C213.651 140.238 213.474 139.701 213.474 138.955V134.433H212.48V133.383H213.474V131.451H214.748V133.383H216.75V134.433H214.748ZM218.952 132.137C218.709 132.137 218.504 132.053 218.336 131.885C218.168 131.717 218.084 131.511 218.084 131.269C218.084 131.026 218.168 130.821 218.336 130.653C218.504 130.485 218.709 130.401 218.952 130.401C219.185 130.401 219.381 130.485 219.54 130.653C219.708 130.821 219.792 131.026 219.792 131.269C219.792 131.511 219.708 131.717 219.54 131.885C219.381 132.053 219.185 132.137 218.952 132.137ZM219.568 133.383V141.055H218.294V133.383H219.568ZM225.085 141.181C224.366 141.181 223.713 141.017 223.125 140.691C222.546 140.364 222.089 139.902 221.753 139.305C221.426 138.698 221.263 137.998 221.263 137.205C221.263 136.421 221.431 135.73 221.767 135.133C222.112 134.526 222.579 134.064 223.167 133.747C223.755 133.42 224.413 133.257 225.141 133.257C225.869 133.257 226.527 133.42 227.115 133.747C227.703 134.064 228.165 134.521 228.501 135.119C228.846 135.716 229.019 136.411 229.019 137.205C229.019 137.998 228.842 138.698 228.487 139.305C228.142 139.902 227.67 140.364 227.073 140.691C226.476 141.017 225.813 141.181 225.085 141.181ZM225.085 140.061C225.542 140.061 225.972 139.953 226.373 139.739C226.774 139.524 227.096 139.202 227.339 138.773C227.591 138.343 227.717 137.821 227.717 137.205C227.717 136.589 227.596 136.066 227.353 135.637C227.11 135.207 226.793 134.89 226.401 134.685C226.009 134.47 225.584 134.363 225.127 134.363C224.66 134.363 224.231 134.47 223.839 134.685C223.456 134.89 223.148 135.207 222.915 135.637C222.682 136.066 222.565 136.589 222.565 137.205C222.565 137.83 222.677 138.357 222.901 138.787C223.134 139.216 223.442 139.538 223.825 139.753C224.208 139.958 224.628 140.061 225.085 140.061ZM234.432 133.243C235.365 133.243 236.121 133.527 236.7 134.097C237.279 134.657 237.568 135.469 237.568 136.533V141.055H236.308V136.715C236.308 135.949 236.117 135.366 235.734 134.965C235.351 134.554 234.829 134.349 234.166 134.349C233.494 134.349 232.957 134.559 232.556 134.979C232.164 135.399 231.968 136.01 231.968 136.813V141.055H230.694V133.383H231.968V134.475C232.22 134.083 232.561 133.779 232.99 133.565C233.429 133.35 233.909 133.243 234.432 133.243Z" fill="white"/>
<path d="M301.08 140.033C302.265 139.081 303.194 138.301 303.866 137.695C304.538 137.079 305.103 136.439 305.56 135.777C306.027 135.105 306.26 134.447 306.26 133.803C306.26 133.196 306.111 132.72 305.812 132.375C305.523 132.02 305.051 131.843 304.398 131.843C303.763 131.843 303.269 132.043 302.914 132.445C302.569 132.837 302.382 133.364 302.354 134.027H301.122C301.159 132.981 301.477 132.174 302.074 131.605C302.671 131.035 303.441 130.751 304.384 130.751C305.345 130.751 306.106 131.017 306.666 131.549C307.235 132.081 307.52 132.813 307.52 133.747C307.52 134.521 307.287 135.277 306.82 136.015C306.363 136.743 305.84 137.387 305.252 137.947C304.664 138.497 303.913 139.141 302.998 139.879H307.814V140.943H301.08V140.033ZM309.287 135.889C309.287 134.283 309.548 133.033 310.071 132.137C310.593 131.231 311.508 130.779 312.815 130.779C314.112 130.779 315.022 131.231 315.545 132.137C316.067 133.033 316.329 134.283 316.329 135.889C316.329 137.522 316.067 138.791 315.545 139.697C315.022 140.602 314.112 141.055 312.815 141.055C311.508 141.055 310.593 140.602 310.071 139.697C309.548 138.791 309.287 137.522 309.287 135.889ZM315.069 135.889C315.069 135.077 315.013 134.391 314.901 133.831C314.798 133.261 314.579 132.804 314.243 132.459C313.916 132.113 313.44 131.941 312.815 131.941C312.18 131.941 311.695 132.113 311.359 132.459C311.032 132.804 310.813 133.261 310.701 133.831C310.598 134.391 310.547 135.077 310.547 135.889C310.547 136.729 310.598 137.433 310.701 138.003C310.813 138.572 311.032 139.029 311.359 139.375C311.695 139.72 312.18 139.893 312.815 139.893C313.44 139.893 313.916 139.72 314.243 139.375C314.579 139.029 314.798 138.572 314.901 138.003C315.013 137.433 315.069 136.729 315.069 135.889ZM318.078 135.889C318.078 134.283 318.339 133.033 318.862 132.137C319.385 131.231 320.299 130.779 321.606 130.779C322.903 130.779 323.813 131.231 324.336 132.137C324.859 133.033 325.12 134.283 325.12 135.889C325.12 137.522 324.859 138.791 324.336 139.697C323.813 140.602 322.903 141.055 321.606 141.055C320.299 141.055 319.385 140.602 318.862 139.697C318.339 138.791 318.078 137.522 318.078 135.889ZM323.86 135.889C323.86 135.077 323.804 134.391 323.692 133.831C323.589 133.261 323.37 132.804 323.034 132.459C322.707 132.113 322.231 131.941 321.606 131.941C320.971 131.941 320.486 132.113 320.15 132.459C319.823 132.804 319.604 133.261 319.492 133.831C319.389 134.391 319.338 135.077 319.338 135.889C319.338 136.729 319.389 137.433 319.492 138.003C319.604 138.572 319.823 139.029 320.15 139.375C320.486 139.72 320.971 139.893 321.606 139.893C322.231 139.893 322.707 139.72 323.034 139.375C323.37 139.029 323.589 138.572 323.692 138.003C323.804 137.433 323.86 136.729 323.86 135.889ZM335.095 141.055L332.085 137.667V141.055H330.811V130.695H332.085V136.785L335.039 133.383H336.817L333.205 137.205L336.831 141.055H335.095ZM350.28 131.297L347.452 141.055H346.024L343.756 133.201L341.404 141.055L339.99 141.069L337.26 131.297H338.618L340.746 139.571L343.098 131.297H344.526L346.766 139.543L348.908 131.297H350.28Z" fill="white"/>
<path d="M87.8082 144.023C87.5628 144.022 87.3205 143.968 87.0982 143.864C86.7348 143.702 86.4428 143.414 86.2771 143.052C86.1114 142.691 86.0833 142.281 86.1982 141.901L87.3672 138.033H84.6152C84.264 138.033 83.9176 137.951 83.6038 137.794C83.29 137.636 83.0175 137.407 82.8082 137.125C82.5989 136.843 82.4587 136.516 82.3988 136.17C82.3389 135.824 82.3609 135.469 82.4632 135.133L84.7272 127.655C84.8643 127.191 85.1484 126.784 85.5367 126.495C85.9249 126.207 86.3964 126.052 86.8802 126.055H89.6452C89.9595 126.055 90.2691 126.131 90.5474 126.277C90.8258 126.423 91.0647 126.634 91.2437 126.893C91.4227 127.151 91.5364 127.449 91.5751 127.761C91.6139 128.073 91.5765 128.389 91.4662 128.684L90.2062 132.045H92.1202C92.5288 132.044 92.9297 132.155 93.2799 132.366C93.6301 132.576 93.9162 132.878 94.1074 133.24C94.2987 133.601 94.3878 134.007 94.3652 134.415C94.3426 134.823 94.2091 135.217 93.9792 135.555L89.1882 143.266C89.0401 143.498 88.8362 143.689 88.5951 143.822C88.354 143.955 88.0835 144.025 87.8082 144.027V144.023ZM86.8802 127.555C86.7194 127.555 86.5629 127.606 86.4337 127.702C86.3046 127.798 86.2098 127.933 86.1632 128.087L83.8952 135.57C83.8613 135.682 83.8541 135.8 83.8741 135.915C83.8941 136.03 83.9407 136.139 84.0103 136.233C84.0799 136.327 84.1705 136.403 84.2748 136.455C84.3791 136.508 84.4943 136.536 84.6112 136.536H88.3772C88.494 136.536 88.6092 136.563 88.7135 136.616C88.8179 136.669 88.9084 136.745 88.978 136.839C89.0476 136.933 89.0943 137.041 89.1142 137.157C89.1342 137.272 89.127 137.39 89.0932 137.502L87.6362 142.325C87.6295 142.342 87.6266 142.361 87.6276 142.38C87.6287 142.399 87.6336 142.418 87.6422 142.435C87.6507 142.452 87.6627 142.467 87.6773 142.479C87.692 142.491 87.7089 142.5 87.7272 142.505C87.7437 142.515 87.7622 142.522 87.7815 142.525C87.8008 142.527 87.8204 142.526 87.8392 142.521C87.858 142.516 87.8755 142.507 87.8907 142.495C87.9058 142.482 87.9182 142.467 87.9272 142.45L92.7182 134.739C92.8027 134.625 92.853 134.489 92.8633 134.347C92.8736 134.205 92.8433 134.064 92.7762 133.939C92.7145 133.818 92.6204 133.716 92.5044 133.646C92.3883 133.575 92.255 133.538 92.1192 133.539H89.1262C89.0054 133.538 88.8864 133.509 88.7795 133.453C88.6726 133.397 88.5808 133.315 88.5121 133.216C88.4433 133.117 88.3996 133.002 88.3846 132.882C88.3697 132.763 88.3839 132.641 88.4262 132.528L90.0642 128.155C90.0895 128.087 90.098 128.014 90.0891 127.942C90.0801 127.87 90.054 127.802 90.0128 127.742C89.9717 127.683 89.9168 127.634 89.8528 127.6C89.7887 127.567 89.7175 127.549 89.6452 127.549L86.8802 127.555Z" fill="white"/>
<path d="M112.868 191.153C111.963 191.153 111.137 190.943 110.39 190.523C109.643 190.093 109.051 189.501 108.612 188.745C108.183 187.979 107.968 187.121 107.968 186.169C107.968 185.217 108.183 184.363 108.612 183.607C109.051 182.841 109.643 182.249 110.39 181.829C111.137 181.399 111.963 181.185 112.868 181.185C113.783 181.185 114.613 181.399 115.36 181.829C116.107 182.249 116.695 182.837 117.124 183.593C117.553 184.349 117.768 185.207 117.768 186.169C117.768 187.13 117.553 187.989 117.124 188.745C116.695 189.501 116.107 190.093 115.36 190.523C114.613 190.943 113.783 191.153 112.868 191.153ZM112.868 190.047C113.549 190.047 114.161 189.888 114.702 189.571C115.253 189.253 115.682 188.801 115.99 188.213C116.307 187.625 116.466 186.943 116.466 186.169C116.466 185.385 116.307 184.703 115.99 184.125C115.682 183.537 115.257 183.084 114.716 182.767C114.175 182.449 113.559 182.291 112.868 182.291C112.177 182.291 111.561 182.449 111.02 182.767C110.479 183.084 110.049 183.537 109.732 184.125C109.424 184.703 109.27 185.385 109.27 186.169C109.27 186.943 109.424 187.625 109.732 188.213C110.049 188.801 110.479 189.253 111.02 189.571C111.571 189.888 112.187 190.047 112.868 190.047ZM120.724 184.797C120.976 184.358 121.349 183.994 121.844 183.705C122.348 183.406 122.931 183.257 123.594 183.257C124.275 183.257 124.891 183.42 125.442 183.747C126.002 184.073 126.441 184.535 126.758 185.133C127.075 185.721 127.234 186.407 127.234 187.191C127.234 187.965 127.075 188.656 126.758 189.263C126.441 189.869 126.002 190.341 125.442 190.677C124.891 191.013 124.275 191.181 123.594 191.181C122.941 191.181 122.362 191.036 121.858 190.747C121.363 190.448 120.985 190.079 120.724 189.641V194.695H119.45V183.383H120.724V184.797ZM125.932 187.191C125.932 186.612 125.815 186.108 125.582 185.679C125.349 185.249 125.031 184.923 124.63 184.699C124.238 184.475 123.804 184.363 123.328 184.363C122.861 184.363 122.427 184.479 122.026 184.713C121.634 184.937 121.317 185.268 121.074 185.707C120.841 186.136 120.724 186.635 120.724 187.205C120.724 187.783 120.841 188.292 121.074 188.731C121.317 189.16 121.634 189.491 122.026 189.725C122.427 189.949 122.861 190.061 123.328 190.061C123.804 190.061 124.238 189.949 124.63 189.725C125.031 189.491 125.349 189.16 125.582 188.731C125.815 188.292 125.932 187.779 125.932 187.191ZM135.911 186.925C135.911 187.167 135.897 187.424 135.869 187.695H129.737C129.784 188.451 130.04 189.043 130.507 189.473C130.983 189.893 131.557 190.103 132.229 190.103C132.78 190.103 133.237 189.977 133.601 189.725C133.974 189.463 134.236 189.118 134.385 188.689H135.757C135.552 189.426 135.141 190.028 134.525 190.495C133.909 190.952 133.144 191.181 132.229 191.181C131.501 191.181 130.848 191.017 130.269 190.691C129.7 190.364 129.252 189.902 128.925 189.305C128.598 188.698 128.435 187.998 128.435 187.205C128.435 186.411 128.594 185.716 128.911 185.119C129.228 184.521 129.672 184.064 130.241 183.747C130.82 183.42 131.482 183.257 132.229 183.257C132.957 183.257 133.601 183.415 134.161 183.733C134.721 184.05 135.15 184.489 135.449 185.049C135.757 185.599 135.911 186.225 135.911 186.925ZM134.595 186.659C134.595 186.173 134.488 185.758 134.273 185.413C134.058 185.058 133.764 184.792 133.391 184.615C133.027 184.428 132.621 184.335 132.173 184.335C131.529 184.335 130.978 184.54 130.521 184.951C130.073 185.361 129.816 185.931 129.751 186.659H134.595ZM138.867 184.629C139.091 184.19 139.408 183.849 139.819 183.607C140.239 183.364 140.747 183.243 141.345 183.243V184.559H141.009C139.581 184.559 138.867 185.333 138.867 186.883V191.055H137.593V183.383H138.867V184.629ZM142.339 187.191C142.339 186.407 142.498 185.721 142.815 185.133C143.133 184.535 143.567 184.073 144.117 183.747C144.677 183.42 145.298 183.257 145.979 183.257C146.651 183.257 147.235 183.401 147.729 183.691C148.224 183.98 148.593 184.344 148.835 184.783V183.383H150.123V191.055H148.835V189.627C148.583 190.075 148.205 190.448 147.701 190.747C147.207 191.036 146.628 191.181 145.965 191.181C145.284 191.181 144.668 191.013 144.117 190.677C143.567 190.341 143.133 189.869 142.815 189.263C142.498 188.656 142.339 187.965 142.339 187.191ZM148.835 187.205C148.835 186.626 148.719 186.122 148.485 185.693C148.252 185.263 147.935 184.937 147.533 184.713C147.141 184.479 146.707 184.363 146.231 184.363C145.755 184.363 145.321 184.475 144.929 184.699C144.537 184.923 144.225 185.249 143.991 185.679C143.758 186.108 143.641 186.612 143.641 187.191C143.641 187.779 143.758 188.292 143.991 188.731C144.225 189.16 144.537 189.491 144.929 189.725C145.321 189.949 145.755 190.061 146.231 190.061C146.707 190.061 147.141 189.949 147.533 189.725C147.935 189.491 148.252 189.16 148.485 188.731C148.719 188.292 148.835 187.783 148.835 187.205ZM153.83 184.433V188.955C153.83 189.328 153.909 189.594 154.068 189.753C154.227 189.902 154.502 189.977 154.894 189.977H155.832V191.055H154.684C153.975 191.055 153.443 190.891 153.088 190.565C152.733 190.238 152.556 189.701 152.556 188.955V184.433H151.562V183.383H152.556V181.451H153.83V183.383H155.832V184.433H153.83ZM160.722 191.181C160.003 191.181 159.35 191.017 158.762 190.691C158.183 190.364 157.726 189.902 157.39 189.305C157.063 188.698 156.9 187.998 156.9 187.205C156.9 186.421 157.068 185.73 157.404 185.133C157.749 184.526 158.216 184.064 158.804 183.747C159.392 183.42 160.05 183.257 160.778 183.257C161.506 183.257 162.164 183.42 162.752 183.747C163.34 184.064 163.802 184.521 164.138 185.119C164.483 185.716 164.656 186.411 164.656 187.205C164.656 187.998 164.478 188.698 164.124 189.305C163.778 189.902 163.307 190.364 162.71 190.691C162.112 191.017 161.45 191.181 160.722 191.181ZM160.722 190.061C161.179 190.061 161.608 189.953 162.01 189.739C162.411 189.524 162.733 189.202 162.976 188.773C163.228 188.343 163.354 187.821 163.354 187.205C163.354 186.589 163.232 186.066 162.99 185.637C162.747 185.207 162.43 184.89 162.038 184.685C161.646 184.47 161.221 184.363 160.764 184.363C160.297 184.363 159.868 184.47 159.476 184.685C159.093 184.89 158.785 185.207 158.552 185.637C158.318 186.066 158.202 186.589 158.202 187.205C158.202 187.83 158.314 188.357 158.538 188.787C158.771 189.216 159.079 189.538 159.462 189.753C159.844 189.958 160.264 190.061 160.722 190.061ZM167.605 184.629C167.829 184.19 168.146 183.849 168.557 183.607C168.977 183.364 169.485 183.243 170.083 183.243V184.559H169.747C168.319 184.559 167.605 185.333 167.605 186.883V191.055H166.331V183.383H167.605V184.629Z" fill="white"/>
<path d="M315.358 181.297V188.507C315.358 189.309 315.111 189.953 314.616 190.439C314.121 190.915 313.468 191.153 312.656 191.153C311.835 191.153 311.177 190.91 310.682 190.425C310.187 189.93 309.94 189.258 309.94 188.409H311.214C311.223 188.885 311.345 189.272 311.578 189.571C311.821 189.869 312.18 190.019 312.656 190.019C313.132 190.019 313.487 189.879 313.72 189.599C313.953 189.309 314.07 188.945 314.07 188.507V181.297H315.358ZM321.214 191.181C320.495 191.181 319.842 191.017 319.254 190.691C318.675 190.364 318.218 189.902 317.882 189.305C317.555 188.698 317.392 187.998 317.392 187.205C317.392 186.421 317.56 185.73 317.896 185.133C318.241 184.526 318.708 184.064 319.296 183.747C319.884 183.42 320.542 183.257 321.27 183.257C321.998 183.257 322.656 183.42 323.244 183.747C323.832 184.064 324.294 184.521 324.63 185.119C324.975 185.716 325.148 186.411 325.148 187.205C325.148 187.998 324.971 188.698 324.616 189.305C324.271 189.902 323.799 190.364 323.202 190.691C322.605 191.017 321.942 191.181 321.214 191.181ZM321.214 190.061C321.671 190.061 322.101 189.953 322.502 189.739C322.903 189.524 323.225 189.202 323.468 188.773C323.72 188.343 323.846 187.821 323.846 187.205C323.846 186.589 323.725 186.066 323.482 185.637C323.239 185.207 322.922 184.89 322.53 184.685C322.138 184.47 321.713 184.363 321.256 184.363C320.789 184.363 320.36 184.47 319.968 184.685C319.585 184.89 319.277 185.207 319.044 185.637C318.811 186.066 318.694 186.589 318.694 187.205C318.694 187.83 318.806 188.357 319.03 188.787C319.263 189.216 319.571 189.538 319.954 189.753C320.337 189.958 320.757 190.061 321.214 190.061ZM330.561 183.243C331.494 183.243 332.25 183.527 332.829 184.097C333.408 184.657 333.697 185.469 333.697 186.533V191.055H332.437V186.715C332.437 185.949 332.246 185.366 331.863 184.965C331.48 184.554 330.958 184.349 330.295 184.349C329.623 184.349 329.086 184.559 328.685 184.979C328.293 185.399 328.097 186.01 328.097 186.813V191.055H326.823V183.383H328.097V184.475C328.349 184.083 328.69 183.779 329.119 183.565C329.558 183.35 330.038 183.243 330.561 183.243ZM342.778 186.925C342.778 187.167 342.764 187.424 342.736 187.695H336.604C336.651 188.451 336.907 189.043 337.374 189.473C337.85 189.893 338.424 190.103 339.096 190.103C339.647 190.103 340.104 189.977 340.468 189.725C340.841 189.463 341.103 189.118 341.252 188.689H342.624C342.419 189.426 342.008 190.028 341.392 190.495C340.776 190.952 340.011 191.181 339.096 191.181C338.368 191.181 337.715 191.017 337.136 190.691C336.567 190.364 336.119 189.902 335.792 189.305C335.465 188.698 335.302 187.998 335.302 187.205C335.302 186.411 335.461 185.716 335.778 185.119C336.095 184.521 336.539 184.064 337.108 183.747C337.687 183.42 338.349 183.257 339.096 183.257C339.824 183.257 340.468 183.415 341.028 183.733C341.588 184.05 342.017 184.489 342.316 185.049C342.624 185.599 342.778 186.225 342.778 186.925ZM341.462 186.659C341.462 186.173 341.355 185.758 341.14 185.413C340.925 185.058 340.631 184.792 340.258 184.615C339.894 184.428 339.488 184.335 339.04 184.335C338.396 184.335 337.845 184.54 337.388 184.951C336.94 185.361 336.683 185.931 336.618 186.659H341.462ZM347.176 191.181C346.588 191.181 346.06 191.083 345.594 190.887C345.127 190.681 344.758 190.401 344.488 190.047C344.217 189.683 344.068 189.267 344.04 188.801H345.356C345.393 189.183 345.57 189.496 345.888 189.739C346.214 189.981 346.639 190.103 347.162 190.103C347.647 190.103 348.03 189.995 348.31 189.781C348.59 189.566 348.73 189.295 348.73 188.969C348.73 188.633 348.58 188.385 348.282 188.227C347.983 188.059 347.521 187.895 346.896 187.737C346.326 187.587 345.86 187.438 345.496 187.289C345.141 187.13 344.833 186.901 344.572 186.603C344.32 186.295 344.194 185.893 344.194 185.399C344.194 185.007 344.31 184.647 344.544 184.321C344.777 183.994 345.108 183.737 345.538 183.551C345.967 183.355 346.457 183.257 347.008 183.257C347.857 183.257 348.543 183.471 349.066 183.901C349.588 184.33 349.868 184.918 349.906 185.665H348.632C348.604 185.263 348.44 184.941 348.142 184.699C347.852 184.456 347.46 184.335 346.966 184.335C346.508 184.335 346.144 184.433 345.874 184.629C345.603 184.825 345.468 185.081 345.468 185.399C345.468 185.651 345.547 185.861 345.706 186.029C345.874 186.187 346.079 186.318 346.322 186.421C346.574 186.514 346.919 186.621 347.358 186.743C347.908 186.892 348.356 187.041 348.702 187.191C349.047 187.331 349.341 187.545 349.584 187.835C349.836 188.124 349.966 188.502 349.976 188.969C349.976 189.389 349.859 189.767 349.626 190.103C349.392 190.439 349.061 190.705 348.632 190.901C348.212 191.087 347.726 191.181 347.176 191.181Z" fill="white"/>
<path d="M95.0331 179.722H92.3661V179.055C92.3661 178.524 92.1554 178.016 91.7803 177.64C91.4052 177.265 90.8965 177.055 90.3661 177.055C89.8357 177.055 89.3269 177.265 88.9519 177.64C88.5768 178.016 88.3661 178.524 88.3661 179.055V179.722H85.6991C84.8154 179.723 83.9683 180.074 83.3435 180.699C82.7186 181.324 82.3671 182.171 82.3661 183.055V189.722C82.3671 190.605 82.7186 191.452 83.3435 192.077C83.9683 192.702 84.8154 193.054 85.6991 193.055H95.0321C95.9159 193.054 96.7633 192.703 97.3884 192.078C98.0134 191.453 98.365 190.606 98.3661 189.722V183.055C98.365 182.171 98.0135 181.324 97.3887 180.699C96.7639 180.074 95.9167 179.723 95.0331 179.722ZM89.6991 179.055C89.6991 178.878 89.7694 178.708 89.8944 178.583C90.0195 178.458 90.1892 178.388 90.3661 178.388C90.543 178.388 90.7126 178.458 90.8377 178.583C90.9628 178.708 91.0331 178.878 91.0331 179.055V180.388C91.0264 180.56 90.9533 180.723 90.829 180.843C90.7047 180.962 90.539 181.029 90.3666 181.029C90.1942 181.029 90.0284 180.962 89.9042 180.843C89.7799 180.723 89.7068 180.56 89.7001 180.388L89.6991 179.055ZM97.0321 189.722C97.0321 190.252 96.8214 190.761 96.4463 191.136C96.0712 191.511 95.5625 191.722 95.0321 191.722H85.6991C85.1687 191.722 84.6599 191.511 84.2849 191.136C83.9098 190.761 83.6991 190.252 83.6991 189.722V183.055C83.6991 182.524 83.9098 182.016 84.2849 181.64C84.6599 181.265 85.1687 181.055 85.6991 181.055H88.4891C88.625 181.444 88.8787 181.782 89.215 182.021C89.5513 182.259 89.9536 182.388 90.3661 182.388C90.7786 182.388 91.1809 182.259 91.5172 182.021C91.8535 181.782 92.1072 181.444 92.2431 181.055H95.0321C95.5625 181.055 96.0712 181.265 96.4463 181.64C96.8214 182.016 97.0321 182.524 97.0321 183.055V189.722ZM89.0321 183.722H85.6991C85.5222 183.722 85.3525 183.792 85.2274 183.917C85.1024 184.042 85.0321 184.212 85.0321 184.389V189.722C85.0321 189.899 85.1024 190.068 85.2274 190.193C85.3525 190.318 85.5222 190.389 85.6991 190.389H89.0331C89.21 190.389 89.3796 190.318 89.5047 190.193C89.6298 190.068 89.7001 189.899 89.7001 189.722V184.388C89.6998 184.211 89.6294 184.042 89.5044 183.917C89.3793 183.792 89.2088 183.722 89.0321 183.722ZM88.3661 189.055H86.3661V185.055H88.3661V189.055ZM95.6991 187.055C95.6991 187.232 95.6288 187.401 95.5037 187.526C95.3786 187.651 95.209 187.722 95.0321 187.722H91.6991C91.5268 187.715 91.3638 187.642 91.2442 187.518C91.1247 187.393 91.0579 187.228 91.0579 187.055C91.0579 186.883 91.1247 186.717 91.2442 186.593C91.3638 186.469 91.5268 186.395 91.6991 186.389H95.0321C95.2088 186.389 95.3783 186.459 95.5034 186.584C95.6284 186.709 95.6988 186.878 95.6991 187.055ZM95.6991 184.388C95.6991 184.564 95.629 184.734 95.5041 184.859C95.3792 184.984 95.2098 185.054 95.0331 185.055H91.6991C91.5268 185.048 91.3638 184.975 91.2442 184.851C91.1247 184.726 91.0579 184.561 91.0579 184.388C91.0579 184.216 91.1247 184.05 91.2442 183.926C91.3638 183.802 91.5268 183.728 91.6991 183.722H95.0321C95.2088 183.722 95.3783 183.792 95.5034 183.917C95.6284 184.042 95.6988 184.211 95.6991 184.388ZM94.3661 189.722C94.3661 189.899 94.2958 190.068 94.1707 190.193C94.0456 190.318 93.876 190.389 93.6991 190.389H91.6991C91.5268 190.382 91.3638 190.309 91.2442 190.185C91.1247 190.06 91.0579 189.895 91.0579 189.722C91.0579 189.55 91.1247 189.384 91.2442 189.26C91.3638 189.136 91.5268 189.062 91.6991 189.056H93.6991C93.8758 189.056 94.0453 189.126 94.1704 189.251C94.2954 189.376 94.3658 189.545 94.3661 189.722Z" fill="white"/>
<path d="M108.522 238.949H113.282V240.055H107.01V239.047L111.742 231.403H107.066V230.297H113.254V231.305L108.522 238.949ZM118.364 240.181C117.646 240.181 116.992 240.017 116.404 239.691C115.826 239.364 115.368 238.902 115.032 238.305C114.706 237.698 114.542 236.998 114.542 236.205C114.542 235.421 114.71 234.73 115.046 234.133C115.392 233.526 115.858 233.064 116.446 232.747C117.034 232.42 117.692 232.257 118.42 232.257C119.148 232.257 119.806 232.42 120.394 232.747C120.982 233.064 121.444 233.521 121.78 234.119C122.126 234.716 122.298 235.411 122.298 236.205C122.298 236.998 122.121 237.698 121.766 238.305C121.421 238.902 120.95 239.364 120.352 239.691C119.755 240.017 119.092 240.181 118.364 240.181ZM118.364 239.061C118.822 239.061 119.251 238.953 119.652 238.739C120.054 238.524 120.376 238.202 120.618 237.773C120.87 237.343 120.996 236.821 120.996 236.205C120.996 235.589 120.875 235.066 120.632 234.637C120.39 234.207 120.072 233.89 119.68 233.685C119.288 233.47 118.864 233.363 118.406 233.363C117.94 233.363 117.51 233.47 117.118 233.685C116.736 233.89 116.428 234.207 116.194 234.637C115.961 235.066 115.844 235.589 115.844 236.205C115.844 236.83 115.956 237.357 116.18 237.787C116.414 238.216 116.722 238.538 117.104 238.753C117.487 238.958 117.907 239.061 118.364 239.061ZM127.711 232.243C128.645 232.243 129.401 232.527 129.979 233.097C130.558 233.657 130.847 234.469 130.847 235.533V240.055H129.587V235.715C129.587 234.949 129.396 234.366 129.013 233.965C128.631 233.554 128.108 233.349 127.445 233.349C126.773 233.349 126.237 233.559 125.835 233.979C125.443 234.399 125.247 235.01 125.247 235.813V240.055H123.973V232.383H125.247V233.475C125.499 233.083 125.84 232.779 126.269 232.565C126.708 232.35 127.189 232.243 127.711 232.243ZM139.928 235.925C139.928 236.167 139.914 236.424 139.886 236.695H133.754C133.801 237.451 134.058 238.043 134.524 238.473C135 238.893 135.574 239.103 136.246 239.103C136.797 239.103 137.254 238.977 137.618 238.725C137.992 238.463 138.253 238.118 138.402 237.689H139.774C139.569 238.426 139.158 239.028 138.542 239.495C137.926 239.952 137.161 240.181 136.246 240.181C135.518 240.181 134.865 240.017 134.286 239.691C133.717 239.364 133.269 238.902 132.942 238.305C132.616 237.698 132.452 236.998 132.452 236.205C132.452 235.411 132.611 234.716 132.928 234.119C133.246 233.521 133.689 233.064 134.258 232.747C134.837 232.42 135.5 232.257 136.246 232.257C136.974 232.257 137.618 232.415 138.178 232.733C138.738 233.05 139.168 233.489 139.466 234.049C139.774 234.599 139.928 235.225 139.928 235.925ZM138.612 235.659C138.612 235.173 138.505 234.758 138.29 234.413C138.076 234.058 137.782 233.792 137.408 233.615C137.044 233.428 136.638 233.335 136.19 233.335C135.546 233.335 134.996 233.54 134.538 233.951C134.09 234.361 133.834 234.931 133.768 235.659H138.612Z" fill="white"/>
<path d="M305.522 238.949H310.282V240.055H304.01V239.047L308.742 231.403H304.066V230.297H310.254V231.305L305.522 238.949ZM315.364 240.181C314.646 240.181 313.992 240.017 313.404 239.691C312.826 239.364 312.368 238.902 312.032 238.305C311.706 237.698 311.542 236.998 311.542 236.205C311.542 235.421 311.71 234.73 312.046 234.133C312.392 233.526 312.858 233.064 313.446 232.747C314.034 232.42 314.692 232.257 315.42 232.257C316.148 232.257 316.806 232.42 317.394 232.747C317.982 233.064 318.444 233.521 318.78 234.119C319.126 234.716 319.298 235.411 319.298 236.205C319.298 236.998 319.121 237.698 318.766 238.305C318.421 238.902 317.95 239.364 317.352 239.691C316.755 240.017 316.092 240.181 315.364 240.181ZM315.364 239.061C315.822 239.061 316.251 238.953 316.652 238.739C317.054 238.524 317.376 238.202 317.618 237.773C317.87 237.343 317.996 236.821 317.996 236.205C317.996 235.589 317.875 235.066 317.632 234.637C317.39 234.207 317.072 233.89 316.68 233.685C316.288 233.47 315.864 233.363 315.406 233.363C314.94 233.363 314.51 233.47 314.118 233.685C313.736 233.89 313.428 234.207 313.194 234.637C312.961 235.066 312.844 235.589 312.844 236.205C312.844 236.83 312.956 237.357 313.18 237.787C313.414 238.216 313.722 238.538 314.104 238.753C314.487 238.958 314.907 239.061 315.364 239.061ZM324.711 232.243C325.645 232.243 326.401 232.527 326.979 233.097C327.558 233.657 327.847 234.469 327.847 235.533V240.055H326.587V235.715C326.587 234.949 326.396 234.366 326.013 233.965C325.631 233.554 325.108 233.349 324.445 233.349C323.773 233.349 323.237 233.559 322.835 233.979C322.443 234.399 322.247 235.01 322.247 235.813V240.055H320.973V232.383H322.247V233.475C322.499 233.083 322.84 232.779 323.269 232.565C323.708 232.35 324.189 232.243 324.711 232.243ZM336.928 235.925C336.928 236.167 336.914 236.424 336.886 236.695H330.754C330.801 237.451 331.058 238.043 331.524 238.473C332 238.893 332.574 239.103 333.246 239.103C333.797 239.103 334.254 238.977 334.618 238.725C334.992 238.463 335.253 238.118 335.402 237.689H336.774C336.569 238.426 336.158 239.028 335.542 239.495C334.926 239.952 334.161 240.181 333.246 240.181C332.518 240.181 331.865 240.017 331.286 239.691C330.717 239.364 330.269 238.902 329.942 238.305C329.616 237.698 329.452 236.998 329.452 236.205C329.452 235.411 329.611 234.716 329.928 234.119C330.246 233.521 330.689 233.064 331.258 232.747C331.837 232.42 332.5 232.257 333.246 232.257C333.974 232.257 334.618 232.415 335.178 232.733C335.738 233.05 336.168 233.489 336.466 234.049C336.774 234.599 336.928 235.225 336.928 235.925ZM335.612 235.659C335.612 235.173 335.505 234.758 335.29 234.413C335.076 234.058 334.782 233.792 334.408 233.615C334.044 233.428 333.638 233.335 333.19 233.335C332.546 233.335 331.996 233.54 331.538 233.951C331.09 234.361 330.834 234.931 330.768 235.659H335.612ZM348.111 237.885H343.855L343.071 240.055H341.727L345.255 230.353H346.725L350.239 240.055H348.895L348.111 237.885ZM347.747 236.849L345.983 231.921L344.219 236.849H347.747Z" fill="white"/>
<path d="M96.3661 231.138L95.0371 227.055H83.6951L82.3661 231.138C82.3674 231.545 82.476 231.946 82.6808 232.298C82.8856 232.651 83.1795 232.944 83.5331 233.147V237.555H82.3661V239.305C82.3666 239.769 82.5512 240.213 82.8792 240.542C83.2073 240.87 83.6521 241.054 84.1161 241.055H94.6161C95.0801 241.054 95.5249 240.87 95.8529 240.542C96.181 240.213 96.3656 239.769 96.3661 239.305V237.555H95.1991V233.147C95.5526 232.944 95.8466 232.651 96.0514 232.298C96.2562 231.946 96.3647 231.545 96.3661 231.138ZM84.5371 228.222H86.4491V229.972H87.6161V228.222H91.1161V229.972H92.2831V228.222H94.1961L95.1961 231.222C95.1746 231.516 95.0429 231.791 94.8272 231.991C94.6115 232.192 94.3278 232.304 94.0331 232.305H93.4501C93.1407 232.304 92.844 232.181 92.6252 231.963C92.4064 231.744 92.2834 231.447 92.2831 231.138H91.1161C91.1158 231.447 90.9928 231.744 90.774 231.963C90.5552 232.181 90.2585 232.304 89.9491 232.305H88.7831C88.4737 232.304 88.177 232.181 87.9582 231.963C87.7394 231.744 87.6164 231.447 87.6161 231.138H86.4491C86.4488 231.447 86.3259 231.743 86.1073 231.962C85.8888 232.181 85.5923 232.304 85.2831 232.305H84.6991C84.4045 232.304 84.121 232.192 83.9053 231.992C83.6897 231.791 83.5578 231.516 83.5361 231.223L84.5361 228.223L84.5371 228.222ZM95.1991 239.305C95.1988 239.459 95.1373 239.607 95.028 239.717C94.9188 239.826 94.7706 239.887 94.6161 239.888H84.1161C83.9615 239.887 83.8134 239.826 83.7041 239.717C83.5949 239.607 83.5334 239.459 83.5331 239.305V238.722H87.0831L87.6661 239.305H91.0661L91.6491 238.722H95.1991V239.305ZM94.0331 237.555H91.1661L90.5831 238.138H88.1491L87.5661 237.555H84.6991V233.472H85.2821C85.6145 233.471 85.9428 233.398 86.2448 233.259C86.5467 233.12 86.8152 232.918 87.0321 232.666C87.2489 232.918 87.5174 233.12 87.8194 233.259C88.1213 233.398 88.4497 233.471 88.7821 233.472H89.9491C90.2815 233.471 90.6098 233.398 90.9118 233.259C91.2137 233.12 91.4822 232.918 91.6991 232.666C91.9159 232.918 92.1844 233.12 92.4864 233.259C92.7883 233.398 93.1167 233.471 93.4491 233.472H94.0321L94.0331 237.555Z" fill="white"/>
<path d="M472.664 131.325V141.055H471.068V134.391L468.1 141.055H466.994L464.012 134.391V141.055H462.416V131.325H464.138L467.554 138.955L470.956 131.325H472.664ZM474.23 137.163C474.23 136.388 474.388 135.702 474.706 135.105C475.032 134.507 475.471 134.045 476.022 133.719C476.582 133.383 477.198 133.215 477.87 133.215C478.476 133.215 479.004 133.336 479.452 133.579C479.909 133.812 480.273 134.106 480.544 134.461V133.341H482.154V141.055H480.544V139.907C480.273 140.271 479.904 140.574 479.438 140.817C478.971 141.059 478.439 141.181 477.842 141.181C477.179 141.181 476.572 141.013 476.022 140.677C475.471 140.331 475.032 139.855 474.706 139.249C474.388 138.633 474.23 137.937 474.23 137.163ZM480.544 137.191C480.544 136.659 480.432 136.197 480.208 135.805C479.993 135.413 479.708 135.114 479.354 134.909C478.999 134.703 478.616 134.601 478.206 134.601C477.795 134.601 477.412 134.703 477.058 134.909C476.703 135.105 476.414 135.399 476.19 135.791C475.975 136.173 475.868 136.631 475.868 137.163C475.868 137.695 475.975 138.161 476.19 138.563C476.414 138.964 476.703 139.272 477.058 139.487C477.422 139.692 477.804 139.795 478.206 139.795C478.616 139.795 478.999 139.692 479.354 139.487C479.708 139.281 479.993 138.983 480.208 138.591C480.432 138.189 480.544 137.723 480.544 137.191ZM487.302 137.205L490.858 141.055H488.702L485.846 137.737V141.055H484.25V130.695H485.846V136.715L488.646 133.341H490.858L487.302 137.205ZM499.072 137.009C499.072 137.298 499.053 137.559 499.016 137.793H493.122C493.169 138.409 493.397 138.903 493.808 139.277C494.219 139.65 494.723 139.837 495.32 139.837C496.179 139.837 496.785 139.477 497.14 138.759H498.862C498.629 139.468 498.204 140.051 497.588 140.509C496.981 140.957 496.225 141.181 495.32 141.181C494.583 141.181 493.92 141.017 493.332 140.691C492.753 140.355 492.296 139.888 491.96 139.291C491.633 138.684 491.47 137.984 491.47 137.191C491.47 136.397 491.629 135.702 491.946 135.105C492.273 134.498 492.725 134.031 493.304 133.705C493.892 133.378 494.564 133.215 495.32 133.215C496.048 133.215 496.697 133.373 497.266 133.691C497.835 134.008 498.279 134.456 498.596 135.035C498.913 135.604 499.072 136.262 499.072 137.009ZM497.406 136.505C497.397 135.917 497.187 135.445 496.776 135.091C496.365 134.736 495.857 134.559 495.25 134.559C494.699 134.559 494.228 134.736 493.836 135.091C493.444 135.436 493.211 135.907 493.136 136.505H497.406ZM511.797 141.055L510.593 139.851C510.127 140.317 509.618 140.667 509.067 140.901C508.517 141.125 507.901 141.237 507.219 141.237C506.529 141.237 505.917 141.115 505.385 140.873C504.853 140.63 504.443 140.285 504.153 139.837C503.864 139.379 503.719 138.852 503.719 138.255C503.719 137.583 503.911 136.985 504.293 136.463C504.676 135.931 505.245 135.511 506.001 135.203C505.731 134.876 505.539 134.573 505.427 134.293C505.315 134.003 505.259 133.686 505.259 133.341C505.259 132.911 505.367 132.529 505.581 132.193C505.805 131.857 506.123 131.591 506.533 131.395C506.944 131.199 507.42 131.101 507.961 131.101C508.512 131.101 508.979 131.208 509.361 131.423C509.753 131.628 510.043 131.913 510.229 132.277C510.425 132.641 510.505 133.047 510.467 133.495H508.871C508.881 133.149 508.797 132.883 508.619 132.697C508.442 132.501 508.199 132.403 507.891 132.403C507.583 132.403 507.331 132.496 507.135 132.683C506.949 132.86 506.855 133.079 506.855 133.341C506.855 133.593 506.925 133.845 507.065 134.097C507.215 134.339 507.471 134.657 507.835 135.049L510.411 137.611L511.405 135.973H513.127L511.867 138.129L511.517 138.703L513.883 141.055H511.797ZM507.219 139.879C508.097 139.879 508.871 139.519 509.543 138.801L506.967 136.211C505.866 136.649 505.315 137.312 505.315 138.199C505.315 138.675 505.493 139.076 505.847 139.403C506.202 139.72 506.659 139.879 507.219 139.879ZM528.814 131.325V141.055H527.218V134.391L524.25 141.055H523.144L520.162 134.391V141.055H518.566V131.325H520.288L523.704 138.955L527.106 131.325H528.814ZM534.258 141.181C533.53 141.181 532.872 141.017 532.284 140.691C531.696 140.355 531.234 139.888 530.898 139.291C530.562 138.684 530.394 137.984 530.394 137.191C530.394 136.407 530.567 135.711 530.912 135.105C531.258 134.498 531.729 134.031 532.326 133.705C532.924 133.378 533.591 133.215 534.328 133.215C535.066 133.215 535.733 133.378 536.33 133.705C536.928 134.031 537.399 134.498 537.744 135.105C538.09 135.711 538.262 136.407 538.262 137.191C538.262 137.975 538.085 138.67 537.73 139.277C537.376 139.883 536.89 140.355 536.274 140.691C535.668 141.017 534.996 141.181 534.258 141.181ZM534.258 139.795C534.669 139.795 535.052 139.697 535.406 139.501C535.77 139.305 536.064 139.011 536.288 138.619C536.512 138.227 536.624 137.751 536.624 137.191C536.624 136.631 536.517 136.159 536.302 135.777C536.088 135.385 535.803 135.091 535.448 134.895C535.094 134.699 534.711 134.601 534.3 134.601C533.89 134.601 533.507 134.699 533.152 134.895C532.807 135.091 532.532 135.385 532.326 135.777C532.121 136.159 532.018 136.631 532.018 137.191C532.018 138.021 532.228 138.665 532.648 139.123C533.078 139.571 533.614 139.795 534.258 139.795ZM539.308 137.163C539.308 136.388 539.467 135.702 539.784 135.105C540.111 134.507 540.549 134.045 541.1 133.719C541.66 133.383 542.281 133.215 542.962 133.215C543.466 133.215 543.961 133.327 544.446 133.551C544.941 133.765 545.333 134.055 545.622 134.419V130.695H547.232V141.055H545.622V139.893C545.361 140.266 544.997 140.574 544.53 140.817C544.073 141.059 543.545 141.181 542.948 141.181C542.276 141.181 541.66 141.013 541.1 140.677C540.549 140.331 540.111 139.855 539.784 139.249C539.467 138.633 539.308 137.937 539.308 137.163ZM545.622 137.191C545.622 136.659 545.51 136.197 545.286 135.805C545.071 135.413 544.787 135.114 544.432 134.909C544.077 134.703 543.695 134.601 543.284 134.601C542.873 134.601 542.491 134.703 542.136 134.909C541.781 135.105 541.492 135.399 541.268 135.791C541.053 136.173 540.946 136.631 540.946 137.163C540.946 137.695 541.053 138.161 541.268 138.563C541.492 138.964 541.781 139.272 542.136 139.487C542.5 139.692 542.883 139.795 543.284 139.795C543.695 139.795 544.077 139.692 544.432 139.487C544.787 139.281 545.071 138.983 545.286 138.591C545.51 138.189 545.622 137.723 545.622 137.191ZM556.398 137.009C556.398 137.298 556.38 137.559 556.342 137.793H550.448C550.495 138.409 550.724 138.903 551.134 139.277C551.545 139.65 552.049 139.837 552.646 139.837C553.505 139.837 554.112 139.477 554.466 138.759H556.188C555.955 139.468 555.53 140.051 554.914 140.509C554.308 140.957 553.552 141.181 552.646 141.181C551.909 141.181 551.246 141.017 550.658 140.691C550.08 140.355 549.622 139.888 549.286 139.291C548.96 138.684 548.796 137.984 548.796 137.191C548.796 136.397 548.955 135.702 549.272 135.105C549.599 134.498 550.052 134.031 550.63 133.705C551.218 133.378 551.89 133.215 552.646 133.215C553.374 133.215 554.023 133.373 554.592 133.691C555.162 134.008 555.605 134.456 555.922 135.035C556.24 135.604 556.398 136.262 556.398 137.009ZM554.732 136.505C554.723 135.917 554.513 135.445 554.102 135.091C553.692 134.736 553.183 134.559 552.576 134.559C552.026 134.559 551.554 134.736 551.162 135.091C550.77 135.436 550.537 135.907 550.462 136.505H554.732ZM559.565 130.695V141.055H557.969V130.695H559.565Z" fill="white"/>
<path d="M472.664 175.325V185.055H471.068V178.391L468.1 185.055H466.994L464.012 178.391V185.055H462.416V175.325H464.138L467.554 182.955L470.956 175.325H472.664ZM474.23 181.163C474.23 180.388 474.388 179.702 474.706 179.105C475.032 178.507 475.471 178.045 476.022 177.719C476.582 177.383 477.198 177.215 477.87 177.215C478.476 177.215 479.004 177.336 479.452 177.579C479.909 177.812 480.273 178.106 480.544 178.461V177.341H482.154V185.055H480.544V183.907C480.273 184.271 479.904 184.574 479.438 184.817C478.971 185.059 478.439 185.181 477.842 185.181C477.179 185.181 476.572 185.013 476.022 184.677C475.471 184.331 475.032 183.855 474.706 183.249C474.388 182.633 474.23 181.937 474.23 181.163ZM480.544 181.191C480.544 180.659 480.432 180.197 480.208 179.805C479.993 179.413 479.708 179.114 479.354 178.909C478.999 178.703 478.616 178.601 478.206 178.601C477.795 178.601 477.412 178.703 477.058 178.909C476.703 179.105 476.414 179.399 476.19 179.791C475.975 180.173 475.868 180.631 475.868 181.163C475.868 181.695 475.975 182.161 476.19 182.563C476.414 182.964 476.703 183.272 477.058 183.487C477.422 183.692 477.804 183.795 478.206 183.795C478.616 183.795 478.999 183.692 479.354 183.487C479.708 183.281 479.993 182.983 480.208 182.591C480.432 182.189 480.544 181.723 480.544 181.191ZM483.718 181.191C483.718 180.397 483.877 179.702 484.194 179.105C484.521 178.498 484.969 178.031 485.538 177.705C486.107 177.378 486.761 177.215 487.498 177.215C488.431 177.215 489.201 177.439 489.808 177.887C490.424 178.325 490.839 178.955 491.054 179.777H489.332C489.192 179.394 488.968 179.095 488.66 178.881C488.352 178.666 487.965 178.559 487.498 178.559C486.845 178.559 486.322 178.792 485.93 179.259C485.547 179.716 485.356 180.36 485.356 181.191C485.356 182.021 485.547 182.67 485.93 183.137C486.322 183.603 486.845 183.837 487.498 183.837C488.422 183.837 489.033 183.431 489.332 182.619H491.054C490.83 183.403 490.41 184.028 489.794 184.495C489.178 184.952 488.413 185.181 487.498 185.181C486.761 185.181 486.107 185.017 485.538 184.691C484.969 184.355 484.521 183.888 484.194 183.291C483.877 182.684 483.718 181.984 483.718 181.191ZM496.635 177.215C497.223 177.215 497.745 177.341 498.203 177.593C498.669 177.845 499.033 178.218 499.295 178.713C499.565 179.207 499.701 179.805 499.701 180.505V185.055H498.119V180.743C498.119 180.052 497.946 179.525 497.601 179.161C497.255 178.787 496.784 178.601 496.187 178.601C495.589 178.601 495.113 178.787 494.759 179.161C494.413 179.525 494.241 180.052 494.241 180.743V185.055H492.645V174.695H494.241V178.237C494.511 177.91 494.852 177.658 495.263 177.481C495.683 177.303 496.14 177.215 496.635 177.215ZM502.548 176.319C502.259 176.319 502.016 176.221 501.82 176.025C501.624 175.829 501.526 175.586 501.526 175.297C501.526 175.007 501.624 174.765 501.82 174.569C502.016 174.373 502.259 174.275 502.548 174.275C502.828 174.275 503.066 174.373 503.262 174.569C503.458 174.765 503.556 175.007 503.556 175.297C503.556 175.586 503.458 175.829 503.262 176.025C503.066 176.221 502.828 176.319 502.548 176.319ZM503.332 177.341V185.055H501.736V177.341H503.332ZM509.32 177.215C509.926 177.215 510.468 177.341 510.944 177.593C511.429 177.845 511.807 178.218 512.078 178.713C512.348 179.207 512.484 179.805 512.484 180.505V185.055H510.902V180.743C510.902 180.052 510.729 179.525 510.384 179.161C510.038 178.787 509.567 178.601 508.97 178.601C508.372 178.601 507.896 178.787 507.542 179.161C507.196 179.525 507.024 180.052 507.024 180.743V185.055H505.428V177.341H507.024V178.223C507.285 177.905 507.616 177.658 508.018 177.481C508.428 177.303 508.862 177.215 509.32 177.215ZM521.59 181.009C521.59 181.298 521.571 181.559 521.534 181.793H515.64C515.686 182.409 515.915 182.903 516.326 183.277C516.736 183.65 517.24 183.837 517.838 183.837C518.696 183.837 519.303 183.477 519.658 182.759H521.38C521.146 183.468 520.722 184.051 520.106 184.509C519.499 184.957 518.743 185.181 517.838 185.181C517.1 185.181 516.438 185.017 515.85 184.691C515.271 184.355 514.814 183.888 514.478 183.291C514.151 182.684 513.988 181.984 513.988 181.191C513.988 180.397 514.146 179.702 514.464 179.105C514.79 178.498 515.243 178.031 515.822 177.705C516.41 177.378 517.082 177.215 517.838 177.215C518.566 177.215 519.214 177.373 519.784 177.691C520.353 178.008 520.796 178.456 521.114 179.035C521.431 179.604 521.59 180.262 521.59 181.009ZM519.924 180.505C519.914 179.917 519.704 179.445 519.294 179.091C518.883 178.736 518.374 178.559 517.768 178.559C517.217 178.559 516.746 178.736 516.354 179.091C515.962 179.436 515.728 179.907 515.654 180.505H519.924ZM528.393 175.325V185.055H526.797V175.325H528.393ZM533.666 175.325C534.702 175.325 535.608 175.525 536.382 175.927C537.166 176.319 537.768 176.888 538.188 177.635C538.618 178.372 538.832 179.235 538.832 180.225C538.832 181.214 538.618 182.073 538.188 182.801C537.768 183.529 537.166 184.089 536.382 184.481C535.608 184.863 534.702 185.055 533.666 185.055H530.488V175.325H533.666ZM533.666 183.753C534.805 183.753 535.678 183.445 536.284 182.829C536.891 182.213 537.194 181.345 537.194 180.225C537.194 179.095 536.891 178.213 536.284 177.579C535.678 176.944 534.805 176.627 533.666 176.627H532.084V183.753H533.666Z" fill="white"/>
<path d="M633.342 131.367V141.055H632.068V133.831L628.848 141.055H627.952L624.718 133.817V141.055H623.444V131.367H624.816L628.4 139.375L631.984 131.367H633.342ZM642.307 133.383V141.055H641.033V139.921C640.79 140.313 640.449 140.621 640.011 140.845C639.581 141.059 639.105 141.167 638.583 141.167C637.985 141.167 637.449 141.045 636.973 140.803C636.497 140.551 636.119 140.177 635.839 139.683C635.568 139.188 635.433 138.586 635.433 137.877V133.383H636.693V137.709C636.693 138.465 636.884 139.048 637.267 139.459C637.649 139.86 638.172 140.061 638.835 140.061C639.516 140.061 640.053 139.851 640.445 139.431C640.837 139.011 641.033 138.399 641.033 137.597V133.383H642.307ZM645.732 130.695V141.055H644.458V130.695H645.732ZM649.457 134.433V138.955C649.457 139.328 649.536 139.594 649.695 139.753C649.854 139.902 650.129 139.977 650.521 139.977H651.459V141.055H650.311C649.602 141.055 649.07 140.891 648.715 140.565C648.36 140.238 648.183 139.701 648.183 138.955V134.433H647.189V133.383H648.183V131.451H649.457V133.383H651.459V134.433H649.457ZM653.661 132.137C653.418 132.137 653.213 132.053 653.045 131.885C652.877 131.717 652.793 131.511 652.793 131.269C652.793 131.026 652.877 130.821 653.045 130.653C653.213 130.485 653.418 130.401 653.661 130.401C653.894 130.401 654.09 130.485 654.249 130.653C654.417 130.821 654.501 131.026 654.501 131.269C654.501 131.511 654.417 131.717 654.249 131.885C654.09 132.053 653.894 132.137 653.661 132.137ZM654.277 133.383V141.055H653.003V133.383H654.277ZM655.972 137.205C655.972 136.411 656.131 135.721 656.448 135.133C656.765 134.535 657.204 134.073 657.764 133.747C658.333 133.42 658.982 133.257 659.71 133.257C660.653 133.257 661.427 133.485 662.034 133.943C662.65 134.4 663.056 135.035 663.252 135.847H661.88C661.749 135.38 661.493 135.011 661.11 134.741C660.737 134.47 660.27 134.335 659.71 134.335C658.982 134.335 658.394 134.587 657.946 135.091C657.498 135.585 657.274 136.29 657.274 137.205C657.274 138.129 657.498 138.843 657.946 139.347C658.394 139.851 658.982 140.103 659.71 140.103C660.27 140.103 660.737 139.972 661.11 139.711C661.483 139.449 661.74 139.076 661.88 138.591H663.252C663.047 139.375 662.636 140.005 662.02 140.481C661.404 140.947 660.634 141.181 659.71 141.181C658.982 141.181 658.333 141.017 657.764 140.691C657.204 140.364 656.765 139.902 656.448 139.305C656.131 138.707 655.972 138.007 655.972 137.205ZM664.476 137.191C664.476 136.407 664.635 135.721 664.952 135.133C665.269 134.535 665.703 134.073 666.254 133.747C666.814 133.42 667.435 133.257 668.116 133.257C668.788 133.257 669.371 133.401 669.866 133.691C670.361 133.98 670.729 134.344 670.972 134.783V133.383H672.26V141.055H670.972V139.627C670.72 140.075 670.342 140.448 669.838 140.747C669.343 141.036 668.765 141.181 668.102 141.181C667.421 141.181 666.805 141.013 666.254 140.677C665.703 140.341 665.269 139.869 664.952 139.263C664.635 138.656 664.476 137.965 664.476 137.191ZM670.972 137.205C670.972 136.626 670.855 136.122 670.622 135.693C670.389 135.263 670.071 134.937 669.67 134.713C669.278 134.479 668.844 134.363 668.368 134.363C667.892 134.363 667.458 134.475 667.066 134.699C666.674 134.923 666.361 135.249 666.128 135.679C665.895 136.108 665.778 136.612 665.778 137.191C665.778 137.779 665.895 138.292 666.128 138.731C666.361 139.16 666.674 139.491 667.066 139.725C667.458 139.949 667.892 140.061 668.368 140.061C668.844 140.061 669.278 139.949 669.67 139.725C670.071 139.491 670.389 139.16 670.622 138.731C670.855 138.292 670.972 137.783 670.972 137.205ZM683.639 133.243C684.236 133.243 684.768 133.369 685.235 133.621C685.702 133.863 686.07 134.232 686.341 134.727C686.612 135.221 686.747 135.823 686.747 136.533V141.055H685.487V136.715C685.487 135.949 685.296 135.366 684.913 134.965C684.54 134.554 684.031 134.349 683.387 134.349C682.724 134.349 682.197 134.563 681.805 134.993C681.413 135.413 681.217 136.024 681.217 136.827V141.055H679.957V136.715C679.957 135.949 679.766 135.366 679.383 134.965C679.01 134.554 678.501 134.349 677.857 134.349C677.194 134.349 676.667 134.563 676.275 134.993C675.883 135.413 675.687 136.024 675.687 136.827V141.055H674.413V133.383H675.687V134.489C675.939 134.087 676.275 133.779 676.695 133.565C677.124 133.35 677.596 133.243 678.109 133.243C678.753 133.243 679.322 133.387 679.817 133.677C680.312 133.966 680.68 134.391 680.923 134.951C681.138 134.409 681.492 133.989 681.987 133.691C682.482 133.392 683.032 133.243 683.639 133.243ZM698.813 132.039H693.899V135.231C694.114 134.932 694.431 134.689 694.851 134.503C695.271 134.307 695.724 134.209 696.209 134.209C696.984 134.209 697.614 134.372 698.099 134.699C698.584 135.016 698.93 135.431 699.135 135.945C699.35 136.449 699.457 136.985 699.457 137.555C699.457 138.227 699.331 138.829 699.079 139.361C698.827 139.893 698.44 140.313 697.917 140.621C697.404 140.929 696.764 141.083 695.999 141.083C695.019 141.083 694.226 140.831 693.619 140.327C693.012 139.823 692.644 139.151 692.513 138.311H693.759C693.88 138.843 694.137 139.258 694.529 139.557C694.921 139.855 695.416 140.005 696.013 140.005C696.75 140.005 697.306 139.785 697.679 139.347C698.052 138.899 698.239 138.311 698.239 137.583C698.239 136.855 698.052 136.295 697.679 135.903C697.306 135.501 696.755 135.301 696.027 135.301C695.532 135.301 695.098 135.422 694.725 135.665C694.361 135.898 694.095 136.22 693.927 136.631H692.723V130.919H698.813V132.039ZM701.15 135.889C701.15 134.283 701.411 133.033 701.934 132.137C702.457 131.231 703.371 130.779 704.678 130.779C705.975 130.779 706.885 131.231 707.408 132.137C707.931 133.033 708.192 134.283 708.192 135.889C708.192 137.522 707.931 138.791 707.408 139.697C706.885 140.602 705.975 141.055 704.678 141.055C703.371 141.055 702.457 140.602 701.934 139.697C701.411 138.791 701.15 137.522 701.15 135.889ZM706.932 135.889C706.932 135.077 706.876 134.391 706.764 133.831C706.661 133.261 706.442 132.804 706.106 132.459C705.779 132.113 705.303 131.941 704.678 131.941C704.043 131.941 703.558 132.113 703.222 132.459C702.895 132.804 702.676 133.261 702.564 133.831C702.461 134.391 702.41 135.077 702.41 135.889C702.41 136.729 702.461 137.433 702.564 138.003C702.676 138.572 702.895 139.029 703.222 139.375C703.558 139.72 704.043 139.893 704.678 139.893C705.303 139.893 705.779 139.72 706.106 139.375C706.442 139.029 706.661 138.572 706.764 138.003C706.876 137.433 706.932 136.729 706.932 135.889ZM709.941 135.889C709.941 134.283 710.202 133.033 710.725 132.137C711.248 131.231 712.162 130.779 713.469 130.779C714.766 130.779 715.676 131.231 716.199 132.137C716.722 133.033 716.983 134.283 716.983 135.889C716.983 137.522 716.722 138.791 716.199 139.697C715.676 140.602 714.766 141.055 713.469 141.055C712.162 141.055 711.248 140.602 710.725 139.697C710.202 138.791 709.941 137.522 709.941 135.889ZM715.723 135.889C715.723 135.077 715.667 134.391 715.555 133.831C715.452 133.261 715.233 132.804 714.897 132.459C714.57 132.113 714.094 131.941 713.469 131.941C712.834 131.941 712.349 132.113 712.013 132.459C711.686 132.804 711.467 133.261 711.355 133.831C711.252 134.391 711.201 135.077 711.201 135.889C711.201 136.729 711.252 137.433 711.355 138.003C711.467 138.572 711.686 139.029 712.013 139.375C712.349 139.72 712.834 139.893 713.469 139.893C714.094 139.893 714.57 139.72 714.897 139.375C715.233 139.029 715.452 138.572 715.555 138.003C715.667 137.433 715.723 136.729 715.723 135.889ZM718.732 135.889C718.732 134.283 718.993 133.033 719.516 132.137C720.039 131.231 720.953 130.779 722.26 130.779C723.557 130.779 724.467 131.231 724.99 132.137C725.513 133.033 725.774 134.283 725.774 135.889C725.774 137.522 725.513 138.791 724.99 139.697C724.467 140.602 723.557 141.055 722.26 141.055C720.953 141.055 720.039 140.602 719.516 139.697C718.993 138.791 718.732 137.522 718.732 135.889ZM724.514 135.889C724.514 135.077 724.458 134.391 724.346 133.831C724.243 133.261 724.024 132.804 723.688 132.459C723.361 132.113 722.885 131.941 722.26 131.941C721.625 131.941 721.14 132.113 720.804 132.459C720.477 132.804 720.258 133.261 720.146 133.831C720.043 134.391 719.992 135.077 719.992 135.889C719.992 136.729 720.043 137.433 720.146 138.003C720.258 138.572 720.477 139.029 720.804 139.375C721.14 139.72 721.625 139.893 722.26 139.893C722.885 139.893 723.361 139.72 723.688 139.375C724.024 139.029 724.243 138.572 724.346 138.003C724.458 137.433 724.514 136.729 724.514 135.889Z" fill="white"/>
<path d="M641.774 40.7507V49.0547H640.682V42.8627L637.922 49.0547H637.154L634.382 42.8507V49.0547H633.29V40.7507H634.466L637.538 47.6147L640.61 40.7507H641.774ZM643.218 45.7427C643.218 45.0707 643.354 44.4827 643.626 43.9787C643.898 43.4667 644.27 43.0707 644.742 42.7907C645.222 42.5107 645.754 42.3707 646.338 42.3707C646.914 42.3707 647.414 42.4947 647.838 42.7427C648.262 42.9907 648.578 43.3027 648.786 43.6787V42.4787H649.89V49.0547H648.786V47.8307C648.57 48.2147 648.246 48.5347 647.814 48.7907C647.39 49.0387 646.894 49.1627 646.326 49.1627C645.742 49.1627 645.214 49.0187 644.742 48.7307C644.27 48.4427 643.898 48.0387 643.626 47.5187C643.354 46.9987 643.218 46.4067 643.218 45.7427ZM648.786 45.7547C648.786 45.2587 648.686 44.8267 648.486 44.4587C648.286 44.0907 648.014 43.8107 647.67 43.6187C647.334 43.4187 646.962 43.3187 646.554 43.3187C646.146 43.3187 645.774 43.4147 645.438 43.6067C645.102 43.7987 644.834 44.0787 644.634 44.4467C644.434 44.8147 644.334 45.2467 644.334 45.7427C644.334 46.2467 644.434 46.6867 644.634 47.0627C644.834 47.4307 645.102 47.7147 645.438 47.9147C645.774 48.1067 646.146 48.2027 646.554 48.2027C646.962 48.2027 647.334 48.1067 647.67 47.9147C648.014 47.7147 648.286 47.4307 648.486 47.0627C648.686 46.6867 648.786 46.2507 648.786 45.7547ZM651.327 45.7547C651.327 45.0747 651.463 44.4827 651.735 43.9787C652.007 43.4667 652.383 43.0707 652.863 42.7907C653.351 42.5107 653.907 42.3707 654.531 42.3707C655.339 42.3707 656.003 42.5667 656.523 42.9587C657.051 43.3507 657.399 43.8947 657.567 44.5907H656.391C656.279 44.1907 656.059 43.8747 655.731 43.6427C655.411 43.4107 655.011 43.2947 654.531 43.2947C653.907 43.2947 653.403 43.5107 653.019 43.9427C652.635 44.3667 652.443 44.9707 652.443 45.7547C652.443 46.5467 652.635 47.1587 653.019 47.5907C653.403 48.0227 653.907 48.2387 654.531 48.2387C655.011 48.2387 655.411 48.1267 655.731 47.9027C656.051 47.6787 656.271 47.3587 656.391 46.9427H657.567C657.391 47.6147 657.039 48.1547 656.511 48.5627C655.983 48.9627 655.323 49.1627 654.531 49.1627C653.907 49.1627 653.351 49.0227 652.863 48.7427C652.383 48.4627 652.007 48.0667 651.735 47.5547C651.463 47.0427 651.327 46.4427 651.327 45.7547ZM662.288 42.3587C662.784 42.3587 663.232 42.4667 663.632 42.6827C664.032 42.8907 664.344 43.2067 664.568 43.6307C664.8 44.0547 664.916 44.5707 664.916 45.1787V49.0547H663.836V45.3347C663.836 44.6787 663.672 44.1787 663.344 43.8347C663.016 43.4827 662.568 43.3067 662 43.3067C661.424 43.3067 660.964 43.4867 660.62 43.8467C660.284 44.2067 660.116 44.7307 660.116 45.4187V49.0547H659.024V40.1747H660.116V43.4147C660.332 43.0787 660.628 42.8187 661.004 42.6347C661.388 42.4507 661.816 42.3587 662.288 42.3587ZM667.264 41.4107C667.056 41.4107 666.88 41.3387 666.736 41.1947C666.592 41.0507 666.52 40.8747 666.52 40.6667C666.52 40.4587 666.592 40.2827 666.736 40.1387C666.88 39.9947 667.056 39.9227 667.264 39.9227C667.464 39.9227 667.632 39.9947 667.768 40.1387C667.912 40.2827 667.984 40.4587 667.984 40.6667C667.984 40.8747 667.912 41.0507 667.768 41.1947C667.632 41.3387 667.464 41.4107 667.264 41.4107ZM667.792 42.4787V49.0547H666.7V42.4787H667.792ZM672.857 42.3587C673.657 42.3587 674.305 42.6027 674.801 43.0907C675.297 43.5707 675.545 44.2667 675.545 45.1787V49.0547H674.465V45.3347C674.465 44.6787 674.301 44.1787 673.973 43.8347C673.645 43.4827 673.197 43.3067 672.629 43.3067C672.053 43.3067 671.593 43.4867 671.249 43.8467C670.913 44.2067 670.745 44.7307 670.745 45.4187V49.0547H669.653V42.4787H670.745V43.4147C670.961 43.0787 671.253 42.8187 671.621 42.6347C671.997 42.4507 672.409 42.3587 672.857 42.3587ZM683.329 45.5147C683.329 45.7227 683.317 45.9427 683.293 46.1747H678.037C678.077 46.8227 678.297 47.3307 678.697 47.6987C679.105 48.0587 679.597 48.2387 680.173 48.2387C680.645 48.2387 681.037 48.1307 681.349 47.9147C681.669 47.6907 681.893 47.3947 682.021 47.0267H683.197C683.021 47.6587 682.669 48.1747 682.141 48.5747C681.613 48.9667 680.957 49.1627 680.173 49.1627C679.549 49.1627 678.989 49.0227 678.493 48.7427C678.005 48.4627 677.621 48.0667 677.341 47.5547C677.061 47.0347 676.921 46.4347 676.921 45.7547C676.921 45.0747 677.057 44.4787 677.329 43.9667C677.601 43.4547 677.981 43.0627 678.469 42.7907C678.965 42.5107 679.533 42.3707 680.173 42.3707C680.797 42.3707 681.349 42.5067 681.829 42.7787C682.309 43.0507 682.677 43.4267 682.933 43.9067C683.197 44.3787 683.329 44.9147 683.329 45.5147ZM682.201 45.2867C682.201 44.8707 682.109 44.5147 681.925 44.2187C681.741 43.9147 681.489 43.6867 681.169 43.5347C680.857 43.3747 680.509 43.2947 680.125 43.2947C679.573 43.2947 679.101 43.4707 678.709 43.8227C678.325 44.1747 678.105 44.6627 678.049 45.2867H682.201ZM694.414 40.6907V49.0547H693.322V45.2627H689.062V49.0547H687.97V40.6907H689.062V44.3627H693.322V40.6907H694.414ZM702.278 45.5147C702.278 45.7227 702.266 45.9427 702.242 46.1747H696.986C697.026 46.8227 697.246 47.3307 697.646 47.6987C698.054 48.0587 698.546 48.2387 699.122 48.2387C699.594 48.2387 699.986 48.1307 700.298 47.9147C700.618 47.6907 700.842 47.3947 700.97 47.0267H702.146C701.97 47.6587 701.618 48.1747 701.09 48.5747C700.562 48.9667 699.906 49.1627 699.122 49.1627C698.498 49.1627 697.938 49.0227 697.442 48.7427C696.954 48.4627 696.57 48.0667 696.29 47.5547C696.01 47.0347 695.87 46.4347 695.87 45.7547C695.87 45.0747 696.006 44.4787 696.278 43.9667C696.55 43.4547 696.93 43.0627 697.418 42.7907C697.914 42.5107 698.482 42.3707 699.122 42.3707C699.746 42.3707 700.298 42.5067 700.778 42.7787C701.258 43.0507 701.626 43.4267 701.882 43.9067C702.146 44.3787 702.278 44.9147 702.278 45.5147ZM701.15 45.2867C701.15 44.8707 701.058 44.5147 700.874 44.2187C700.69 43.9147 700.438 43.6867 700.118 43.5347C699.806 43.3747 699.458 43.2947 699.074 43.2947C698.522 43.2947 698.05 43.4707 697.658 43.8227C697.274 44.1747 697.054 44.6627 696.998 45.2867H701.15ZM703.312 45.7427C703.312 45.0707 703.448 44.4827 703.72 43.9787C703.992 43.4667 704.364 43.0707 704.836 42.7907C705.316 42.5107 705.848 42.3707 706.432 42.3707C707.008 42.3707 707.508 42.4947 707.932 42.7427C708.356 42.9907 708.672 43.3027 708.88 43.6787V42.4787H709.984V49.0547H708.88V47.8307C708.664 48.2147 708.34 48.5347 707.908 48.7907C707.484 49.0387 706.988 49.1627 706.42 49.1627C705.836 49.1627 705.308 49.0187 704.836 48.7307C704.364 48.4427 703.992 48.0387 703.72 47.5187C703.448 46.9987 703.312 46.4067 703.312 45.7427ZM708.88 45.7547C708.88 45.2587 708.78 44.8267 708.58 44.4587C708.38 44.0907 708.108 43.8107 707.764 43.6187C707.428 43.4187 707.056 43.3187 706.648 43.3187C706.24 43.3187 705.868 43.4147 705.532 43.6067C705.196 43.7987 704.928 44.0787 704.728 44.4467C704.528 44.8147 704.428 45.2467 704.428 45.7427C704.428 46.2467 704.528 46.6867 704.728 47.0627C704.928 47.4307 705.196 47.7147 705.532 47.9147C705.868 48.1067 706.24 48.2027 706.648 48.2027C707.056 48.2027 707.428 48.1067 707.764 47.9147C708.108 47.7147 708.38 47.4307 708.58 47.0627C708.78 46.6867 708.88 46.2507 708.88 45.7547ZM712.921 40.1747V49.0547H711.829V40.1747H712.921ZM716.114 43.3787V47.2547C716.114 47.5747 716.182 47.8027 716.318 47.9387C716.454 48.0667 716.69 48.1307 717.026 48.1307H717.83V49.0547H716.846C716.238 49.0547 715.782 48.9147 715.478 48.6347C715.174 48.3547 715.022 47.8947 715.022 47.2547V43.3787H714.17V42.4787H715.022V40.8227H716.114V42.4787H717.83V43.3787H716.114ZM722.417 42.3587C722.913 42.3587 723.361 42.4667 723.761 42.6827C724.161 42.8907 724.473 43.2067 724.697 43.6307C724.929 44.0547 725.045 44.5707 725.045 45.1787V49.0547H723.965V45.3347C723.965 44.6787 723.801 44.1787 723.473 43.8347C723.145 43.4827 722.697 43.3067 722.129 43.3067C721.553 43.3067 721.093 43.4867 720.749 43.8467C720.413 44.2067 720.245 44.7307 720.245 45.4187V49.0547H719.153V40.1747H720.245V43.4147C720.461 43.0787 720.757 42.8187 721.133 42.6347C721.517 42.4507 721.945 42.3587 722.417 42.3587Z" fill="white"/>
<path d="M627.604 78.3327L623.88 87.0547H621.892L625.644 78.5567H620.856V76.8767H627.604V78.3327ZM628.778 81.8187C628.778 80.204 629.067 78.9394 629.646 78.0247C630.234 77.11 631.205 76.6527 632.558 76.6527C633.911 76.6527 634.877 77.11 635.456 78.0247C636.044 78.9394 636.338 80.204 636.338 81.8187C636.338 83.4427 636.044 84.7167 635.456 85.6407C634.877 86.5647 633.911 87.0267 632.558 87.0267C631.205 87.0267 630.234 86.5647 629.646 85.6407C629.067 84.7167 628.778 83.4427 628.778 81.8187ZM634.406 81.8187C634.406 81.128 634.359 80.5494 634.266 80.0827C634.182 79.6067 634.005 79.2194 633.734 78.9207C633.473 78.622 633.081 78.4727 632.558 78.4727C632.035 78.4727 631.639 78.622 631.368 78.9207C631.107 79.2194 630.929 79.6067 630.836 80.0827C630.752 80.5494 630.71 81.128 630.71 81.8187C630.71 82.528 630.752 83.1254 630.836 83.6107C630.92 84.0867 631.097 84.474 631.368 84.7727C631.639 85.062 632.035 85.2067 632.558 85.2067C633.081 85.2067 633.477 85.062 633.748 84.7727C634.019 84.474 634.196 84.0867 634.28 83.6107C634.364 83.1254 634.406 82.528 634.406 81.8187ZM637.605 79.3547C637.605 78.6454 637.81 78.09 638.221 77.6887C638.641 77.2874 639.177 77.0867 639.831 77.0867C640.484 77.0867 641.016 77.2874 641.427 77.6887C641.847 78.09 642.057 78.6454 642.057 79.3547C642.057 80.0734 641.847 80.6334 641.427 81.0347C641.016 81.436 640.484 81.6367 639.831 81.6367C639.177 81.6367 638.641 81.436 638.221 81.0347C637.81 80.6334 637.605 80.0734 637.605 79.3547ZM646.593 77.2547L641.091 87.0547H639.187L644.675 77.2547H646.593ZM639.817 78.2627C639.303 78.2627 639.047 78.6267 639.047 79.3547C639.047 80.092 639.303 80.4607 639.817 80.4607C640.069 80.4607 640.265 80.372 640.405 80.1947C640.545 80.008 640.615 79.728 640.615 79.3547C640.615 78.6267 640.349 78.2627 639.817 78.2627ZM643.751 84.9407C643.751 84.222 643.956 83.6667 644.367 83.2747C644.787 82.8734 645.323 82.6727 645.977 82.6727C646.63 82.6727 647.157 82.8734 647.559 83.2747C647.969 83.6667 648.175 84.222 648.175 84.9407C648.175 85.6594 647.969 86.2194 647.559 86.6207C647.157 87.022 646.63 87.2227 645.977 87.2227C645.314 87.2227 644.777 87.022 644.367 86.6207C643.956 86.2194 643.751 85.6594 643.751 84.9407ZM645.963 83.8487C645.431 83.8487 645.165 84.2127 645.165 84.9407C645.165 85.678 645.431 86.0467 645.963 86.0467C646.485 86.0467 646.747 85.678 646.747 84.9407C646.747 84.2127 646.485 83.8487 645.963 83.8487Z" fill="#5FF373"/>
<path d="M668.098 178.615L667.566 181.135H669.498V182.255H667.328L666.726 185.055H665.508L666.11 182.255H663.17L662.568 185.055H661.35L661.952 182.255H659.754V181.135H662.19L662.722 178.615H660.552V177.495H662.96L663.562 174.695H664.78L664.178 177.495H667.118L667.72 174.695H668.938L668.336 177.495H670.282V178.615H668.098ZM666.88 178.615H663.94L663.408 181.135H666.348L666.88 178.615ZM677.56 177.341C677.354 176.305 676.715 175.787 675.642 175.787C674.811 175.787 674.19 176.109 673.78 176.753C673.369 177.387 673.168 178.437 673.178 179.903C673.392 179.417 673.747 179.039 674.242 178.769C674.746 178.489 675.306 178.349 675.922 178.349C676.883 178.349 677.648 178.647 678.218 179.245C678.796 179.842 679.086 180.668 679.086 181.723C679.086 182.357 678.96 182.927 678.708 183.431C678.465 183.935 678.092 184.336 677.588 184.635C677.093 184.933 676.491 185.083 675.782 185.083C674.82 185.083 674.069 184.868 673.528 184.439C672.986 184.009 672.608 183.417 672.394 182.661C672.179 181.905 672.072 180.971 672.072 179.861C672.072 176.435 673.266 174.723 675.656 174.723C676.57 174.723 677.289 174.97 677.812 175.465C678.334 175.959 678.642 176.585 678.736 177.341H677.56ZM675.656 179.427C675.254 179.427 674.876 179.511 674.522 179.679C674.167 179.837 673.878 180.085 673.654 180.421C673.439 180.747 673.332 181.149 673.332 181.625C673.332 182.334 673.537 182.913 673.948 183.361C674.358 183.799 674.946 184.019 675.712 184.019C676.365 184.019 676.883 183.818 677.266 183.417C677.658 183.006 677.854 182.455 677.854 181.765C677.854 181.037 677.667 180.467 677.294 180.057C676.92 179.637 676.374 179.427 675.656 179.427ZM680.65 184.033C681.836 183.081 682.764 182.301 683.436 181.695C684.108 181.079 684.673 180.439 685.13 179.777C685.597 179.105 685.83 178.447 685.83 177.803C685.83 177.196 685.681 176.72 685.382 176.375C685.093 176.02 684.622 175.843 683.968 175.843C683.334 175.843 682.839 176.043 682.484 176.445C682.139 176.837 681.952 177.364 681.924 178.027H680.692C680.73 176.981 681.047 176.174 681.644 175.605C682.242 175.035 683.012 174.751 683.954 174.751C684.916 174.751 685.676 175.017 686.236 175.549C686.806 176.081 687.09 176.813 687.09 177.747C687.09 178.521 686.857 179.277 686.39 180.015C685.933 180.743 685.41 181.387 684.822 181.947C684.234 182.497 683.483 183.141 682.568 183.879H687.384V184.943H680.65V184.033ZM694.499 177.341C694.294 176.305 693.654 175.787 692.581 175.787C691.75 175.787 691.13 176.109 690.719 176.753C690.308 177.387 690.108 178.437 690.117 179.903C690.332 179.417 690.686 179.039 691.181 178.769C691.685 178.489 692.245 178.349 692.861 178.349C693.822 178.349 694.588 178.647 695.157 179.245C695.736 179.842 696.025 180.668 696.025 181.723C696.025 182.357 695.899 182.927 695.647 183.431C695.404 183.935 695.031 184.336 694.527 184.635C694.032 184.933 693.43 185.083 692.721 185.083C691.76 185.083 691.008 184.868 690.467 184.439C689.926 184.009 689.548 183.417 689.333 182.661C689.118 181.905 689.011 180.971 689.011 179.861C689.011 176.435 690.206 174.723 692.595 174.723C693.51 174.723 694.228 174.97 694.751 175.465C695.274 175.959 695.582 176.585 695.675 177.341H694.499ZM692.595 179.427C692.194 179.427 691.816 179.511 691.461 179.679C691.106 179.837 690.817 180.085 690.593 180.421C690.378 180.747 690.271 181.149 690.271 181.625C690.271 182.334 690.476 182.913 690.887 183.361C691.298 183.799 691.886 184.019 692.651 184.019C693.304 184.019 693.822 183.818 694.205 183.417C694.597 183.006 694.793 182.455 694.793 181.765C694.793 181.037 694.606 180.467 694.233 180.057C693.86 179.637 693.314 179.427 692.595 179.427ZM697.408 176.095V174.933H700.04V185.055H698.752V176.095H697.408ZM701.92 182.801V181.835L706.834 175.031H708.36V181.695H709.76V182.801H708.36V185.055H707.1V182.801H701.92ZM707.156 176.361L703.39 181.695H707.156V176.361ZM710.697 176.095V174.933H713.329V185.055H712.041V176.095H710.697ZM721.971 176.039H717.057V179.231C717.272 178.932 717.589 178.689 718.009 178.503C718.429 178.307 718.882 178.209 719.367 178.209C720.142 178.209 720.772 178.372 721.257 178.699C721.743 179.016 722.088 179.431 722.293 179.945C722.508 180.449 722.615 180.985 722.615 181.555C722.615 182.227 722.489 182.829 722.237 183.361C721.985 183.893 721.598 184.313 721.075 184.621C720.562 184.929 719.923 185.083 719.157 185.083C718.177 185.083 717.384 184.831 716.777 184.327C716.171 183.823 715.802 183.151 715.671 182.311H716.917C717.039 182.843 717.295 183.258 717.687 183.557C718.079 183.855 718.574 184.005 719.171 184.005C719.909 184.005 720.464 183.785 720.837 183.347C721.211 182.899 721.397 182.311 721.397 181.583C721.397 180.855 721.211 180.295 720.837 179.903C720.464 179.501 719.913 179.301 719.185 179.301C718.691 179.301 718.257 179.422 717.883 179.665C717.519 179.898 717.253 180.22 717.085 180.631H715.881V174.919H721.971V176.039Z" fill="white"/>
<path d="M447.912 174.388H445.579V173.805C445.579 173.341 445.395 172.895 445.066 172.567C444.738 172.239 444.293 172.055 443.829 172.055C443.365 172.055 442.92 172.239 442.592 172.567C442.263 172.895 442.079 173.341 442.079 173.805V174.388H439.746C438.973 174.388 438.231 174.696 437.684 175.243C437.137 175.79 436.83 176.531 436.829 177.305V183.138C436.83 183.911 437.137 184.653 437.684 185.199C438.231 185.746 438.973 186.054 439.746 186.055H447.913C448.686 186.054 449.427 185.746 449.974 185.199C450.521 184.652 450.828 183.911 450.829 183.138V177.305C450.828 176.531 450.521 175.79 449.974 175.243C449.427 174.696 448.685 174.388 447.912 174.388ZM443.246 173.805C443.246 173.65 443.307 173.502 443.417 173.392C443.526 173.283 443.675 173.221 443.829 173.221C443.984 173.221 444.133 173.283 444.242 173.392C444.352 173.502 444.413 173.65 444.413 173.805V174.972C444.413 175.126 444.352 175.275 444.242 175.384C444.133 175.494 443.984 175.555 443.829 175.555C443.675 175.555 443.526 175.494 443.417 175.384C443.307 175.275 443.246 175.126 443.246 174.972V173.805ZM449.663 183.138C449.663 183.602 449.479 184.047 449.15 184.375C448.822 184.703 448.377 184.888 447.913 184.888H439.746C439.282 184.888 438.837 184.703 438.509 184.375C438.18 184.047 437.996 183.602 437.996 183.138V177.305C437.996 176.841 438.18 176.395 438.509 176.067C438.837 175.739 439.282 175.555 439.746 175.555H442.186C442.305 175.895 442.527 176.191 442.821 176.399C443.116 176.608 443.468 176.72 443.828 176.72C444.189 176.72 444.541 176.608 444.836 176.399C445.13 176.191 445.352 175.895 445.471 175.555H447.912C448.376 175.555 448.821 175.739 449.149 176.067C449.478 176.395 449.662 176.841 449.662 177.305L449.663 183.138ZM442.663 177.888H439.746C439.669 177.888 439.594 177.903 439.523 177.932C439.452 177.961 439.388 178.004 439.334 178.058C439.28 178.113 439.237 178.177 439.207 178.248C439.178 178.318 439.163 178.394 439.163 178.471V183.138C439.163 183.214 439.178 183.29 439.207 183.361C439.237 183.432 439.28 183.496 439.334 183.55C439.388 183.604 439.452 183.647 439.523 183.676C439.594 183.706 439.669 183.721 439.746 183.721H442.662C442.817 183.721 442.965 183.659 443.074 183.55C443.184 183.441 443.245 183.292 443.245 183.138V178.472C443.245 178.395 443.23 178.319 443.201 178.248C443.172 178.177 443.129 178.113 443.075 178.059C443.02 178.005 442.956 177.962 442.885 177.932C442.815 177.903 442.74 177.888 442.663 177.888ZM442.079 182.555H440.329V179.055H442.079V182.555ZM448.496 180.805C448.496 180.881 448.481 180.957 448.452 181.028C448.422 181.099 448.379 181.163 448.325 181.217C448.271 181.271 448.207 181.314 448.136 181.343C448.065 181.373 447.99 181.388 447.913 181.388H444.996C444.841 181.388 444.693 181.326 444.583 181.217C444.474 181.107 444.412 180.959 444.412 180.804C444.412 180.649 444.474 180.501 444.583 180.392C444.693 180.282 444.841 180.221 444.996 180.221H447.913C447.99 180.221 448.066 180.236 448.136 180.265C448.207 180.295 448.271 180.338 448.326 180.392C448.38 180.446 448.423 180.51 448.452 180.581C448.481 180.652 448.496 180.728 448.496 180.805ZM448.496 178.472C448.496 178.548 448.481 178.624 448.452 178.695C448.422 178.766 448.379 178.83 448.325 178.884C448.271 178.938 448.206 178.981 448.135 179.011C448.065 179.04 447.989 179.055 447.912 179.055H444.996C444.841 179.055 444.693 178.993 444.583 178.884C444.474 178.774 444.412 178.626 444.412 178.471C444.412 178.316 444.474 178.168 444.583 178.059C444.693 177.949 444.841 177.888 444.996 177.888H447.913C447.99 177.888 448.066 177.903 448.136 177.932C448.207 177.962 448.271 178.005 448.326 178.059C448.38 178.113 448.423 178.177 448.452 178.248C448.481 178.319 448.496 178.395 448.496 178.472ZM447.329 183.138C447.329 183.292 447.268 183.441 447.158 183.55C447.049 183.659 446.901 183.721 446.746 183.721H444.996C444.841 183.721 444.693 183.659 444.583 183.55C444.474 183.44 444.412 183.292 444.412 183.137C444.412 182.982 444.474 182.834 444.583 182.725C444.693 182.615 444.841 182.554 444.996 182.554H446.746C446.823 182.554 446.899 182.569 446.969 182.598C447.04 182.628 447.104 182.671 447.159 182.725C447.213 182.779 447.256 182.843 447.285 182.914C447.314 182.985 447.329 183.061 447.329 183.138Z" fill="white"/>
<path d="M449.078 134.471H447.229L444.84 132.746C444.709 132.65 444.565 132.574 444.412 132.519V132.055C444.882 131.915 445.285 131.61 445.549 131.197C445.813 130.783 445.919 130.289 445.848 129.804C445.777 129.319 445.534 128.876 445.163 128.555C444.793 128.234 444.319 128.058 443.829 128.058C443.338 128.058 442.865 128.234 442.494 128.555C442.123 128.876 441.88 129.319 441.809 129.804C441.738 130.289 441.844 130.783 442.108 131.197C442.372 131.61 442.775 131.915 443.245 132.055V132.511C443.079 132.568 442.923 132.65 442.782 132.754L440.429 134.471H438.579C438.115 134.471 437.67 134.656 437.342 134.984C437.014 135.312 436.83 135.757 436.829 136.221V136.804C436.829 136.958 436.891 137.107 437 137.216C437.109 137.326 437.258 137.387 437.413 137.387C437.567 137.387 437.716 137.326 437.825 137.216C437.935 137.107 437.996 136.958 437.996 136.804V136.221C437.996 136.066 438.058 135.918 438.167 135.809C438.276 135.699 438.425 135.638 438.579 135.638H440.429L442.782 137.355C443.08 137.573 443.44 137.691 443.81 137.692C444.18 137.693 444.541 137.577 444.84 137.36L447.229 135.638H449.079C449.234 135.638 449.382 135.699 449.491 135.809C449.6 135.918 449.662 136.066 449.662 136.221V136.804C449.662 136.958 449.724 137.107 449.833 137.216C449.942 137.326 450.091 137.387 450.246 137.387C450.4 137.387 450.549 137.326 450.658 137.216C450.768 137.107 450.829 136.958 450.829 136.804V136.221C450.829 135.757 450.644 135.312 450.316 134.984C449.988 134.656 449.543 134.471 449.079 134.471H449.078ZM442.953 130.096C442.953 129.923 443.004 129.754 443.1 129.61C443.197 129.466 443.333 129.354 443.493 129.287C443.653 129.221 443.829 129.204 443.998 129.237C444.168 129.271 444.324 129.354 444.446 129.477C444.569 129.599 444.652 129.755 444.686 129.924C444.72 130.094 444.703 130.27 444.637 130.43C444.571 130.59 444.459 130.726 444.315 130.823C444.171 130.919 444.002 130.97 443.829 130.971C443.597 130.971 443.374 130.879 443.21 130.714C443.046 130.55 442.953 130.328 442.953 130.096ZM444.153 136.417C444.053 136.49 443.933 136.529 443.81 136.529C443.686 136.529 443.566 136.49 443.466 136.417L441.608 135.055L443.469 133.693C443.569 133.62 443.689 133.58 443.813 133.58C443.936 133.58 444.056 133.62 444.156 133.693L446.04 135.055L444.155 136.417H444.153ZM450.653 138.966L449.607 140.012L450.657 141.055C450.766 141.164 450.828 141.312 450.828 141.467C450.828 141.622 450.766 141.77 450.657 141.88C450.548 141.989 450.399 142.051 450.245 142.051C450.09 142.051 449.941 141.989 449.832 141.88L448.786 140.834L447.74 141.88C447.631 141.989 447.482 142.05 447.328 142.05C447.173 142.05 447.025 141.989 446.916 141.879C446.806 141.77 446.745 141.621 446.745 141.467C446.745 141.312 446.807 141.164 446.916 141.055L447.962 140.009L446.916 138.963C446.807 138.853 446.745 138.705 446.745 138.55C446.745 138.395 446.807 138.247 446.916 138.138C447.025 138.028 447.174 137.967 447.329 137.967C447.483 137.967 447.632 138.028 447.741 138.138L448.787 139.184L449.829 138.142C449.938 138.032 450.087 137.971 450.242 137.971C450.396 137.971 450.545 138.032 450.654 138.142C450.763 138.251 450.825 138.399 450.825 138.554C450.825 138.709 450.763 138.857 450.654 138.967L450.653 138.966ZM441.61 138.43C441.665 138.483 441.708 138.548 441.738 138.618C441.768 138.689 441.783 138.765 441.784 138.841C441.784 138.918 441.769 138.994 441.74 139.065C441.712 139.136 441.669 139.2 441.615 139.255L439.857 141.041C439.722 141.177 439.561 141.284 439.384 141.358C439.206 141.431 439.016 141.469 438.825 141.469C438.633 141.469 438.443 141.431 438.266 141.358C438.088 141.284 437.928 141.177 437.792 141.041L437 140.255C436.946 140.2 436.903 140.136 436.873 140.065C436.844 139.993 436.829 139.917 436.829 139.84C436.829 139.763 436.844 139.687 436.873 139.616C436.903 139.545 436.946 139.481 437.001 139.426C437.055 139.372 437.12 139.329 437.191 139.299C437.262 139.27 437.338 139.255 437.415 139.255C437.492 139.255 437.568 139.27 437.639 139.3C437.71 139.329 437.775 139.372 437.829 139.427L438.621 140.219C438.648 140.246 438.68 140.267 438.716 140.282C438.751 140.297 438.789 140.304 438.827 140.304C438.904 140.304 438.978 140.273 439.033 140.219L440.789 138.436C440.898 138.326 441.046 138.263 441.2 138.262C441.355 138.261 441.504 138.321 441.614 138.43H441.61Z" fill="white"/>
<path d="M396.366 109.555V280.555" stroke="#8B8B8B"/>
<path d="M726.366 56.0547H396.366V66.0547H726.366V56.0547Z" fill="#081020"/>
<path d="M634.366 56.0547H396.366V66.0547H634.366V56.0547Z" fill="#5FF373"/>
<defs>
<filter id="filter0_d_63_547" x="0.683014" y="0.0273438" width="782" height="326" filterUnits="userSpaceOnUse" color-interpolation-filters="sRGB">
<feFlood flood-opacity="0" result="BackgroundImageFix"/>
<feColorMatrix in="SourceAlpha" type="matrix" values="0 0 0 0 0 0 0 0 0 0 0 0 0 0 0 0 0 0 127 0" result="hardAlpha"/>
<feOffset dy="6"/>
<feGaussianBlur stdDeviation="10"/>
<feColorMatrix type="matrix" values="0 0 0 0 1 0 0 0 0 1 0 0 0 0 1 0 0 0 0.11 0"/>
<feBlend mode="normal" in2="BackgroundImageFix" result="effect1_dropShadow_63_547"/>
<feBlend mode="normal" in="SourceGraphic" in2="effect1_dropShadow_63_547" result="shape"/>
</filter>
</defs>
</svg>
