<svg height="512" viewBox="0 0 64 64" width="512" xmlns="http://www.w3.org/2000/svg"><g id="Icons"><g><g><g><path d="m58 56h-52c-1.105 0-2-.895-2-2v-32h56v32c0 1.105-.895 2-2 2z" fill="#f0f0f0"/></g><g><path d="m7 22v22l2 4 1.106 2.211c.369.737 1.42.737 1.789 0l1.105-2.211 2-4v-22z" fill="#d2d2d2"/></g><g><path d="m60 22h-56v-4c0-1.105.895-2 2-2h52c1.105 0 2 .895 2 2z" fill="#c80a50"/></g></g><g><path d="m13 48h26c.552 0 1-.448 1-1 0-.552-.448-1-1-1h-26c-.552 0-1 .448-1 1 0 .552.448 1 1 1z" fill="#d2d2d2"/></g><g><path d="m49 26h4c.552 0 1-.448 1-1 0-.552-.448-1-1-1h-4c-.552 0-1 .448-1 1 0 .552.448 1 1 1z" fill="#d2d2d2"/></g><g><path d="m41 26h4c.552 0 1-.448 1-1 0-.552-.448-1-1-1h-4c-.552 0-1 .448-1 1 0 .552.448 1 1 1z" fill="#d2d2d2"/></g><g><path d="m33 26h4c.552 0 1-.448 1-1 0-.552-.448-1-1-1h-4c-.552 0-1 .448-1 1 0 .552.448 1 1 1z" fill="#d2d2d2"/></g><g><path d="m15 26h4c.552 0 1-.448 1-1 0-.552-.448-1-1-1h-4c-.552 0-1 .448-1 1 0 .552.448 1 1 1z" fill="#d2d2d2"/></g><g><path d="m13 52h26c.552 0 1-.448 1-1 0-.552-.448-1-1-1h-26c-.552 0-1 .448-1 1 0 .552.448 1 1 1z" fill="#d2d2d2"/></g><g><g><path d="m52 42h-40c-1.105 0-2-.895-2-2v-8c0-1.105.895-2 2-2h40c1.105 0 2 .895 2 2v8c0 1.105-.895 2-2 2z" fill="#fab400"/></g></g><g><circle cx="56" cy="19" fill="#fab400" r="1"/></g><g><circle cx="52" cy="19" fill="#00a0c8" r="1"/></g><g><circle cx="48" cy="19" fill="#00143c" r="1"/></g><g><g><path d="m8 12h8v32h-8z" fill="#00a0c8"/></g><g><path d="m16 44h-8l2 4h4z" fill="#f0c8a0"/></g><g><path d="m10 48 1.106 2.211c.369.737 1.42.737 1.789 0l1.105-2.211z" fill="#0a5078"/></g><g><path d="m8 10h8v2h-8z" fill="#f0f0f0"/></g><g><path d="m14 4h-4c-1.105 0-2 .895-2 2v4h8v-4c0-1.105-.895-2-2-2z" fill="#0a5078"/></g></g><g><path d="m7 16h1v6h-1z" fill="#a00028"/></g><g><path d="m52 52h-6c-1.105 0-2-.895-2-2v-2c0-1.105.895-2 2-2h6c1.105 0 2 .895 2 2v2c0 1.105-.895 2-2 2z" fill="#00a0c8"/></g></g></g></svg>