<svg xmlns="http://www.w3.org/2000/svg" width="57.915" height="57.817" viewBox="0 0 57.915 57.817">
  <g id="Group_5787" data-name="Group 5787" transform="translate(12896.638 -863.675)">
    <path id="Path_14375" data-name="Path 14375" d="M2234.684,439.419a4.48,4.48,0,0,0-1.158.521,9.509,9.509,0,0,0-.26,2.766v2.476l-1.158.594a6.268,6.268,0,0,1-1.607.565,6.508,6.508,0,0,1-2.1-1.68c-1.375-1.448-1.752-1.709-2.273-1.578-.927.232-2.824,1.709-2.824,2.23a12.207,12.207,0,0,0,.912,2.331,12.929,12.929,0,0,1,.912,2.2,5.035,5.035,0,0,1-1.158,1.448l-1.158,1.144-1.347-.594c-3.446-1.477-3.461-1.506-4.054-.782a13.627,13.627,0,0,0-1.115,1.738l-.594,1.086,1.868,1.709a9.52,9.52,0,0,1,1.882,2.013,9.372,9.372,0,0,1-.55,1.68l-.565,1.318h-5.343l-.261.956a9.919,9.919,0,0,0-.29,2.172v1.158l2.114.724a14.366,14.366,0,0,1,2.462,1.014c.434.333.434,3.186.029,3.461-.174.1-1.274.565-2.4,1.014l-2.071.782.058,1.419a8.543,8.543,0,0,0,.333,2.143l.29.753,2.375-.159a11.764,11.764,0,0,1,2.795.072,4.543,4.543,0,0,1,.912,1.709l.492,1.477-1.738,1.578a6.436,6.436,0,0,0-1.752,2.071,8.119,8.119,0,0,0,1.883,2.954c.3.261.825.13,2.766-.753l2.36-1.086,1.216,1.187,1.188,1.187-.594,1.376c-.3.753-.782,1.868-1.014,2.476l-.434,1.115.782.623a8.883,8.883,0,0,0,1.781,1.057l.985.463,1.738-1.868a17.347,17.347,0,0,1,1.911-1.868,14.22,14.22,0,0,1,1.578.623l1.419.652.072,2.664.072,2.664,1.738.362a7.27,7.27,0,0,0,2.1.2,4.361,4.361,0,0,0,.956-1.911c.912-2.766,1.057-2.925,2.823-2.925a2.975,2.975,0,0,1,1.781.333,14.309,14.309,0,0,1,1.028,2.244l.724,1.94,1.55-.029a6.228,6.228,0,0,0,2.143-.333c.594-.333.623-.42.464-2.722a11.2,11.2,0,0,1,.029-2.635,9.585,9.585,0,0,1,2.925-1.39,12.816,12.816,0,0,1,2,1.839l1.752,1.839.912-.434c1.144-.594,2.563-1.68,2.563-1.969,0-.1-.492-1.187-1.057-2.4l-1.086-2.23.985-1.086a9.7,9.7,0,0,1,1.318-1.289,5.266,5.266,0,0,1,2.331.724,8.034,8.034,0,0,0,2.534.825c.55-.058,2.2-2.331,2.2-3.026a9.193,9.193,0,0,0-1.868-2.1l-1.868-1.709.652-1.52.652-1.52,2.693-.13,2.722-.13.3-1.158a10.246,10.246,0,0,0,.3-2c.029-.883.2-.753-3.461-2.1l-1.289-.463-.087-1.68c-.058-1.158.029-1.781.261-1.969a16.162,16.162,0,0,1,2.375-.985l2.042-.753-.159-1.636c-.26-2.534-.232-2.534-3.316-2.534h-2.635l-.652-1.506-.651-1.506,1.868-1.882,1.882-1.882-.42-.782c-.565-1.144-1.709-2.4-2.114-2.4a13.947,13.947,0,0,0-2.331.912,14.184,14.184,0,0,1-2.273.912,4.216,4.216,0,0,1-1.419-1.158c-1.187-1.289-1.187-1.028.2-4.083.753-1.709.782-1.752.3-2.23-.8-.8-2.766-1.868-3.156-1.68a10.194,10.194,0,0,0-1.651,1.651,6.943,6.943,0,0,1-1.839,1.68,3.126,3.126,0,0,1-1.81-.434l-1.274-.594-.072-2.635-.073-2.635-1.028-.29a6.815,6.815,0,0,0-2.1-.2l-1.028.072-.753,2.042a18.8,18.8,0,0,1-1.028,2.375c-.42.521-2.925.492-3.359-.058a16.94,16.94,0,0,1-1.115-2.375c-.782-1.94-.825-2-1.709-2.042a7.591,7.591,0,0,0-1.8.2m.782,7.225a5.814,5.814,0,0,0,2.534-.029c2.23-.3,3.692-.2,2.2.159-.985.232-1.115.565-.261.7.564.072,1.014,1.245.463,1.245-.159,0-.289-.232-.289-.55,0-.29-.1-.434-.261-.362a1.089,1.089,0,0,0-.261.8c0,.333-.1.623-.261.623-.13,0-.26-.174-.26-.42,0-.2-.13-.3-.261-.232-.333.2-1.028-.333-1.028-.8,0-.2.232-.362.521-.362s.521-.1.521-.232c0-.2-1.738-.1-2.013.1a6.631,6.631,0,0,0,.333,1.158c.391,1.115.333,1.607-.1,1.144a3.37,3.37,0,0,1-.463-1.115c-.333-1.347-.912-1.376-.7-.058.174,1.086-.073,1.376-.652.7-.232-.29-.232-.391,0-.463.652-.2.058-.927-.652-.8a2.541,2.541,0,0,0-.666.2,9.728,9.728,0,0,0,.42,1.028c.565,1.39.29,1.752-.391.434-.3-.594-.666-1.086-.8-1.086-.464,0-.521.463-.131,1.39.434,1.057.464,1.187.159,1.187-.13,0-.42-.463-.652-1.028-.434-1.086-.652-1.216-1.115-.753-.232.232-.159.55.3,1.216l.623.927-.753.362c-1.39.666-3.026-.29-1.911-1.115.29-.2.391-.362.232-.391a2.764,2.764,0,0,0-.985.594l-.724.565.652.883c.883,1.158.565,1.448-.333.333-.492-.565-.854-.8-1.144-.666-.594.232-.551.42.333,1.274s1.028,1.318.29.912c-.724-.362-.927-.333-.55.13a.829.829,0,0,1,.159.782c-.159.42-1.318.55-1.55.159-.072-.1.159-.159.492-.072.463.072.652,0,.652-.3,0-.42-.261-.521-1.158-.42-.42.058-.434,0-.159-.362.2-.232.29-.521.174-.623s-.333.029-.521.29c-.463.623-.753.565-.362-.072s.927-.666,1.144-.13.623.492.623,0c0-.232-.26-.492-.55-.623-.55-.174-.55-.2.174-.782.594-.463.666-.623.362-.8a1.674,1.674,0,0,0-.912-.261c-.492-.029-.492-.029-.029-.29a1.041,1.041,0,0,1,1.086,0c.521.232.883.1,2.722-1.014,2.2-1.347,2.2-1.289.362-1.636-.492-.1-.492-.1-.058-.3a1.706,1.706,0,0,1,1.318.2c1.014.463,1.738.174,1.521-.623a.7.7,0,0,1,.2-.782,3.172,3.172,0,0,1,2.331.058m9.542.362c.2.261.232.42.029.55a.286.286,0,0,0-.13.376c0,.014.014.029.029.043.26.434.666-.072.521-.666-.13-.521-.073-.565.434-.463,2.462.55,6.516,2.244,6.748,2.824.073.2,0,.29-.232.2s-.55.232-.912.927c-.29.565-.652.985-.782.912-.159-.1-.159-.362.029-.7.232-.42.2-.594-.058-.753-.594-.362-.753-.261-.782.463l-.029.724-.232-.782c-.289-.927-.13-1.419.42-1.419.594,0,.464-.391-.232-.724-.594-.261-.666-.232-.956.666-.391,1.245-.492,1.376-.753,1.216-.159-.072-.13-.42,0-.782.174-.463.13-.652-.2-.782-.232-.072-.463-.029-.521.1-.13.391-.564.072-.564-.391,0-.3.2-.333.912-.2,1.245.232,1.158-.261-.1-.623-1.448-.434-1.578-.391-1.578.521,0,.956-.362,1.709-.623,1.289a1.05,1.05,0,0,1,0-.666c.232-.594-.232-.521-.623.1a1.064,1.064,0,0,1-.666.521c-.391,0-.825-.956-.565-1.216.073-.1.159.029.159.261a.418.418,0,0,0,.391.434c.2,0,.391-.232.391-.521s-.1-.521-.261-.521a.28.28,0,0,1-.26-.261c0-.159.174-.261.391-.261.594,0,.463-.463-.174-.594-.565-.1-.565-.1-.058-.159a1.24,1.24,0,0,1,.84.348m8.051,1.549c0,.072-.1.2-.261.29-.13.072-.26.029-.26-.1a.3.3,0,0,1,.26-.29c.145,0,.261.043.261.1m-12.685,3.519a15.917,15.917,0,0,1-3.75,6.719c-2.9,3.229-3.446,4.909-2.476,7.631s1.057,2.592-.666,1.709c-2.606-1.318-3.953-3.026-3.953-5.068,0-2,.492-2.592,4.967-6.053a19.557,19.557,0,0,0,5.329-6.183c.594-1.158.724-1.289.8-.8a8.84,8.84,0,0,1-.246,2.042m14.364-1.028a24.913,24.913,0,0,1,3.881,3.852c.159.261.1.333-.159.232a1.974,1.974,0,0,0-1.274.594c-.927.8-1.39.8-.695.029.594-.652.55-.8-.261-1.115-.521-.174-.594-.333-.391-.55.232-.232.463-.159.927.29.912.854,1.028.261.159-.753l-.753-.883-.927.883c-1.159,1.144-1.521.782-.362-.42.724-.753.8-.927.492-1.144-.564-.362-.651-.333-1.318.652-.623.912-1.187,1.245-.927.55.072-.2-.058-.42-.362-.492a.773.773,0,0,1-.42-1.347.982.982,0,0,0,.435-.7c0-.391.231-.724.463-.724a10.3,10.3,0,0,1,1.492,1.043m-6.6-.391c.26.3.26.463,0,.782-.463.565-1.289.391-1.781-.391-.391-.652-.391-.652.13-.2.565.521,1.39.623,1.39.2,0-.159-.159-.261-.362-.261a.763.763,0,0,1-.55-.261c-.246-.42.811-.29,1.173.13m-21.59.9a.622.622,0,0,1-.42.261c-.159,0-.174-.13-.1-.261a.549.549,0,0,1,.42-.261c.145,0,.174.116.1.261m20.2,1.578a10.952,10.952,0,0,1,2.4,1.115c.2.232-.391.985-2.244,2.824-2.52,2.505-2.52,2.505-3.417,2.244a9.284,9.284,0,0,0-4.373.029c-.7.232-.912.2-1.318-.159-.492-.434-.463-.492.652-2.042a16.422,16.422,0,0,0,2.3-4.663c.159-.434.333-.463,2.013-.3a22.212,22.212,0,0,1,3.982.956m-8.905.159a21.111,21.111,0,0,1-1.709,1.882l-1.187,1.144-.956-.927-.927-.927,1.144-.594a16.618,16.618,0,0,1,4.083-1.39,2.366,2.366,0,0,1-.449.811m-14.422,3.519c-.073.2.333.594.985.956,1.376.782.883,1.014-.55.261a3.852,3.852,0,0,0-1.057-.42,2.427,2.427,0,0,1-.13.463c-.1.261.2.55.883.854.565.261.985.565.912.7a.4.4,0,0,1-.492.1c-.174-.058-.391.1-.463.362a1.381,1.381,0,0,1-.666.753c-.464.261-.551.232-.551-.2,0-.565-.42-.927-.623-.565-.1.13,0,.3.159.362s.073.159-.232.159c-.594.029-.8-.333-.362-.594a1.542,1.542,0,0,0,.391-.825c.232-.854,1.376-2.693,1.709-2.693.1,0,.159.145.087.333m37.373,1.68c.521,1.086.666,1.245,1.216,1.144.927-.174,1.318,1.014.782,2.375a2.837,2.837,0,0,0-.29,1.187,25.755,25.755,0,0,1,.391,5.922c-.2.362-.232.362-.26-.058a.418.418,0,0,0-.391-.434c-.232,0-.391-.232-.391-.652,0-.652-.594-.912-.912-.391-.073.13-.029.261.13.261.521,0,.159.854-.42.927-.55.072-.55.058-.159-.8.623-1.347,1.39-1.477,1.868-.29.174.434.231.3.231-.594l.029-1.144-1.289.13c-.695.072-1.289.029-1.289-.072a.265.265,0,0,1,.261-.232c.159,0,.26-.261.26-.594a1.1,1.1,0,0,1,1.086-1.216c.29,0,.464-.174.464-.521,0-.782-1.636-.724-2.013.058-.159.333-.29.434-.29.261-.029-.463.724-1.868.985-1.868a.406.406,0,0,1,.333.29.3.3,0,0,0,.362.217h.014c.174-.072.174-.362-.029-.927l-.29-.825-1.086.492c-.825.362-1.115.42-1.115.159,0-.174.464-.521,1.028-.753.753-.29.984-.521.883-.8-.13-.362-.29-.333-1.187.13-.565.29-1.115.434-1.187.333-.1-.1-.029-.232.159-.29.159-.072.3-.463.3-.883,0-.652.623-1.709,1.057-1.752.1-.043.434.521.753,1.2m-31.538,4.243a4.939,4.939,0,0,0,1.912,4.3,3.279,3.279,0,0,1,1.187,1.68,6.336,6.336,0,0,0,.26,1.477c.261.912.261.912-2.244,3.417-1.839,1.868-2.592,2.462-2.824,2.244a12.452,12.452,0,0,1-1.158-2.505,11.239,11.239,0,0,1-.854-5.1,13.98,13.98,0,0,1,1.578-7.2l.652-1.274.753.724c.666.623.738.912.738,2.23m26.455-1.419a12.409,12.409,0,0,1,1.347,6.661,13.458,13.458,0,0,1-.492,4.532,17.436,17.436,0,0,1-1.636,3.591,19.536,19.536,0,0,1-2.665-2.433c-2.288-2.273-2.49-2.577-2.288-3.142a13.081,13.081,0,0,0-.029-4.865c-.159-.434.232-.985,2.3-3.128,1.376-1.448,2.563-2.635,2.635-2.664a4.046,4.046,0,0,1,.825,1.448m-33.3.594c1.188.333,1.375.956.174.652-.42-.1-.724-.029-.854.174-.391.594-.261.782.55.666.927-.13,1.028.174.159.42-1.057.261-1.506-.058-1.289-.956.1-.521.072-.7-.131-.594a.734.734,0,0,0-.289.521,1.806,1.806,0,0,1-.391.825c-.362.463-.391.434-.232-.29.29-1.289.927-2.635,1.057-2.172.058.261.594.565,1.245.753m19.519.637c.3.362.29.753-.13,1.738-.131.362-.058.463.362.463.3,0,.55.1.55.261,0,.13-.652.261-1.419.261-1.578,0-1.752-.13-.753-.55.651-.232.666-.29.26-.724-.521-.565-.521-.912,0-1.419.492-.521.724-.521,1.129-.029m1.578,3.5a8.466,8.466,0,0,1,1.868.883c.854.594.912.594,1.028.13.3-1.115,2.534-1.115,2.9,0,.2.666-.174,1.39-1.607,3a10.8,10.8,0,0,0-1.578,2.172c-.521,1.115-1.347,1.39-1.347.492,0-.753.652-1.81,2.172-3.461,1.318-1.506,1.52-2.1.623-1.781a48.921,48.921,0,0,1-6.024.3l-5.4.1.463-.521c1.144-1.274,4.692-1.94,6.907-1.318m-23.038,1.752c.2.072.3.029.2-.072a.5.5,0,0,1,.073-.565c.362-.42,1.274-.434,1.274-.058,0,.174-.232.232-.55.159s-.492-.029-.42.159.435.362.854.434c.594.13.666.2.362.391a2.66,2.66,0,0,0-.666.782c-.391.7-.985.652-1.086-.072-.159-1.014-.463-.623-.362.463.1.985.13,1.014.927.883a11.049,11.049,0,0,0,1.144-.261c.2-.058.3.058.261.2a.961.961,0,0,1-.666.42c-.652.1-.782.782-.188.985.3.13.333.261.1.521-.391.492-.753.2-.753-.565,0-.362-.159-.623-.362-.623s-.333.188-.289.434c.42,2.042.333,1.969,1.318,1.752a11.266,11.266,0,0,0,1.347-.3c.391-.159.391-.13.072.261a2.516,2.516,0,0,1-1.216.594c-.521.1-.854.29-.8.463.1.3,1.057.362,1.94.058.333-.1.564-.072.564.072s-.463.42-1.028.565c-.666.2-1.028.463-1.028.753,0,.724.29.782,1.318.261,1.144-.594,1.274-.623,1.274-.261,0,.159-.29.391-.652.521-.666.261-.825.623-.391.912.159.072.26.058.26-.072s.3-.3.724-.362c.594-.072.695,0,.666.492-.029.854-.362,1.057-.782.492-.362-.492-.362-.492-.362.058,0,.8-.3.7-.883-.232-.261-.434-.521-.724-.594-.652a7.234,7.234,0,0,0,1.419,2.476,4.212,4.212,0,0,0,.956-.652c.825-.623,1.419-.623.883.029-.174.2-.174.362.029.492a.852.852,0,0,1-.174,1.347c-.26.1-.594-.058-.912-.42-.3-.42-.463-.492-.463-.2a1.074,1.074,0,0,0,.391.7,1.162,1.162,0,0,1,.391.753c0,.29-.26.13-.8-.492l-.8-.912.159.782c.1.652.029.8-.391.825-.565.058-.7-.912-.2-1.709.261-.362.159-.724-.492-1.911a15.85,15.85,0,0,1-1.115-2.505c-.2-.724-.434-1.028-.724-.985a1.249,1.249,0,0,1-.724-.13c-.391-.232-.434-1.94-.1-2.476.174-.261.232-.029.2.782-.029.623.073,1.144.2,1.144.159,0,.232-.42.2-.912-.232-4.445-.29-6.473-.13-5.85a1.436,1.436,0,0,0,.579.84m39.313.7c-.551.666-.8.42-.333-.29.232-.391.492-.55.55-.391a.9.9,0,0,1-.217.681m-13.452.391c0,.362-1.187,1.086-2.664,1.578-1.217.42-1.318.521-1.318,1.274s.13.883,1.158,1.216c1.216.42,1.781.782,1.781,1.144,0,.261-7.573.3-7.834.058-.333-.3.391-.825,1.651-1.144s1.274-.362,1.274-1.318c0-.854-.072-.985-.565-.985a7.971,7.971,0,0,1-3.519-1.752c-.073-.232,1.028-.3,4.967-.3,3.128-.029,5.068.072,5.068.232m16.116,3.779a.831.831,0,0,1-.753.362c-.724,0-1.144.724-.594,1.057.261.159.492.058.8-.362.26-.3.463-.492.463-.42a26.156,26.156,0,0,1-1.94,4.836c-.869,1.709-2.635,4.011-2.346,3.113.072-.29-.174-.623-.782-1.028-.463-.3-.883-.666-.883-.8,0-.29.651-.2.984.13.2.2.391.2.7-.058.594-.492.463-.782-.42-.782-.492,0-.724-.1-.594-.29.159-.29,1.347-.1,1.738.29.13.1.029.521-.232.912-.333.521-.362.7-.13.623a3,3,0,0,0,.883-1.028l.55-.912-.565-.565c-.492-.492-.666-.521-1.115-.29-.29.159-.594.2-.666.13-.159-.159,1.506-.927,2-.927.13,0,.261.232.261.521,0,.724.391.652.753-.159s.232-1.028-.883-1.39c-.492-.159-.912-.42-.912-.55,0-.333.3-.29,1.375.159.492.2.956.29,1.057.2.391-.42.072-.8-.883-1.086-.565-.159-1.028-.434-1.028-.565,0-.159.2-.2.434-.13.55.2.912-.362.55-.825-.232-.261-.2-.42.072-.594.55-.333.753-.29.753.2,0,.362.073.333.42-.13.3-.463.492-.521.753-.3a.62.62,0,0,1,.188.652m-21.025,4.243a9.756,9.756,0,0,0,2.4-.232c.565-.2.883,0,3.156,2.3a19.545,19.545,0,0,1,2.433,2.664,16.123,16.123,0,0,1-3.316,1.52,17.544,17.544,0,0,1-8.152.362,22.361,22.361,0,0,1-4.807-1.839c0-.029,1.188-1.216,2.635-2.664,2.36-2.331,2.693-2.563,3.258-2.36a8.887,8.887,0,0,0,2.389.246m-13.191,6.588c.174.232.26.463.174.565-.2.174-.956-.391-.956-.724s.42-.275.782.159m3.388.652c.521.29.7,1.289.232,1.289-.13,0-.26-.159-.26-.362,0-.55-.724-.7-1.158-.232-.565.55-.391,1.245.3,1.245.782,0,.883.492.13.594-1.245.174-1.839-1.318-.912-2.331a1.176,1.176,0,0,1,1.665-.2m22.734,0c0,.333-.724.652-.985.42-.072-.1,0-.29.2-.42.521-.333.782-.319.782,0m-2.592,1.086c1.115.927,1.318,1.376.551,1.158-.565-.13-1.187.174-1.187.623a.455.455,0,0,1-.29.42c-.333.1-.782-2.3-.492-2.766.232-.391.3-.348,1.419.565m-17.477.521c.131.232.174.55.058.652s-.3,0-.434-.261a.943.943,0,0,0-.666-.434c-.333,0-.29.159.261.724.623.652.666.782.333,1.216a1.13,1.13,0,0,1-1.911-.652l-.1-.652.666.623c.854.8,1.216.492.42-.362-.753-.8-.55-1.506.42-1.376a1.549,1.549,0,0,1,.956.521m15.233.8c.492,1.216.55,1.477.231,1.477a8.256,8.256,0,0,1-1.347-2.462c0-.072.159-.13.333-.13s.521.492.782,1.115m-13.785-.521a11.686,11.686,0,0,1-.42,1.289c-.42,1.216-1.086,1.752-.782.623a9.81,9.81,0,0,0,.3-1.289c.1-.391.333-.7.521-.7.217,0,.376.029.376.072m12.569.579a1.341,1.341,0,0,1-.724,2.172,3,3,0,0,1-.854.232c-.029-.058-.232-.652-.435-1.318-.391-1.216-.391-1.274.159-1.477.927-.391,1.419-.29,1.854.391m-10.788-.116c.8.29,1.115,1.057.55,1.39a.274.274,0,0,0-.13.376v.014c.174.29-.13,1.028-.391,1.028-.13,0-.26-.261-.3-.565-.1-.753-.651-.883-.854-.232s-.652.724-.652.13a5.3,5.3,0,0,1,.782-2.433,8.654,8.654,0,0,1,1,.29m7.863.42c.623,2.273.434,2.737-.652,1.709l-.8-.724.159.825c.13.623.072.854-.174.854-.391,0-.883-2.462-.565-2.766.073-.1.521.159.927.565l.782.753-.159-.825c-.188-.883.275-1.216.478-.391m-2.664.956a4.841,4.841,0,0,0,.159,1.289c.1.29.029.42-.261.42s-.42-.232-.42-.724a6.4,6.4,0,0,0-.159-1.289c-.13-.42-.058-.565.261-.565s.42.217.42.869m-2.071.681c0,.13-.232.261-.521.261s-.521-.13-.521-.261c0-.159.232-.261.521-.261s.521.1.521.261" transform="translate(-15109.081 424.485)"/>
    <path id="Path_14376" data-name="Path 14376" d="M2357.371,490.959c-.3.521.29.753,1.274.434.651-.2.854-.362.651-.521-.507-.275-1.723-.246-1.926.087" transform="translate(-15232.955 380.446)"/>
    <path id="Path_14377" data-name="Path 14377" d="M2389.6,498.065a.393.393,0,0,0,.333.261.375.375,0,0,0,.333-.261c.058-.159-.1-.29-.333-.29s-.376.13-.333.29" transform="translate(-15260.577 374.383)"/>
    <path id="Path_14378" data-name="Path 14378" d="M2332.907,512.526a.745.745,0,0,1-.29.8c-.435.333-.42.362.1.2.492-.13.565-.072.434.3-.174.434-.159.434.29.029s.435-.521.13-1.115c-.391-.681-.927-.9-.666-.217" transform="translate(-15211.59 362.122)"/>
    <path id="Path_14379" data-name="Path 14379" d="M2475.759,508.764a.329.329,0,0,0,.131.42.542.542,0,0,0,.782-.42c-.014-.319-.709-.319-.912,0" transform="translate(-15334.242 365.19)"/>
    <path id="Path_14380" data-name="Path 14380" d="M2350.647,543.8a36.674,36.674,0,0,1-3.084,3.026c-3.128,2.766-3.721,4.677-2.23,7.3.927,1.607,1.158,1.752.594.42a7.076,7.076,0,0,1-.073-4.474,34.1,34.1,0,0,1,2.766-3.316c2-2.2,3.461-4.214,3.128-4.185a10.31,10.31,0,0,0-1.1,1.231" transform="translate(-15222.061 336.072)"/>
    <path id="Path_14381" data-name="Path 14381" d="M2489.779,516.024a1.533,1.533,0,0,0,.26.8c.232.29.174.333-.2.29a.677.677,0,0,0-.652.159c-.232.463,1.115.463,1.448,0,.391-.55.2-1.187-.3-.985-.261.1-.3,0-.2-.29.073-.232.058-.42-.072-.42s-.275.217-.275.449" transform="translate(-15345.729 359.161)"/>
    <path id="Path_14382" data-name="Path 14382" d="M2536.18,571.387a.487.487,0,0,0,.1.55c.333.333.825.058.825-.463.014-.42-.666-.492-.927-.087" transform="translate(-15385.903 311.661)"/>
    <path id="Path_14383" data-name="Path 14383" d="M2552.979,583.425c-.2.174.333,1.911.623,1.911.1,0,.2-.463.2-1.028,0-.956-.362-1.347-.825-.883" transform="translate(-15400.27 301.302)"/>
    <path id="Path_14384" data-name="Path 14384" d="M2546.743,614.244c-.3.492.13.594.565.159s.42-.434.029-.434a.691.691,0,0,0-.594.275" transform="translate(-15394.888 275.015)"/>
    <path id="Path_14385" data-name="Path 14385" d="M2552.554,616.066c-.26.3-.26.391.1.391a.425.425,0,0,0,.42-.391c0-.2-.058-.391-.1-.391a1.689,1.689,0,0,0-.42.391" transform="translate(-15399.787 273.555)"/>
    <path id="Path_14386" data-name="Path 14386" d="M2294.643,716.032c0,.159.232.391.55.55.463.261.521.232.434-.174-.087-.507-.985-.854-.985-.376" transform="translate(-15179.379 187.924)"/>
    <path id="Path_14387" data-name="Path 14387" d="M2551.843,667.736a.28.28,0,0,0,.26.261.26.26,0,0,0,.261-.261.254.254,0,0,0-.232-.261h-.029a.26.26,0,0,0-.26.261" transform="translate(-15399.336 229.256)"/>
    <path id="Path_14388" data-name="Path 14388" d="M2477.5,758.836c.073.13.2.261.29.261.058,0,.1-.13.1-.261a.272.272,0,0,0-.275-.261h-.014c-.131,0-.188.1-.1.261" transform="translate(-15335.722 151.347)"/>
    <path id="Path_14389" data-name="Path 14389" d="M2449.555,766.36c-.2.1-.232.333-.029.912.333.956.854.854.854-.159,0-.724-.246-.956-.825-.753" transform="translate(-15311.717 144.749)"/>
    <path id="Path_14390" data-name="Path 14390" d="M2380.585,769.8c.13.391.724.463.753.072,0-.159-.174-.3-.435-.333-.275-.072-.405.029-.319.261" transform="translate(-15252.854 141.99)"/>
  </g>
</svg>
