<svg xmlns="http://www.w3.org/2000/svg" width="54.247" height="26.588" viewBox="0 0 54.247 26.588">
  <path id="Path_14257" data-name="Path 14257" d="M1157.913,6.4c-.391,0-1.709.637-3.374,2.447s-3.649,4.2-5.444,4.2a.779.779,0,0,1-.869-.666v-.217c0-.3.246-.594.695-.695,1.694-.507,4.359-2.708,4.359-4.2a.712.712,0,0,0-.579-.811h-.145c-.7,0-2.795.348-5.343,3.388a1.289,1.289,0,0,1-.825.565c-.246,0-.521-.449-.521-1.347V8.79c.072-1.188.695-1.68.695-2.071,0-.275-.116-.362-.42-.362-.695,0-2.1,1.709-2.375,1.709s-.434-.782-.7-1.072c-.333-.449-.811-.565-2.1-.565-.7,0-1.043.058-1.636.058s-.825,0-.956-.319S1136.28.7,1131.791.7c-1,0-2.056.434-2.056,1.8s.811,3.2,4.2,4.315c.087,0,.174.029.174.1s-1.607,2.3-3.055,2.563a.267.267,0,0,1-.29-.217V9.209a5.478,5.478,0,0,0,.232-1.274c0-.7-.217-1.651-1.52-1.651s-2.708.579-6.371,4.112l-.405.391a4.724,4.724,0,0,1-.8.623,1.536,1.536,0,0,1-.825.29c-.058,0-.116-.072.043-.3l.145-.188.753-1.043c.7-1,1.665-2.274,1.926-2.549.406-.463.623-.7.623-.84s-.246-.319-.565-.319a3.675,3.675,0,0,0-2.216,1c-.3.3-1.129,1.158-2.157,2.158-.275.261-.565.536-.854.8-1.665,1.535-3.605,3.084-4.648,3.084a.838.838,0,0,1-.825-.956,9.307,9.307,0,0,1,1.752-3.533c.145-.2.3-.42.463-.623a16.034,16.034,0,0,1,1.781-1.926c2.664-2.447,5.763-3.634,7.689-3.634a11.859,11.859,0,0,1,1.9.188.156.156,0,0,0,.174-.072L1128.5.261V.116a2.366,2.366,0,0,0-.84-.116c-2.157,0-6.835,1.072-11.541,4.474a28.043,28.043,0,0,0-3.345,2.795c-.159.145-.3.3-.434.449-2.027,2.2-3,4.2-3,5.6,0,1.8,1.68,2.027,2.563,2.027,2.331,0,3.359-1.072,3.823-1.072s-.275,1.13-.985,1.549c-5.763,3.5-10.5,6.473-10.5,9.253,0,1.26,1.158,1.332,2.042,1.332s5.2-.521,11.8-10.773a4.806,4.806,0,0,1,1.3-1.115,12.46,12.46,0,0,1,2.375-1.491c.318,0,.3.13.29.275a5.534,5.534,0,0,0-.217,1.187,1.348,1.348,0,0,0,1.448,1.173c2.013,0,3.5-1.434,4.677-2.708a11.081,11.081,0,0,1,1.853-1.738,1.257,1.257,0,0,1,.739-.246c.2,0,.29.087.29.217v.029a12.784,12.784,0,0,0-.406,2.2v.043c0,.854.29,2.1,2.288,2.1a4.356,4.356,0,0,0,2.983-1.448,11.438,11.438,0,0,0,2.215-3.33,7.9,7.9,0,0,0,.782-2.693.231.231,0,0,1,.2-.261h.058c.217,0,.84.072,1.115.087a.786.786,0,0,1,.7.84,4.457,4.457,0,0,1-.579,1.622,43.4,43.4,0,0,1-2.331,3.866l-.637.97s-.188.217.1.217h2.621a.421.421,0,0,0,.318-.217c.029-.043.3-.449.637-.985l1.651-2.505a.338.338,0,0,1,.3-.188c.42,0-.087,1.043,1.448,1.043a5.558,5.558,0,0,0,.97-.217c.116,0,.13.087.13.188a8.814,8.814,0,0,0-.246,1.071v.246c0,.7.174,1.868,1.4,1.868,2.418,0,5.444-3.07,5.589-3.1s.116,0,.116.13-.348,1.318-3.9,5.589-5.285,5.995-5.285,6.921a1.232,1.232,0,0,0,1.158,1.3c.362,0,1.911-.087,5.589-6.067,2.635-4.272,3.881-6.907,5.271-9.036a16.731,16.731,0,0,1,1.969-2.534c1.072-1.071,1.4-1.636,1.4-1.882a.6.6,0,0,0-.521-.666Zm-6.559,1.694c.072,0,.188.058.188.159,0,.623-1.651,2.129-2.186,2.129a.22.22,0,0,1-.217-.2,4.509,4.509,0,0,1,2.215-2.085m-43.73,16.391a.513.513,0,0,1-.55-.449v-.145c0-1.231,4.286-4.46,4.793-4.46.13,0,.174.043.174.159-.043.97-3.171,4.894-4.416,4.894m19.027-11.83a2.584,2.584,0,0,1-1.2.7c-.463,0-.608-.246-.623-.492a1.415,1.415,0,0,1,.116-.652,5.951,5.951,0,0,1,.9-1.4,9.542,9.542,0,0,1,3.316-2.751c.275,0,.391.1.405.217,0,.492-.651.825-1.086,1.144s-.7.478-.623.782c0,.174.275.217.3.507a.674.674,0,0,1-.087.333,6.33,6.33,0,0,1-1.419,1.622m5.343-9.571a.87.87,0,0,1,.84-.927h.116c2.708,0,4.054,3.852,4.054,4.1,0,.116-.072.188-.261.188-.97,0-4.75-1.477-4.75-3.359m1.8,10.093a.515.515,0,0,1-.565-.42v-.072a3.094,3.094,0,0,1,.608-1.477,6.91,6.91,0,0,1,1.607-1.825c.594-.362.9-.7.9-.9s-.42-.463-.463-.652.13-.362.536-.246c.579.145,1,.159,1.014.594a8.753,8.753,0,0,1-1.014,2.795c-.666,1.173-1.549,2.2-2.621,2.2" transform="translate(-1104.25 0.003)"/>
</svg>
