<svg xmlns="http://www.w3.org/2000/svg" width="95.569" height="29.843" viewBox="0 0 95.569 29.843">
  <g id="Group_5789" data-name="Group 5789" transform="translate(13076.971 -958.692)">
    <path id="Path_14336" data-name="Path 14336" d="M1252.165,1283.835v-.573h2.553a.448.448,0,0,0,.287-.068.233.233,0,0,0,.1-.177v-.178a.222.222,0,0,0-.1-.191.515.515,0,0,0-.287-.055h-1.693c-.573,0-.847-.2-.847-.628v-.478c0-.382.287-.56.847-.56h2.553v.56H1253a.4.4,0,0,0-.177.027.1.1,0,0,0-.041.082v.177a.585.585,0,0,0,.041.232.272.272,0,0,0,.177.027h1.707a1.694,1.694,0,0,1,.451.055.778.778,0,0,1,.3.15.492.492,0,0,1,.164.246.991.991,0,0,1,.055.341v.232a.942.942,0,0,1-.055.341.6.6,0,0,1-.164.246.778.778,0,0,1-.3.15,1.7,1.7,0,0,1-.451.055Z" transform="translate(-14287.852 -295.368)"/>
    <path id="Path_14337" data-name="Path 14337" d="M1410.37,1283.835v-.573h2.539a.468.468,0,0,0,.3-.068.187.187,0,0,0,.082-.177v-.178a.269.269,0,0,0-.082-.191.459.459,0,0,0-.3-.055h-1.693c-.573,0-.846-.2-.846-.628v-.478c0-.382.287-.56.846-.56h2.553v.56H1411.2a.4.4,0,0,0-.177.027.092.092,0,0,0-.055.082v.177c0,.055,0,.2.055.232a.272.272,0,0,0,.177.027h1.706a1.694,1.694,0,0,1,.451.055.779.779,0,0,1,.3.15.6.6,0,0,1,.164.246.991.991,0,0,1,.055.341v.232a.942.942,0,0,1-.055.341.6.6,0,0,1-.164.246.779.779,0,0,1-.3.15,1.7,1.7,0,0,1-.451.055Z" transform="translate(-14423.148 -295.368)"/>
    <path id="Path_14338" data-name="Path 14338" d="M1568.292,1283.835v-.573h2.539a.448.448,0,0,0,.287-.068.233.233,0,0,0,.1-.177v-.178a.221.221,0,0,0-.1-.191.515.515,0,0,0-.287-.055h-1.693c-.573,0-.846-.2-.846-.628v-.478c0-.382.287-.56.846-.56h2.553v.56h-2.567a.4.4,0,0,0-.177.027.092.092,0,0,0-.055.082v.177c0,.055.014.2.055.232a.273.273,0,0,0,.177.027h1.72a1.693,1.693,0,0,1,.45.055.779.779,0,0,1,.3.15.6.6,0,0,1,.164.246,1,1,0,0,1,.054.341v.232a.947.947,0,0,1-.054.341.6.6,0,0,1-.164.246.779.779,0,0,1-.3.15,1.7,1.7,0,0,1-.45.055Z" transform="translate(-14558.203 -295.368)"/>
    <path id="Path_14339" data-name="Path 14339" d="M1304.492,1283.673v-2.935h3.618v.573h-3.031v.573h3.044v.532h-3.044v.669h3.044v.573Z" transform="translate(-14332.602 -295.207)"/>
    <path id="Path_14340" data-name="Path 14340" d="M1357.29,1283.432v-2.676a.311.311,0,0,1,.082-.219.269.269,0,0,1,.191-.082h.1a.22.22,0,0,1,.1.055l2.58,2.075v-2.116h.574v2.7a.31.31,0,0,1-.082.218.269.269,0,0,1-.191.082h-.1a.219.219,0,0,1-.1-.055l-2.58-2.062v2.116Z" transform="translate(-14377.754 -294.966)"/>
    <path id="Path_14341" data-name="Path 14341" d="M1463.679,1283.755a1.8,1.8,0,0,1-.464-.055.781.781,0,0,1-.3-.15.49.49,0,0,1-.164-.246.992.992,0,0,1-.055-.341v-1.338a.941.941,0,0,1,.055-.341.6.6,0,0,1,.164-.246.777.777,0,0,1,.3-.15,1.728,1.728,0,0,1,.464-.055h1.693a1.692,1.692,0,0,1,.45.055.775.775,0,0,1,.3.15.491.491,0,0,1,.164.246.99.99,0,0,1,.055.341v1.338a.943.943,0,0,1-.055.341.6.6,0,0,1-.164.246.779.779,0,0,1-.3.15,1.692,1.692,0,0,1-.45.055Zm-.382-.819a.2.2,0,0,0,.1.177.525.525,0,0,0,.287.068h1.693a.448.448,0,0,0,.287-.068.233.233,0,0,0,.1-.177v-1.3a.2.2,0,0,0-.1-.177.516.516,0,0,0-.287-.055h-1.693a.539.539,0,0,0-.287.055.233.233,0,0,0-.1.177Z" transform="translate(-14467.897 -295.288)"/>
    <path id="Path_14342" data-name="Path 14342" d="M1518.258,1282.716h.451a1.7,1.7,0,0,0,.451-.055.781.781,0,0,0,.3-.15.6.6,0,0,0,.164-.246.991.991,0,0,0,.055-.341v-.3a.942.942,0,0,0-.055-.341.491.491,0,0,0-.164-.246.781.781,0,0,0-.3-.15,1.7,1.7,0,0,0-.451-.055h-2.648v2.935h.573v-2.348h2.075a.541.541,0,0,1,.287.055.233.233,0,0,1,.1.177v.3a.221.221,0,0,1-.1.191.513.513,0,0,1-.287.055h-1.379v.519l1.392,1.051h1.038Z" transform="translate(-14513.534 -295.287)"/>
    <path id="Path_14343" data-name="Path 14343" d="M1217.658,1204.1v8.109h1.584v-2.839h8.341V1207.9h-8.341v-2.212h8.41v-1.6h-9.993Z" transform="translate(-14258.342 -229.655)"/>
    <path id="Path_14344" data-name="Path 14344" d="M1366.431,1209.419l-7.126-5.72a.685.685,0,0,0-.26-.137.886.886,0,0,0-.273-.041.746.746,0,0,0-.519.219.821.821,0,0,0-.219.6v7.386h1.6v-5.816l7.113,5.72a.683.683,0,0,0,.26.136.878.878,0,0,0,.273.041.745.745,0,0,0,.519-.218.782.782,0,0,0,.232-.6V1203.6h-1.6Z" transform="translate(-14378.391 -229.171)"/>
    <path id="Path_14345" data-name="Path 14345" d="M1466.545,1209.419l-7.113-5.72a.684.684,0,0,0-.259-.137.952.952,0,0,0-.273-.041.746.746,0,0,0-.519.219.822.822,0,0,0-.218.6v7.386h1.6v-5.816l7.113,5.72a.682.682,0,0,0,.259.136.88.88,0,0,0,.273.041.692.692,0,0,0,.519-.218.781.781,0,0,0,.232-.6V1203.6h-1.6v5.816Z" transform="translate(-14464.02 -229.171)"/>
    <path id="Path_14346" data-name="Path 14346" d="M1566.373,1208.289h-6.812v-1.283a2.252,2.252,0,0,1,.068-.519.827.827,0,0,1,.246-.355,1.174,1.174,0,0,1,.478-.219,2.747,2.747,0,0,1,.751-.068h3.713a3.5,3.5,0,0,1,.751.068,1.174,1.174,0,0,1,.478.219.824.824,0,0,1,.259.355,1.325,1.325,0,0,1,.068.519Zm.833-3.3a3.371,3.371,0,0,0-2.362-.71h-3.74a3.37,3.37,0,0,0-2.362.71,2.66,2.66,0,0,0-.765,2.048v5.338h1.584v-2.594h6.812v2.594h1.6v-5.352a2.643,2.643,0,0,0-.765-2.034" transform="translate(-14549.376 -229.816)"/>
    <path id="Path_14347" data-name="Path 14347" d="M1307.32,1204.1l1.215.915v7.181h1.6v-8.109h-2.812Z" transform="translate(-14335.021 -229.655)"/>
    <path id="Path_14348" data-name="Path 14348" d="M1036.235,1139.346c.587-1.106-.137-1.979-1.775-2.348s-6.28-.56-10.334-.792c-3.918-.219-3.918-2.062-4.082-2.171a3.438,3.438,0,0,0,2.362,3.085,98.735,98.735,0,0,0,10.826,3.113c1.447.328,2.5.055,3.017-.874" transform="translate(-14089.342 -169.746)"/>
    <path id="Path_14349" data-name="Path 14349" d="M1081.358,1137.1a21.754,21.754,0,0,0-1.5-6.089,8.83,8.83,0,0,0-4.669-4.614,8.809,8.809,0,0,1,2.812,3.509,22.057,22.057,0,0,1,1.392,5.42,67.5,67.5,0,0,1-11.509,0l.273-1.351a6.489,6.489,0,0,0-1.161,2.689s2.293.246,7.236.478a45.587,45.587,0,0,0,7.113-.055" transform="translate(-14129.495 -163.216)"/>
    <path id="Path_14350" data-name="Path 14350" d="M978.62,1113.907c1.379-.109,3.741-.369,4.86-1.188a4.575,4.575,0,0,0,1.352-1.256s-1.242-.109-1.857-.191-1.3-.178-1.3-.178a3.77,3.77,0,0,1-2.676,1.283c-1.229.178-4.819.178-5.543.178-.341,0-2.321-.041-3.863-.068v-10.4c0-3.577,2.894-5.693,6.485-5.693h15.14a6.427,6.427,0,0,1,3.8,1.229,6.973,6.973,0,0,0-5.133-2.239H974.061a7,7,0,0,0-7,7v12.669l3.017-.3c3.263-.328,7.7-.778,8.546-.846" transform="translate(-14044.027 -136.689)"/>
    <path id="Path_14351" data-name="Path 14351" d="M1124.275,1256.319l-.71.6a2.827,2.827,0,0,0,.983.3,7.067,7.067,0,0,0,1.2.027l.177-.519a2.106,2.106,0,0,0,.41-.055,1.221,1.221,0,0,0,.368-.2h-.6c-.369,0-1.843-.15-1.843-.15" transform="translate(-14177.873 -274.324)"/>
    <path id="Path_14352" data-name="Path 14352" d="M983.439,1211.364c2.471-.847,3.877-2.594,4.082-4.15l-1.256-.109c-1.2,2.444-4.109,3.017-5.024,3.195-1.242.259-13.529,1.939-14.184,1.993v1.447a7.144,7.144,0,0,0,.3,2.007l2.99-.792c3.672-.983,11.113-2.908,13.092-3.59" transform="translate(-14044.027 -232.235)"/>
    <path id="Path_14353" data-name="Path 14353" d="M1003,1209.584s1.625.246,2.28.382a6.59,6.59,0,0,1,.86.218l-.15.2-.532-.082-.573.423.464.164-.137.246-1.038-.369.109-.109a4.607,4.607,0,0,1-.532-.246,6.337,6.337,0,0,1-.642-.409,2.249,2.249,0,0,1-1.065.737Zm-.928,10.321c1.242-.874,1.393-2.621.806-3.085a8.628,8.628,0,0,1-3.372,3.085l-1.12.546s.464-.6.819-1.106a5.038,5.038,0,0,0,.423-.86s-.7.491-1.515,1.092a17.117,17.117,0,0,1-1.611.942,4.293,4.293,0,0,1,.464-1.393,7.4,7.4,0,0,1,.669-1.147,22.259,22.259,0,0,0-2.894,2.566,9.362,9.362,0,0,1,1.8-4.71,4.391,4.391,0,0,1,2.867-1.5,5.258,5.258,0,0,1,1.9.232l.287-.246a6.234,6.234,0,0,1-1.393-.573,6.535,6.535,0,0,1-1.2-1.092,6.172,6.172,0,0,0,1.42.109,28.159,28.159,0,0,1,3.222-.055,3.56,3.56,0,0,1,1.611.519l-.382.177,1.324.4.532-.3s.123-1.188.137-1.925a9.692,9.692,0,0,0-.068-1.406l.751-.341s.055-1.092.1-1.392.027-.642.027-.956a60,60,0,0,1-6.649.1,6.414,6.414,0,0,1-.956,2.607c-.765,1.038-1.433,1.625-3.727,2.621-1.447.628-7.768,3.235-12.2,5.065L981.388,1219a6.983,6.983,0,0,0,3.618,1.952c.341-.273,1-.792,1.761-1.379a45.435,45.435,0,0,1,3.973-2.826,27.4,27.4,0,0,1,3.754-1.857l.805-.246a5.21,5.21,0,0,0-.232.478c-.1.246-.191.464-.191.464s-1.72,1.051-2.73,1.857c-.86.682-2.212,1.884-2.812,2.471-.109.109-.191.2-.246.26-.232.259-.587.655-.806.9h2.266c.164-.218.56-.71.956-1.16.218-.246.437-.491.669-.724a16.977,16.977,0,0,1,1.693-1.256l-.082.532-1.01,1.447-.15.273a8.151,8.151,0,0,0-.478.9h10.075a6.94,6.94,0,0,0,5.5-2.689,6.337,6.337,0,0,1-4.15,1.5Z" transform="translate(-14056.283 -232.558)"/>
  </g>
</svg>
