<svg xmlns="http://www.w3.org/2000/svg" width="95.567" height="20.879" viewBox="0 0 95.567 20.879">
  <g id="Group_5792" data-name="Group 5792" transform="translate(13076.97 -1045.275)">
    <path id="Path_14354" data-name="Path 14354" d="M1080.5,1693.616c-.507.8.247,1.31,1.644,1.05,1.471-.3,5.055.89,4.635,1.52a.22.22,0,0,0,.025.321.237.237,0,0,0,.186.05c.593,0,.593-.247.037-1.261-.63-1.174-5.982-2.571-6.526-1.681" transform="translate(-14140.912 -648.059)"/>
    <path id="Path_14355" data-name="Path 14355" d="M986.61,1698.674c-.173.247-.89.334-1.73.173-1.261-.21-1.434-.173-1.434.63,0,.47-.173.89-.334.89-.21,0-.383.3-.383.63s.173.63.383.63.3,2.027.247,4.511c-.124,4.214-.173,4.548-.964,4.548-.754,0-.84-.334-.964-4-.087-2.867.037-4.128.42-4.425.717-.544.89-1.471.247-1.471a3.592,3.592,0,0,1-1.471-.927c-1.1-1.051-1.94-.8-4.264,1.137a9.771,9.771,0,0,0-3.25,7.082c-.173,2.36-.124,2.533.42,1.767.593-.717.63-.63.383,1.051-.21,1.73-.087,2.027,1.186,3.411,1.817,2.027,3.078,2.744,5.314,3.077l1.767.247v-1.421c0-1.223-.173-1.434-1.224-1.644a7.484,7.484,0,0,1-4.808-4.808c-.42-1.644-.544-1.767-1.013-1.137-.3.42-.544.507-.544.247,0-.544,2.954-4.721,3.374-4.721a16.436,16.436,0,0,1,.21,3.757c0,3.374.086,3.881,1.014,4.845a4.48,4.48,0,0,0,4.931,1.1c2.027-.68,2.694-2.361,2.694-6.748,0-1.854.173-3.374.383-3.374.717,0,2.237,3.708,2.027,4.981-.42,2.744-3.374,5.982-5.438,5.982-.964,0-1.261.593-.927,1.9.3,1.187,1.137,1.347,2.991.544a10.3,10.3,0,0,0,6.241-8.392,9.272,9.272,0,0,0-3.115-7.625c-.84-.754-1.471-1.52-1.4-1.681.037-.173-.124-.334-.383-.334-.21,0-.3-.21-.173-.42.124-.247.173-.42.037-.42s-.334.2-.457.408" transform="translate(-14049.131 -652.276)"/>
    <path id="Path_14356" data-name="Path 14356" d="M1492.875,1729.546a5.988,5.988,0,0,0-2.744,1.434c-1.014.964-1.137,1.434-1.137,3.794,0,2.4.124,2.83,1.187,3.794a6.049,6.049,0,0,0,5.772,1.137c2.274-.68,3.374-2.361,3.374-5.055,0-3.584-2.694-5.735-6.451-5.1m2.323,3.25c1.644,1.471.124,5.351-1.73,4.338-1.187-.593-1.52-2.744-.717-4,.8-1.224,1.4-1.31,2.447-.334" transform="translate(-14490.388 -678.934)"/>
    <path id="Path_14357" data-name="Path 14357" d="M1152.708,1734.406c0,3.621.124,4.338.8,5.018,1.607,1.607,5.734,1.644,7.675.087.84-.68.927-1.137.964-4.931l.037-4.177h-3.374l-.124,3.584c-.124,3.708-.507,4.474-1.854,3.757-.63-.334-.754-.976-.754-3.967v-3.584h-3.374Z" transform="translate(-14202.796 -679.579)"/>
    <path id="Path_14358" data-name="Path 14358" d="M1229.1,1730.662a21.881,21.881,0,0,0,0,5.055l.3,4.6h2.83l.124-2.4.124-2.361.63,1.224a7.113,7.113,0,0,0,.89,1.434,6.632,6.632,0,0,1,.754,1.187c.383.717.84.927,2.151.927h1.681v-10.134H1235.2v2.4l-.025,2.447-1.36-2.4c-1.26-2.274-1.434-2.447-2.9-2.447-.84,0-1.681.21-1.817.469" transform="translate(-14268.015 -679.58)"/>
    <path id="Path_14359" data-name="Path 14359" d="M1307.024,1735.246v5.055h3.374v-10.11h-3.374Z" transform="translate(-14334.767 -679.579)"/>
    <path id="Path_14360" data-name="Path 14360" d="M1342.018,1735.246v5.055h1.9c1.9,0,1.9,0,1.9-1.471,0-1.434.037-1.471,1.644-1.471,2.237,0,3.831-1.31,3.831-3.164,0-3.114-1.4-4-6.118-4h-3.164Zm5.821-1.384a1.3,1.3,0,0,1-1.1.89c-.717.124-.927-.086-.927-.717,0-.68.247-.89,1.1-.89.791,0,1.05.21.927.717" transform="translate(-14364.693 -679.579)"/>
    <path id="Path_14361" data-name="Path 14361" d="M1412.134,1730.269a22.984,22.984,0,0,0-.3,5.055v4.771h3.794v-1.9c0-1.817.037-1.9,1.26-1.9s1.261.086,1.261,1.9v1.9h1.681c1.52,0,1.681-.087,1.9-1.4a32.359,32.359,0,0,0,.124-4.931l-.124-3.584-1.767-.124-1.817-.124v1.681c0,1.644-.087,1.73-1.261,1.73s-1.26-.086-1.26-1.681c0-1.681,0-1.681-1.607-1.681a3.9,3.9,0,0,0-1.891.284" transform="translate(-14424.403 -679.36)"/>
    <path id="Path_14362" data-name="Path 14362" d="M1566.994,1731.311a2.772,2.772,0,0,0,.037,4.387,3.876,3.876,0,0,0,1.94.89c1.013,0,2.447.754,2.447,1.26s-1.854.124-2.027-.42c-.086-.21-.89-.42-1.817-.42-2.027,0-2.237,1.013-.544,2.571.89.84,1.52,1.013,3.621,1.013,2.15-.037,2.657-.173,3.337-1.013,1.483-1.817.68-4.894-1.384-5.265s-3.288-.8-3.288-1.137c0-.507,1.434-.47,1.978.087a2.858,2.858,0,0,0,1.854.3c1.187-.086,1.4-.3,1.31-.964-.26-1.52-1.693-2.323-4.177-2.323-1.854-.012-2.447.2-3.287,1.038" transform="translate(-14556.152 -679.649)"/>
    <path id="Path_14363" data-name="Path 14363" d="M1124.717,1733.513c-.124.21-.037.42.173.42a.479.479,0,0,0,.469-.42c0-.247-.086-.42-.173-.42-.124,0-.334.173-.47.42" transform="translate(-14178.81 -682.061)"/>
    <path id="Path_14364" data-name="Path 14364" d="M1113.777,1742.1c.173.124,0,.63-.42,1.05-.383.42-.507.754-.3.754s.087.21-.247.42c-.42.247-.47.42-.124.42.3,0,.8-.544,1.187-1.261.754-1.471.8-1.681.124-1.681-.26.012-.346.136-.223.3" transform="translate(-14168.376 -689.507)"/>
    <path id="Path_14365" data-name="Path 14365" d="M967.084,1799.046a4.791,4.791,0,0,0,1.1,2.744c1.013,1.013,1.187.68.247-.544a4.973,4.973,0,0,1-.63-2.447c0-.89-.21-1.607-.42-1.607-.247,0-.383.754-.3,1.854" transform="translate(-14044.027 -736.878)"/>
    <path id="Path_14366" data-name="Path 14366" d="M983.881,1833.375c0,.42,4.6.247,4.845-.173.124-.173-.927-.247-2.323-.247-1.384.049-2.521.21-2.521.42" transform="translate(-14058.415 -767.463)"/>
  </g>
</svg>
