<svg xmlns="http://www.w3.org/2000/svg" xmlns:xlink="http://www.w3.org/1999/xlink" width="39.584" height="45.858" viewBox="0 0 39.584 45.858">
  <defs>
    <clipPath id="clip-path">
      <rect id="Rectangle_3217" data-name="Rectangle 3217" width="8.901" height="15.033" fill="#fff"/>
    </clipPath>
    <clipPath id="clip-path-2">
      <rect id="Rectangle_3218" data-name="Rectangle 3218" width="1.414" height="1.903" fill="#fff"/>
    </clipPath>
    <clipPath id="clip-path-3">
      <rect id="Rectangle_3219" data-name="Rectangle 3219" width="2.158" height="1.971" fill="#fff"/>
    </clipPath>
    <clipPath id="clip-path-4">
      <rect id="Rectangle_3220" data-name="Rectangle 3220" width="4.925" height="4.844" fill="#fff"/>
    </clipPath>
  </defs>
  <g id="Group_5791" data-name="Group 5791" transform="translate(13204.456 -1032.358)">
    <path id="Path_14275" data-name="Path 14275" d="M119.229,1611.822c2.408,4.138,4.357,7.578,4.3,7.65-2.356,4.159-8.443,14.645-8.662,14.842-.167.188-2.449.334-6.785.438l-6.514.125-1.1-1.866-1.1-1.855,2.137-.073a6.539,6.539,0,0,0,2.168-.24,14.946,14.946,0,0,0-1.032-1.97l-1.032-1.8L99.321,1627l-2.283-.073-1.094-1.845c-1.063-1.855-1.084-1.855-2.21-1.97-.99-.094-1.23-.24-1.636-.917l-.5-.771h.99c1.126,0,1.2-.24.532-1.345-.26-.437-.386-.865-.26-.959.333-.365,4.086-6.879,4.086-7.1a6.45,6.45,0,0,1,2.355-.219l2.335-.021,1.032-1.751a18.887,18.887,0,0,0,1.011-1.9,7.208,7.208,0,0,0-2.168-.219l-2.137-.073,1.063-1.855,1.063-1.855,6.66.094,6.692.094Zm-20.512-3.335a4.646,4.646,0,0,1-.552,1.157c-.219.333-.552.886-.75,1.251-.313.646-.386.677-2.335.677-1.2,0-1.991-.094-1.991-.24a12.756,12.756,0,0,1,1.584-2.835c.313-.479.532-.532,2.283-.532,1.907-.01,1.928-.01,1.761.521m-6.619,8c-.459.771-.6.844-1.563.844H89.482l.406-.844c.386-.792.479-.844,1.563-.844h1.126Zm5.941,12.58,1.032,1.751-2.168-.073-2.168-.073-.99-1.751-.959-1.751,2.116.073,2.095.073Zm-8.8,14.425c0,3.659.125,4.044,1.324,4.284a1.479,1.479,0,0,0,1.324-.333c.573-.459.6-.6.678-3.867l.094-3.387,1.23.021h1.251l2.168,2.793,2.168,2.762.125-2.72.125-2.741,2.21-.073a6.084,6.084,0,0,1,2.96.313,2.471,2.471,0,0,1,.813,3.46c-.386.532-.386.573.333,1.157a2.434,2.434,0,0,1,.678,3.054c-.532,1.251-1.47,1.584-4.565,1.584h-2.5l-2.262-2.814-2.241-2.814-.125,1.855c-.24,3.033-1.438,4.117-4.451,3.94-3.221-.167-3.8-1.032-3.919-5.774a26.8,26.8,0,0,1,.052-3.658c.094-.261.5-.365,1.344-.365h1.2Zm24.692-2.96a4.664,4.664,0,0,1,.6,8.7c-3.314,1.636-7.233-.6-7.265-4.117a4.776,4.776,0,0,1,3.367-4.669,4.98,4.98,0,0,1,3.294.083m6.546.719a2.984,2.984,0,0,0,.75,1.084c.125,0,.5-.479.886-1.084l.678-1.084H124.3a4.476,4.476,0,0,1,1.491.125,23.527,23.527,0,0,1-1.2,2.116,15.609,15.609,0,0,0-1.2,2.283,17.129,17.129,0,0,0,1.344,2.5c.75,1.23,1.4,2.3,1.47,2.408.052.125-.6.188-1.47.188h-1.563l-.865-1.438c-.479-.792-.959-1.4-1.084-1.324a7.323,7.323,0,0,0-.959,1.438l-.75,1.324h-1.564a7.171,7.171,0,0,1-1.543-.094c0-.021.6-1.178,1.345-2.553l1.344-2.481-1.1-2.095a23.969,23.969,0,0,1-1.1-2.262,4.238,4.238,0,0,1,1.511-.146h1.49Z" transform="translate(-13291.087 -571.772)"/>
    <g id="Group_3057" data-name="Group 3057" transform="translate(-13185.252 1040.141)">
      <g id="Group_3056" data-name="Group 3056">
        <g id="Group_3055" data-name="Group 3055" clip-path="url(#clip-path)">
          <path id="Path_14276" data-name="Path 14276" d="M223.269,1658.267c-1.1,1.824-4.013,6.952-4.013,7.1a70.5,70.5,0,0,0,4.451,7.546,6.662,6.662,0,0,0,1.3-1.876c.6-1.011,1.543-2.616,2.116-3.585a11.419,11.419,0,0,0,1.032-1.949c0-.26-3.971-7.213-4.325-7.6-.1-.083-.375.052-.563.365" transform="translate(-219.256 -1657.878)" fill="#fff"/>
        </g>
      </g>
    </g>
    <g id="Group_3060" data-name="Group 3060" transform="translate(-13188.858 1070.319)">
      <g id="Group_3059" data-name="Group 3059">
        <g id="Group_3058" data-name="Group 3058" clip-path="url(#clip-path-2)">
          <path id="Path_14277" data-name="Path 14277" d="M194.35,1867.256c0,.99.188,1.125.99.719.844-.459.334-1.688-.719-1.688-.156.01-.271.448-.271.969" transform="translate(-194.35 -1866.287)" fill="#fff"/>
        </g>
      </g>
    </g>
    <g id="Group_3063" data-name="Group 3063" transform="translate(-13188.858 1074.184)">
      <g id="Group_3062" data-name="Group 3062">
        <g id="Group_3061" data-name="Group 3061" clip-path="url(#clip-path-3)">
          <path id="Path_14278" data-name="Path 14278" d="M194.35,1893.964v.99l.886-.167c1.157-.219,1.272-.292,1.272-.813,0-.625-.479-.99-1.376-.99-.761-.01-.782.021-.782.98" transform="translate(-194.35 -1892.983)" fill="#fff"/>
        </g>
      </g>
    </g>
    <g id="Group_3066" data-name="Group 3066" transform="translate(-13181.28 1070.775)">
      <g id="Group_3065" data-name="Group 3065">
        <g id="Group_3064" data-name="Group 3064" clip-path="url(#clip-path-4)">
          <path id="Path_14279" data-name="Path 14279" d="M247.68,1869.949a3.126,3.126,0,0,0-.886,1.324c-.75,2.283,2.355,4.044,4.117,2.3,2.064-2.064-.917-5.43-3.231-3.627" transform="translate(-246.68 -1869.436)" fill="#fff"/>
        </g>
      </g>
    </g>
  </g>
</svg>
