<svg xmlns="http://www.w3.org/2000/svg" width="57.92" height="36.707" viewBox="0 0 57.92 36.707">
  <g id="Group_5783" data-name="Group 5783" transform="translate(13209.76 -800.233)">
    <path id="Path_14259" data-name="Path 14259" d="M50,14.784V28.511H77.454v-5.3H55.3V17.448H80.451V28.526h27.454V23.212H85.751V17.448H96.828V12.134H85.751V1.057H80.437V12.134H55.314V6.371H77.469V1.057H50Z" transform="translate(-13259.76 799.176)"/>
    <path id="Path_14260" data-name="Path 14260" d="M50,215.969v3h2.071c1.68,0,2.071-.072,2.071-.348s-.348-.348-1.738-.348H50.666V216.2h1.622c1.289,0,1.622-.072,1.622-.348s-.319-.348-1.622-.348H50.7v-1.853h1.738c1.39,0,1.738-.072,1.738-.348s-.391-.348-2.071-.348H50Z" transform="translate(-13259.76 617.96)"/>
    <path id="Path_14261" data-name="Path 14261" d="M107.4,215.883c0,2.259.072,3,.3,3,.188,0,.261-.3.2-1-.116-1.506.232-2.534.941-2.795,1.014-.376,1.318.116,1.318,2.071,0,1.361.072,1.709.348,1.709.507,0,.478-3.157-.029-3.881-.376-.536-1.781-.738-2.056-.275-.319.536-.579.159-.579-.811,0-.579-.087-1.043-.232-1.043s-.217,1.173-.217,3.026" transform="translate(-13308.849 618.045)"/>
    <path id="Path_14262" data-name="Path 14262" d="M190.1,214.085c0,.97-.043,1.043-.434.811-1.39-.738-2.563.232-2.563,2.1a1.742,1.742,0,0,0,2.722,1.781c.2-.2.275-.2.275,0a.312.312,0,0,0,.348.275c.3,0,.348-.478.348-3s-.043-3-.348-3c-.261,0-.348.275-.348,1.028m-.42,1.434a2.5,2.5,0,0,1,.043,2.722c-.97.941-2.375-.261-2.056-1.738.29-1.289,1.187-1.752,2.013-.985" transform="translate(-13377.008 617.874)"/>
    <path id="Path_14263" data-name="Path 14263" d="M282.7,216.054v3h1.839c1.477,0,1.839-.072,1.839-.348s-.319-.348-1.506-.348h-1.506v-2.65c0-2.215-.072-2.65-.348-2.65s-.319.478-.319,3" transform="translate(-13458.765 617.874)"/>
    <path id="Path_14264" data-name="Path 14264" d="M343.2,213.3a.348.348,0,1,0,.348-.348.374.374,0,0,0-.348.348" transform="translate(-13510.505 617.96)"/>
    <path id="Path_14265" data-name="Path 14265" d="M238.948,215.831v1.274h-1.274c-.97,0-1.274.072-1.274.348s.3.348,1.274.348h1.274v1.274c0,.7.116,1.274.232,1.274.145,0,.232-.579.232-1.274V217.8h1.39c1.086,0,1.39-.072,1.39-.348s-.3-.348-1.39-.348h-1.39v-1.274c0-.7-.087-1.274-.232-1.274-.116,0-.232.579-.232,1.274" transform="translate(-13419.169 616.591)"/>
    <path id="Path_14266" data-name="Path 14266" d="M218.123,216.818c0,.376-.145.579-.348.579-.434,0-.434.362,0,.536.232.116.348.623.391,1.94.072,1.665.116,1.8.594,1.868.579.087.7-.3.159-.507-.261-.087-.348-.507-.348-1.636s.087-1.549.348-1.636c.188-.087.348-.232.348-.348s-.159-.2-.348-.2-.348-.2-.348-.579c0-.319-.087-.579-.232-.579-.1-.014-.217.246-.217.565" transform="translate(-13402.963 615.141)"/>
    <path id="Path_14267" data-name="Path 14267" d="M88.3,226.258c0,1.318.087,2.186.232,2.186s.232-.594.232-1.332c0-1.39.434-2.36,1.057-2.36a.32.32,0,0,0,.319-.348c0-.463-.434-.434-.97.043-.391.348-.42.348-.42,0,0-.232-.087-.391-.232-.391s-.217.9-.217,2.2" transform="translate(-13292.514 608.467)"/>
    <path id="Path_14268" data-name="Path 14268" d="M138.531,224.56a1.32,1.32,0,0,0-.391.7c0,.434.42.319.7-.188.478-.9,2.36-.376,1.984.579-.072.2-.42.348-.811.348-1.622,0-2.476.941-1.868,2.056.188.362.463.478,1.1.478a2.051,2.051,0,0,0,1.158-.275c.2-.2.348-.2.55,0,.319.319,1.1.376,1.1.072,0-.116-.159-.261-.348-.348-.261-.087-.348-.507-.348-1.709a4.028,4.028,0,0,0-.275-1.839,2.485,2.485,0,0,0-2.548.13m2,3.07c-.536.594-1.781.507-1.9-.116-.116-.579.232-.883,1.274-1.043.738-.145.9-.087.941.275a1.158,1.158,0,0,1-.319.883" transform="translate(-13334.969 608.398)"/>
    <path id="Path_14269" data-name="Path 14269" d="M171.1,226.341c0,1.8.072,2.186.348,2.186s.348-.319.348-1.564c0-1.622.232-2.129.97-2.129a.408.408,0,0,0,.42-.348c0-.463-.55-.434-1.014.029-.348.319-.376.319-.376,0a.347.347,0,0,0-.348-.362c-.275,0-.348.391-.348,2.186" transform="translate(-13363.324 608.383)"/>
    <path id="Path_14270" data-name="Path 14270" d="M310.259,224.845a2.523,2.523,0,0,0-.478,1.593c0,1.39.666,2.186,1.868,2.186.883,0,1.825-.594,1.825-1.158,0-.391-.579-.261-.883.232a1.207,1.207,0,0,1-2.129-.71c0-.391.188-.434,1.593-.434h1.593l-.2-.854a1.6,1.6,0,0,0-1.853-1.448,1.382,1.382,0,0,0-1.332.594m2.375.362c.55.782.463.883-.9.883s-1.564-.232-.883-.97a1.1,1.1,0,0,1,1.549-.159.75.75,0,0,1,.232.246" transform="translate(-13481.923 608.302)"/>
    <path id="Path_14271" data-name="Path 14271" d="M343.2,226.343c0,1.8.072,2.186.348,2.186s.348-.391.348-2.186-.072-2.186-.348-2.186-.348.391-.348,2.186" transform="translate(-13510.505 608.381)"/>
    <path id="Path_14272" data-name="Path 14272" d="M356,226.258c0,1.593.072,2.186.3,2.186.188,0,.261-.391.2-1.318-.072-1.448.3-2.447.941-2.563.811-.159,1.086.391,1.086,2.172,0,1.332.072,1.709.348,1.709s.347-.391.391-1.752c.043-1.39.159-1.824.478-2.027a.652.652,0,0,1,.811,0c.3.2.42.652.463,2.027s.145,1.752.391,1.752c.507,0,.478-3.5-.029-4.011a1.547,1.547,0,0,0-1.94-.029c-.261.3-.319.3-.623,0-.362-.391-1.593-.463-1.8-.116a.547.547,0,0,1-.376.232c-.145,0-.159-.116-.087-.232.072-.145-.029-.232-.2-.232-.29.014-.362.391-.362,2.2" transform="translate(-13521.451 608.467)"/>
    <path id="Path_14273" data-name="Path 14273" d="M403.391,224.509a2.526,2.526,0,0,0-.507,2.606,1.641,1.641,0,0,0,1.839,1.274c.738,0,2.215-1.158,1.68-1.318-.159-.072-.478.116-.739.362a1.235,1.235,0,0,1-1.955-.029c-.666-.941-.478-1.1,1.245-1.1,1.549,0,1.622-.029,1.622-.55a2.23,2.23,0,0,0-.478-1.158,1.88,1.88,0,0,0-2.708-.087m2.129.319c.71.71.463,1.014-.9,1.014s-1.549-.188-.811-.927a1.133,1.133,0,0,1,1.709-.087" transform="translate(-13561.414 608.536)"/>
    <path id="Path_14274" data-name="Path 14274" d="M435.7,226.258c0,1.8.072,2.186.348,2.186s.348-.3.348-1.361c0-1.68.145-2.071.825-2.36.3-.087.55-.3.55-.434,0-.348-.478-.275-.97.159-.391.348-.42.348-.42,0a.36.36,0,0,0-.333-.391c-.275.014-.348.405-.348,2.2" transform="translate(-13589.61 608.467)"/>
  </g>
</svg>
