<svg xmlns="http://www.w3.org/2000/svg" width="57.92" height="37.192" viewBox="0 0 57.92 37.192">
  <g id="Group_5788" data-name="Group 5788" transform="translate(13209.76 -961.662)">
    <path id="Path_14301" data-name="Path 14301" d="M56.381,1116.377c-4.158,1.494-6.648,5.837-6.358,11.176a5.422,5.422,0,0,0,.707,2.849,5.785,5.785,0,0,0,3.278,2.745c1.888.5,4.9-.1,5.768-1.147.417-.5.6-.394.7.336l.058.695h2.93l.672-3.973c.359-2.2.672-4.227.672-4.563l.023-.568H58.408l-.127.88c-.058.5-.185,1.3-.266,1.772l-.151.9h.984c.521,0,.961.058.961.127,0,.753-1.61,1.76-2.8,1.76-1.506,0-2.641-1.8-2.316-3.718.649-3.926,1.8-5.687,3.741-5.687.9,0,2,.915,2,1.656,0,.417.1.44,2.316.44h2.34l-.15-1.089a5.321,5.321,0,0,0-1.378-3.174,5.033,5.033,0,0,0-4.181-1.737,6.359,6.359,0,0,0-3,.313" transform="translate(-13259.76 -154.342)"/>
    <path id="Path_14302" data-name="Path 14302" d="M278.151,1116.063a6.132,6.132,0,0,0-4.9,5.629,3.151,3.151,0,0,0,.394,2.108c.625,1.216,1.448,1.737,3.915,2.525,2.386.753,2.953,1.089,2.953,1.714,0,.9-.753,1.4-2.1,1.4-.9,0-1.888-.695-1.888-1.355,0-.266-.371-.313-2.316-.313h-2.34l.1,1.019a4.891,4.891,0,0,0,3.579,4.227,11.7,11.7,0,0,0,5.664-.417,6.077,6.077,0,0,0,3.973-5.733c.023-1.251-.058-1.61-.463-2.177a7.516,7.516,0,0,0-4.019-2.282c-1.946-.568-2.421-.8-2.722-1.344-.5-.938.776-1.691,2.3-1.355a1.063,1.063,0,0,1,.9.753l.232.6h4.308v-.834a4.227,4.227,0,0,0-2.409-3.822,10.853,10.853,0,0,0-5.177-.347" transform="translate(-13449.507 -154.236)"/>
    <path id="Path_14303" data-name="Path 14303" d="M164.956,1118.837c-.058.313-.394,2.548-.753,4.98-.371,2.409-.88,5.756-1.17,7.424-.266,1.668-.5,3.162-.5,3.3,0,.232.857.266,4.459.208,4.285-.058,4.471-.081,5.606-.6,3.347-1.564,5.247-5,5.293-9.6.023-1.865-.046-2.34-.44-3.139a4.263,4.263,0,0,0-2.513-2.467c-1.17-.544-1.343-.567-5.536-.625l-4.308-.081Zm6.88,3.5c1.089.463,1.448,1.344,1.3,3.324a6.679,6.679,0,0,1-.753,2.965,3.511,3.511,0,0,1-3.393,2.339c-1.193.127-1.274.1-1.17-.266.081-.208.371-2.05.672-4.054.753-5.084.591-4.6,1.691-4.6a4.7,4.7,0,0,1,1.656.29" transform="translate(-13356 -156.234)"/>
    <path id="Path_14304" data-name="Path 14304" d="M227.561,1233.062a7.143,7.143,0,0,0-3.116,3.683c-1.17,3.683.185,6.729,3.092,6.984a4.9,4.9,0,0,0,4.054-1.482,5.477,5.477,0,0,0,1.506-2.652c0-.127-.568-.208-1.355-.208-1.274,0-1.355.023-1.668.6-.626,1.239-1.842,1.633-2.618.857-.486-.487-.591-2.235-.209-3.6.313-1.065,1.274-2.05,2.027-2.05a1.409,1.409,0,0,1,1.378,1.239c.023.394.151.44,1.459.44h1.471l-.1-1.066a3.309,3.309,0,0,0-1.506-2.571,5.706,5.706,0,0,0-4.413-.174" transform="translate(-13408.588 -254.129)"/>
    <path id="Path_14305" data-name="Path 14305" d="M296.241,1253.118a4.914,4.914,0,0,0-3.011,4.644c0,4.019,5.374,4.459,7.32.591a6.011,6.011,0,0,0,.463-1.992,2.872,2.872,0,0,0-1.448-3.034,4.79,4.79,0,0,0-3.324-.208m1.737,2.027c.753.695.255,3.428-.707,3.741-1.019.313-1.506-.486-1.274-2.177a1.922,1.922,0,0,1,.73-1.4c.73-.625.753-.625,1.251-.162" transform="translate(-13467.771 -271.416)"/>
    <path id="Path_14306" data-name="Path 14306" d="M355.741,1253.511l-.73.73.081-.625.1-.625h-1.216c-1.216,0-1.216,0-1.344.672-.208,1.3-.938,6.463-.938,6.775,0,.231.29.289,1.239.289h1.239l.255-1.425c.463-2.745,1.019-3.6,2.3-3.6.521,0,.544-.081.73-1.633l.151-1.3h-.568a2.047,2.047,0,0,0-1.309.741" transform="translate(-13517.773 -271.289)"/>
    <path id="Path_14307" data-name="Path 14307" d="M391.958,1253.342c-.706.486-.753.486-.753.1,0-.359-.151-.417-1.147-.417-1.112,0-1.135,0-1.239.672-.185,1.193-1.216,7.968-1.32,8.779l-.127.8h1.274c1.424,0,1.378.046,1.633-1.772.185-1.378.232-1.448.857-.938a1.93,1.93,0,0,0,.984.417,5.138,5.138,0,0,0,2.571-1.274c1.529-1.656,1.691-5.374.313-6.463a2.673,2.673,0,0,0-3.046.093m1.3,2.884c.081,1.008-.5,2.212-1.135,2.363-.776.209-1.135-.255-1.135-1.425a1.843,1.843,0,0,1,.625-1.668c.591-.591.672-.6,1.112-.313a1.235,1.235,0,0,1,.533,1.042" transform="translate(-13548.28 -271.328)"/>
    <path id="Path_14308" data-name="Path 14308" d="M53.229,1353.09a1.489,1.489,0,0,0,.834,2.513c.961,0,1.251-.208,1.251-.857,0-.544-.081-.6-.649-.6-.359,0-.591.081-.5.208a.572.572,0,0,0,.44.208c.5,0,.313.394-.266.544-.915.255-1.483-.961-.776-1.668.371-.371.834-.44,1.019-.127a.64.64,0,0,0,.487.208c.289-.023.266-.081-.151-.417a1.1,1.1,0,0,0-1.691-.012" transform="translate(-13262.167 -356.749)"/>
    <path id="Path_14309" data-name="Path 14309" d="M214.652,1352.933a5.475,5.475,0,0,0-.127,1.459c0,1.019.058,1.32.313,1.32s.313-.29.313-1.344c0-1.251-.162-1.749-.5-1.436" transform="translate(-13400.462 -356.87)"/>
    <path id="Path_14310" data-name="Path 14310" d="M165.064,1354.189c-.058.29-.232.359-.6.29-.672-.127-1.042.6-.753,1.459.185.486.313.567,1.019.567h.811v-1.355c.012-1.3-.243-1.818-.475-.961m-.081.9c.127.44-.081,1.008-.394,1.008-.371,0-.591-.5-.417-.938a.435.435,0,0,1,.811-.07" transform="translate(-13356.919 -357.663)"/>
    <path id="Path_14311" data-name="Path 14311" d="M195.729,1355.3c0,.776.081,1.355.209,1.355s.208-.266.208-.625c0-.568.058-.625.626-.625.359,0,.625-.1.625-.208,0-.127-.266-.208-.625-.208-.487,0-.626-.1-.626-.394,0-.313.162-.44.8-.5.706-.058.695-.081-.208-.1l-1.008-.046Z" transform="translate(-13384.388 -357.818)"/>
    <path id="Path_14312" data-name="Path 14312" d="M302.589,1355.237v1.355h.695c.984,0,1.448-.394,1.459-1.3.023-1.019-.359-1.424-1.343-1.424h-.811Zm1.425-.9c.371.371.313,1.563-.081,1.714-.753.29-.915.151-.915-.776a2.209,2.209,0,0,1,.151-1.042c.2-.232.579-.162.845.1" transform="translate(-13475.774 -357.749)"/>
    <path id="Path_14313" data-name="Path 14313" d="M343.234,1355.016c-.255.162-.313.591-.151,1.482.046.29.1.649.1.776.023.151.232.266.486.266.359,0,.394-.058.208-.255-.266-.266-.336-1.355-.081-1.459.081-.046.058-.267-.058-.521-.15-.266-.347-.394-.51-.29" transform="translate(-13510.327 -358.698)"/>
    <path id="Path_14314" data-name="Path 14314" d="M393.26,1354.479a3.506,3.506,0,0,0-.1,1.4c.058.811.162,1.008.486,1.008.209,0,.394-.1.394-.208a.2.2,0,0,0-.185-.208h-.023c-.313,0-.255-1.193.058-1.32.162-.081.185-.162.023-.29a1.115,1.115,0,0,1-.336-.487c-.081-.255-.139-.231-.313.1" transform="translate(-13553.207 -358.034)"/>
    <path id="Path_14315" data-name="Path 14315" d="M405.754,1354.13a.429.429,0,0,0,.394-.023c.081-.058-.046-.127-.266-.1-.232,0-.3.069-.127.127" transform="translate(-13563.918 -357.859)"/>
    <path id="Path_14316" data-name="Path 14316" d="M77.525,1358.673a.313.313,0,0,0,0,.371.153.153,0,0,0,.255-.081c.1-.266.9-.127.9.151,0,.1-.266.255-.625.313-.487.1-.626.255-.626.625,0,.44.081.5.834.463l.857-.023-.058-.961c-.058-.915-.1-.961-.73-1.019a1,1,0,0,0-.811.162m.938,1.147a.311.311,0,0,1-.313.313c-.544,0-.371-.417.266-.6.023-.023.046.127.046.29" transform="translate(-13283.22 -361.707)"/>
    <path id="Path_14317" data-name="Path 14317" d="M96.073,1358.533c-.371.371-.127.938.486,1.042.359.081.626.231.626.336,0,.336-.626.417-.984.151-.29-.255-.336-.255-.232.023.127.44,1.089.5,1.425.127.336-.417-.046-.961-.649-.961-.232,0-.394-.1-.394-.232,0-.15.208-.185.544-.1.394.1.521.058.463-.127a1.152,1.152,0,0,0-1.286-.255" transform="translate(-13299.012 -361.648)"/>
    <path id="Path_14318" data-name="Path 14318" d="M125.694,1358.675c-.232.29-.185.313.394.208.417-.081.649-.058.649.1a.232.232,0,0,1-.232.232c-.162,0-.185.081,0,.266.255.313.1.567-.359.567-.185,0-.255-.127-.162-.336s.023-.29-.127-.255a.552.552,0,0,0-.266.5c0,.313.162.417.857.463l.834.058-.1-1.008c-.1-.88-.185-1.008-.672-1.066a1.1,1.1,0,0,0-.811.266" transform="translate(-13324.382 -361.627)"/>
    <path id="Path_14319" data-name="Path 14319" d="M144.6,1359.07c0,.151-.023.6-.058,1.019-.046.568.023.8.232.8.185,0,.266-.266.266-.857,0-.695.058-.834.371-.776.359.058.371.151.44,1.112,0,.29.127.521.232.521.232,0,.29-1.865.058-1.9-.788-.162-1.517-.1-1.54.081" transform="translate(-13340.597 -362.045)"/>
    <path id="Path_14320" data-name="Path 14320" d="M226.229,1358.409c-.313.313-.1.463.487.336.359-.058.625-.023.625.081,0,.127-.29.266-.649.359-.521.1-.625.209-.568.591s.209.486.857.521c.753.023.776,0,.776-.672,0-1.042-.185-1.355-.811-1.355a1.31,1.31,0,0,0-.718.139m1.008,1.112c.058.127-.023.267-.209.336-.394.162-.625,0-.417-.313a.339.339,0,0,1,.625-.023" transform="translate(-13410.347 -361.512)"/>
    <path id="Path_14321" data-name="Path 14321" d="M244.84,1359.745c0,1.193.359,1.378.463.255.046-.568.162-.811.44-.857s.359.081.359.776c0,1.065.371,1.135.463.058s.695-1.089.695.023c0,.486.1.776.266.776.266,0,.359-1.4.081-1.8a2.841,2.841,0,0,0-1.448-.232h-1.32Z" transform="translate(-13426.387 -361.922)"/>
    <path id="Path_14322" data-name="Path 14322" d="M271.718,1358.816c-.486.73-.1,1.633.672,1.552.289-.046.591-.162.625-.29.046-.15-.127-.208-.463-.15-.313.058-.521.023-.521-.127,0-.232.185-.29.9-.29.417,0,.486-.568.1-.938a.813.813,0,0,0-1.32.243m1.054.127c.058.1-.058.208-.29.208-.255,0-.44-.1-.44-.208,0-.127.127-.208.29-.208a.539.539,0,0,1,.44.208" transform="translate(-13449.188 -361.561)"/>
    <path id="Path_14323" data-name="Path 14323" d="M324.52,1358.5a1.267,1.267,0,0,0-.255.8,1.292,1.292,0,0,0,.255.8c.313.313,1.147.336,1.344,0,.1-.151,0-.185-.29-.127a.7.7,0,0,1-.695-.162c-.185-.232-.162-.29.151-.336.232,0,.521-.046.649-.046.289-.023.336-.255.185-.811-.116-.429-.973-.486-1.344-.116m1.008.359c0,.255-.591.463-.707.255a.245.245,0,0,1,.023-.313c.174-.2.683-.151.683.058" transform="translate(-13494.312 -361.499)"/>
    <path id="Path_14324" data-name="Path 14324" d="M355.444,1358.768c-.313.834.058,1.563.834,1.563.44,0,.625-.1.625-.336,0-.29-.058-.29-.313-.081s-.394.208-.591.023-.185-.29.046-.417a.693.693,0,0,1,.568-.081c.37.151.544-.289.29-.776a.814.814,0,0,0-1.1-.324.771.771,0,0,0-.359.428m1.123.081c.058.1-.058.232-.29.29-.266.058-.417,0-.417-.185,0-.313.544-.394.706-.1" transform="translate(-13520.881 -361.489)"/>
    <path id="Path_14325" data-name="Path 14325" d="M373.77,1358.617a.988.988,0,0,0,.811,1.714.827.827,0,0,0,.695-.359c.058-.209-.058-.232-.567-.127-.625.127-.649.1-.649-.521s.046-.649.625-.521c.649.151.88-.162.289-.394a.941.941,0,0,0-1.2.208" transform="translate(-13536.369 -361.523)"/>
    <path id="Path_14326" data-name="Path 14326" d="M406.24,1358.939c-.081,1.61-.058,1.842.185,1.842.313,0,.359-1.8.046-1.992-.116-.058-.22.012-.232.151" transform="translate(-13564.38 -361.938)"/>
    <path id="Path_14327" data-name="Path 14327" d="M416.982,1358.512a1.267,1.267,0,0,0-.255.8.943.943,0,1,0,.938-1.042,1.029,1.029,0,0,0-.683.243m1.1.8c0,.6-.672.857-.857.336-.185-.5.081-1.008.486-.915.243.035.371.243.371.579" transform="translate(-13573.385 -361.511)"/>
    <path id="Path_14328" data-name="Path 14328" d="M436.963,1359.243c0,1.216.359,1.424.463.266.046-.568.162-.811.44-.857s.359.081.359.776c0,.625.081.857.313.857.208,0,.313-.209.313-.649,0-1.019-.336-1.448-1.147-1.448h-.73v1.054Z" transform="translate(-13590.69 -361.443)"/>
  </g>
</svg>
