<svg xmlns="http://www.w3.org/2000/svg" width="86.851" height="14.929" viewBox="0 0 86.851 14.929">
  <g id="Group_5784" data-name="Group 5784" transform="translate(12911.105 -805.823)">
    <path id="Path_14280" data-name="Path 14280" d="M2113.106,40.918l.594.956h4.72v5.763c0,3.171-.058,5.763-.13,5.763a6.331,6.331,0,0,1-2.1-1.578,8.755,8.755,0,0,1-1.781-4.749,5.576,5.576,0,0,1,.217-1.39l.217-.753h-1.028c-1.13,0-1.072-.058-1.245,1.419-.391,3.75,2.983,7.732,7.052,8.283l.724.1V39.962h-7.819Z" transform="translate(-15023.633 765.905)"/>
    <path id="Path_14281" data-name="Path 14281" d="M2171.941,47.076v7.4l.724-.1a8.648,8.648,0,0,0,6.675-5.387,8.837,8.837,0,0,0,.246-3.9c-.116-.42-.159-.434-1.086-.434s-.97.014-.883.348a7.378,7.378,0,0,1-2.766,7.66,3.753,3.753,0,0,1-.854.463c-.087,0-.116-2.577-.1-5.72l.043-5.734,2.346-.087,2.346-.087.463-.724c.246-.405.492-.811.579-.927.1-.145-.724-.188-3.808-.188h-3.939v7.414Z" transform="translate(-15074.432 766.161)"/>
    <path id="Path_14282" data-name="Path 14282" d="M2282.527,41.626v.55l2.447.043,2.433.043V55.629h2.476V42.177h4.807V41.062h-12.163Z" transform="translate(-15169.018 764.964)"/>
    <path id="Path_14283" data-name="Path 14283" d="M2389.727,48.345v7.283h2.563V41.062h-2.563Z" transform="translate(-15260.694 764.964)"/>
    <path id="Path_14284" data-name="Path 14284" d="M2430.627,41.626v.565h4.807V55.629H2438V42.177h4.807V41.062h-12.163v.565Z" transform="translate(-15295.672 764.964)"/>
    <path id="Path_14285" data-name="Path 14285" d="M2520.347,41.262c-.246.391-6.82,14.335-6.82,14.466,0,.058.261.13.579.13h.565l1.158-2.4,1.158-2.389h6.241l1.072,2.346,1.072,2.346,1.216.043a4.231,4.231,0,0,0,1.2-.043c0-.058-1.506-3.359-3.359-7.327-2.592-5.618-3.4-7.254-3.664-7.283-.188-.014-.376.029-.42.116m1.144,6.082c.637,1.419,1.158,2.621,1.158,2.679a20.061,20.061,0,0,1-2.563.087,17.316,17.316,0,0,1-2.563-.087c0-.1.579-1.361,1.665-3.663.492-1.057.956-1.839,1.043-1.767.058.072.637,1.3,1.26,2.751" transform="translate(-15366.568 764.895)"/>
    <path id="Path_14286" data-name="Path 14286" d="M2629.527,48.418v7.356h1.115l.029-5.879.043-5.879,5.083,5.792c3.4,3.866,5.2,5.792,5.416,5.792.3,0,.3-.188.3-7.283V41.062H2640.4l-.014,5.227-.043,5.213-4.706-5.213-4.721-5.227h-1.39Z" transform="translate(-15465.771 764.964)"/>
  </g>
</svg>
