<svg xmlns="http://www.w3.org/2000/svg" width="72.399" height="40.573" viewBox="0 0 72.399 40.573">
  <g id="Group_5785" data-name="Group 5785" transform="translate(13217 -880.461)">
    <path id="Path_14287" data-name="Path 14287" d="M39.545,555.691v.579l-19.765-.043L0,556.184v28.931l5.025.043c2.766.029,8.963.043,13.785.043h8.746v-2.273l-1.636-.043c-.9-.029-6.429-.043-12.294-.043s-10.817-.014-10.99-.043l-.333-.043V558.529l12.105.043c6.646.029,15.016.043,18.592.043h6.487v.579a2.592,2.592,0,0,0,.029.579c.029,0,.941-.521,2.042-1.158l2.013-1.158-.3-.174c-.159-.1-1.072-.623-2.013-1.173l-1.709-1Z" transform="translate(-13217 325.349)"/>
    <path id="Path_14288" data-name="Path 14288" d="M241.586,563.055a7.943,7.943,0,0,0-.043,1.173v1.129h21.43l-.014,12.134-.014,12.134-16.666.014-16.667.029v-.579a1.794,1.794,0,0,0-.043-.579c-.058,0-3.968,2.259-3.968,2.3s3.91,2.3,3.968,2.3a1.793,1.793,0,0,0,.043-.579v-.579h35.722l-.014-14.466-.014-14.466-11.845-.015c-6.5,0-11.859.015-11.874.043" transform="translate(-13409.934 318.592)"/>
    <path id="Path_14289" data-name="Path 14289" d="M162.042,623.1c-.275.55-1.173,2.418-2,4.156s-1.535,3.142-1.564,3.142-.854-1.839-1.839-4.083l-1.781-4.083h-1.448a11,11,0,0,0-1.448.043c0,.029.391.927.883,2l.883,1.94-1.057,2.114c-.579,1.173-1.072,2.129-1.1,2.129s-.811-1.767-1.752-3.91-1.767-4-1.824-4.112l-.1-.2h-1.462a8.991,8.991,0,0,0-1.434.058c.014.029,1.187,2.679,2.621,5.864l2.606,5.821H152.8l1.158-2.215c.637-1.216,1.173-2.215,1.173-2.23s.463.985,1.014,2.2l1,2.216,1.3.014,1.3.014,2.824-5.821c1.549-3.2,2.838-5.879,2.853-5.937.029-.1-.072-.1-1.448-.1h-1.448Z" transform="translate(-13341.003 268.05)"/>
    <path id="Path_14290" data-name="Path 14290" d="M271.779,622.273c-.159.318-5.531,11.4-5.589,11.512-.029.058.29.087,1.462.087h1.506l1.984-4.112c1.086-2.259,2-4.127,2.042-4.127s.854,1.839,1.839,4.083L276.8,633.8h1.448a11,11,0,0,0,1.448-.043c0-.029-1.173-2.679-2.621-5.893l-2.621-5.85h-2.534Z" transform="translate(-13444.644 268.136)"/>
    <path id="Path_14291" data-name="Path 14291" d="M356.8,622.152c0,.072,1.129,2.476,1.231,2.592a26.181,26.181,0,0,0,3.75.087h3.692l.2.174a.889.889,0,0,1,.2,1.231c-.261.376-.376.391-2.4.391s-2.3.043-3,.405a4.159,4.159,0,0,0-1.419,1.419c-.362.7-.391.97-.391,3.33v2.129h2.664v-4.59l2.288-.014c2.259-.029,2.273-.029,2.693-.188a3.6,3.6,0,0,0,1.4-.9,3.584,3.584,0,0,0-1.665-5.966c-.319-.1-.869-.1-4.793-.13-3.1-.029-4.46-.014-4.46.029" transform="translate(-13522.136 268.054)"/>
    <path id="Path_14292" data-name="Path 14292" d="M66.416,623.1a3.57,3.57,0,0,0-2.534,4.576A3.56,3.56,0,0,0,66.2,630l.492.174,2.809.029c3.07.029,3.055.029,3.287.42a.92.92,0,0,1-.333,1.245c-.014.014-.029.014-.058.029-.2.1-.55.116-4.416.116-2.3,0-4.2.015-4.2.043s.246.623.536,1.332l.536,1.274h3.881c4.272,0,4.156,0,4.952-.405a3.554,3.554,0,0,0,1.535-4.778,3.983,3.983,0,0,0-.246-.42,3.569,3.569,0,0,0-1.926-1.419,14.8,14.8,0,0,0-3.215-.145,20.356,20.356,0,0,1-3.012-.116.928.928,0,0,1-.232-1.289,1.1,1.1,0,0,1,.3-.275,32.233,32.233,0,0,1,3.881-.1l3.75-.029L73.9,624.35l-.623-1.318H70.021a20.22,20.22,0,0,0-3.606.072" transform="translate(-13271.484 267.275)"/>
    <path id="Path_14293" data-name="Path 14293" d="M141.028,807.5a.356.356,0,0,0-.072.217c0,.275.087.29,1.607.29h1.462l.159.159a.544.544,0,0,1,.043.753l-.043.043-.174.145-1.448.014a8.467,8.467,0,0,0-1.535.087.28.28,0,0,0,.014.405l.029.029a3.352,3.352,0,0,0,.854.058h.724l.854.854c.854.854,1.014.97,1.2.782s.058-.348-.579-.985-.637-.652-.463-.652a1.185,1.185,0,0,0,1.231-1.419,1.021,1.021,0,0,0-.594-.753c-.232-.1-.434-.116-1.723-.116a5.462,5.462,0,0,0-1.549.087" transform="translate(-13337.538 109.582)"/>
    <path id="Path_14294" data-name="Path 14294" d="M173.366,807.6c-.579.319-.666.55-.666,1.9a4.822,4.822,0,0,0,.087,1.274,1.507,1.507,0,0,0,.7.652,10.236,10.236,0,0,0,1.332.014c1.173-.014,1.187-.014,1.4-.188.42-.319.463-.507.463-1.767,0-1.289-.058-1.477-.492-1.767-.261-.159-.275-.174-1.448-.188-.985-.029-1.216-.014-1.376.072m2.548.637c.159.159.159.174.159,1.245s0,1.086-.159,1.245-.174.159-1.231.159h-1.072l-.159-.2c-.159-.188-.159-.217-.159-1.216v-1.014l.188-.188.188-.188h1.072c1.014,0,1.028,0,1.173.159" transform="translate(-13364.693 109.491)"/>
    <path id="Path_14295" data-name="Path 14295" d="M204.972,807.6a.355.355,0,0,0-.072.217c0,.275.087.29,1.607.29,1.347,0,1.448,0,1.607.13a.579.579,0,0,1,.2.319.682.682,0,0,1-.275.637,9.484,9.484,0,0,1-1.549.058c-1.506,0-1.578.015-1.578.29s.087.29,1.593.29c1.578,0,1.636.015,1.781.377a.43.43,0,0,1,0,.376c-.159.376-.217.376-1.781.376-1.506,0-1.593.014-1.593.29s.072.29,1.622.29c1.3,0,1.506-.014,1.738-.116a1.155,1.155,0,0,0,.507-1.549l-.043-.087-.159-.246.145-.217a1.135,1.135,0,0,0-.29-1.578,1.577,1.577,0,0,0-.159-.087c-.232-.1-.434-.116-1.723-.116a5.068,5.068,0,0,0-1.578.058" transform="translate(-13392.23 109.478)"/>
    <path id="Path_14296" data-name="Path 14296" d="M237.823,807.616a1.082,1.082,0,0,0-.449.434c-.174.29-.174.319-.174,1.4,0,1.26.058,1.448.463,1.767.217.174.232.174,1.4.188.449.014.883.014,1.332-.014a1.507,1.507,0,0,0,.7-.652,4.822,4.822,0,0,0,.087-1.274c0-1.231-.058-1.462-.478-1.781l-.232-.188-1.187-.014c-1.1-.014-1.2,0-1.462.13m2.606.623.188.188v1c0,1-.029,1.187-.246,1.347a4.12,4.12,0,0,1-1.173.087c-1.057,0-1.072,0-1.231-.159s-.159-.174-.159-1.245v-1.086l.159-.159c.159-.159.2-.159,1.216-.159h1.057Z" transform="translate(-13419.854 109.523)"/>
    <path id="Path_14297" data-name="Path 14297" d="M267.072,807.509a.355.355,0,0,0-.072.217c0,.261.116.29.941.29h.782v1.651c0,1.723.014,1.8.29,1.8s.29-.072.29-1.8v-1.651h.782a2.45,2.45,0,0,0,.854-.072.328.328,0,0,0,0-.42,20.278,20.278,0,0,0-3.866-.014" transform="translate(-13445.339 109.571)"/>
    <path id="Path_14298" data-name="Path 14298" d="M298.358,807.613a13.714,13.714,0,0,0-.058,1.911c0,1.535.014,1.8.1,1.882a.274.274,0,0,0,.376.043l.014-.014a8.764,8.764,0,0,0,.072-1.926,8.654,8.654,0,0,0-.072-1.926.281.281,0,0,0-.434.029h0" transform="translate(-13472.106 109.511)"/>
    <path id="Path_14299" data-name="Path 14299" d="M308.494,807.616a1.064,1.064,0,0,0-.434.405c-.159.261-.159.3-.159,1.463,0,1.289.014,1.39.362,1.709.3.275.449.3,2,.3,1.231,0,1.477-.014,1.549-.1a.3.3,0,0,0,.1-.188.346.346,0,0,0-.1-.188c-.087-.087-.319-.1-1.506-.1-1.419,0-1.593-.029-1.767-.246a4.249,4.249,0,0,1-.087-1.2v-1.1l.159-.159.174-.159h1.448c1.231,0,1.462-.014,1.549-.1.116-.116.13-.174.043-.348-.058-.116-.159-.116-1.578-.116-1.376-.014-1.491,0-1.752.13" transform="translate(-13480.316 109.523)"/>
    <path id="Path_14300" data-name="Path 14300" d="M339.177,807.65a1.128,1.128,0,0,0-.217,1.882c.29.246.579.29,1.709.29H341.7l.159.2a.64.64,0,0,1,.159.348.954.954,0,0,1-.159.348l-.159.2h-1.434a12.4,12.4,0,0,0-1.549.058.271.271,0,0,0-.145.362c0,.014.014.014.014.029.058.116.159.116,1.607.116,1.68,0,1.824-.029,2.114-.376a1.137,1.137,0,0,0-.232-1.694c-.159-.116-.29-.13-1.39-.159-1.158-.029-1.2-.043-1.361-.188a.568.568,0,0,1-.014-.8l.159-.159h1.462c1.245,0,1.477-.014,1.564-.1.116-.116.13-.174.043-.348-.058-.116-.159-.116-1.578-.116-1.332-.029-1.549,0-1.781.1" transform="translate(-13506.525 109.473)"/>
  </g>
</svg>
