<svg xmlns="http://www.w3.org/2000/svg" xmlns:xlink="http://www.w3.org/1999/xlink" width="86.881" height="24.047" viewBox="0 0 86.881 24.047">
  <defs>
    <clipPath id="clip-path">
      <rect id="Rectangle_3221" data-name="Rectangle 3221" width="79.473" height="5.181"/>
    </clipPath>
  </defs>
  <g id="Group_5786" data-name="Group 5786" transform="translate(13072.627 -887.002)">
    <path id="Path_14329" data-name="Path 14329" d="M997.057,607.7v7.1h1.68l.043-5.662.072-5.662,2.288,3.388c1.245,1.853,2.4,3.533,2.534,3.736.188.246.84-.55,2.766-3.417l2.534-3.75.072,5.676.043,5.676h1.68V600.59h-.811c-.767,0-.883.145-3.272,3.75-1.376,2.042-2.578,3.779-2.65,3.823a27.185,27.185,0,0,1-2.795-3.736c-2.476-3.635-2.635-3.837-3.388-3.837h-.8Z" transform="translate(-14069.684 286.456)"/>
    <path id="Path_14330" data-name="Path 14330" d="M1120.057,607.7v7.1h10.353v-1.448h-8.905v-5.054h7.7v-1.448h-7.7v-4.807h8.659V600.59h-10.107Z" transform="translate(-14174.873 286.456)"/>
    <path id="Path_14331" data-name="Path 14331" d="M1213.157,607.7v7.1h1.68v-5.531h4.04L1220.9,612c1.955,2.664,2.027,2.766,2.939,2.766.912.029.912.029.55-.55-.217-.319-1.158-1.593-2.1-2.795a11.578,11.578,0,0,1-1.564-2.4,2.075,2.075,0,0,1,.768-.362,3.942,3.942,0,0,0,1.68-6.574c-1.13-1.173-2.549-1.491-6.588-1.491h-3.432Zm7.935-5.271a2.668,2.668,0,0,1,.246,4.88c-.767.434-1.3.507-3.707.507h-2.795v-5.777h2.65a10.384,10.384,0,0,1,3.606.391" transform="translate(-14254.492 286.456)"/>
    <path id="Path_14332" data-name="Path 14332" d="M1316.157,607.7v7.1h1.448v-14.2h-1.448Z" transform="translate(-14342.578 286.456)"/>
    <path id="Path_14333" data-name="Path 14333" d="M1356.057,607.443V614.6l3.446-.1c3.084-.072,3.562-.145,4.735-.7a7.273,7.273,0,0,0,3.446-3.2,8.943,8.943,0,0,0,0-6.284,7.185,7.185,0,0,0-3.446-3.2c-1.173-.55-1.737-.623-4.735-.724l-3.446-.1Zm7.11-5.271c4.373,1.491,4.952,7.747.912,10.136-1.057.608-1.39.681-3.852.767l-2.722.072V601.781h2.244a12.211,12.211,0,0,1,3.417.391" transform="translate(-14376.7 286.712)"/>
    <path id="Path_14334" data-name="Path 14334" d="M1465.757,607.7v7.1h1.68v-14.2h-1.68Z" transform="translate(-14470.516 286.456)"/>
    <path id="Path_14335" data-name="Path 14335" d="M1504.849,601.823c-.246.579-1.665,3.678-3.128,6.907s-2.664,5.966-2.664,6.067.319.217.7.217c.623,0,.753-.174,1.535-1.926l.869-1.926,3.9.043,3.9.072.8,1.81c.753,1.738.825,1.81,1.636,1.882l.869.072-.362-.8c-.217-.434-1.636-3.606-3.2-7.052-2.809-6.183-2.838-6.255-3.605-6.328-.7-.072-.825,0-1.231.956m2.824,4.286c.825,1.853,1.491,3.49,1.491,3.606,0,.145-1.231.246-3.128.246s-3.128-.1-3.128-.246a72.651,72.651,0,0,1,3.128-6.979,37.43,37.43,0,0,1,1.636,3.374" transform="translate(-14498.993 286.236)"/>
    <g id="Group_3069" data-name="Group 3069" transform="translate(-13072.624 905.868)" style="isolation: isolate">
      <g id="Group_3068" data-name="Group 3068">
        <g id="Group_3067" data-name="Group 3067" clip-path="url(#clip-path)">
          <text id="INTERACTIVE_SOLUTIONS" data-name="INTERACTIVE SOLUTIONS" transform="translate(0 2.3)" font-size="3" font-family="Outfit-Light, Outfit" font-weight="300"><tspan x="0" y="0" letter-spacing="0.29em">INTE</tspan><tspan y="0" letter-spacing="0.253em">R</tspan><tspan y="0" letter-spacing="0.236em">A</tspan><tspan y="0" letter-spacing="0.27em">C</tspan><tspan y="0" letter-spacing="0.29em">T</tspan><tspan y="0" letter-spacing="0.289em">I</tspan><tspan y="0" letter-spacing="0.29em">VE </tspan><tspan y="0" letter-spacing="0.289em">S</tspan><tspan y="0" letter-spacing="0.29em">O</tspan><tspan y="0" letter-spacing="0.266em">L</tspan><tspan y="0" letter-spacing="0.28em">U</tspan><tspan y="0" letter-spacing="0.29em">TIO</tspan><tspan y="0" letter-spacing="0.276em">N</tspan><tspan y="0">S</tspan></text>
        </g>
      </g>
    </g>
  </g>
</svg>
