<svg xmlns="http://www.w3.org/2000/svg" xmlns:xlink="http://www.w3.org/1999/xlink" width="43.44" height="43.284" viewBox="0 0 43.44 43.284">
  <defs>
    <clipPath id="clip-path">
      <rect id="Rectangle_3222" data-name="Rectangle 3222" width="43.44" height="43.284"/>
    </clipPath>
  </defs>
  <g id="Group_3072" data-name="Group 3072" opacity="0.99">
    <g id="Group_3071" data-name="Group 3071">
      <g id="Group_3070" data-name="Group 3070" clip-path="url(#clip-path)">
        <path id="Path_14391" data-name="Path 14391" d="M2280.25,1606.73a25.741,25.741,0,0,0-9.068,3.99,21.223,21.223,0,0,0-8.705,16.378,19.669,19.669,0,0,0,1.339,9.068,22.152,22.152,0,0,0,14.62,13.253,30.753,30.753,0,0,0,11.3.028,21.928,21.928,0,0,0,.837-42.046c-1.451-.5-2.595-.642-5.72-.7-2.148-.056-4.213-.028-4.6.028m-9.486,19.084c0,.447-.2.558-.837.558h-.837v2.372c0,2.176-.056,2.372-.558,2.372s-.558-.2-.558-2.372c0-2.344,0-2.372-.7-2.372-.5,0-.7-.139-.7-.558,0-.5.2-.558,2.093-.558s2.093.056,2.093.558m5.022,1.4.446,1.786.5-1.87c.614-2.26,1.2-2.427,1.758-.474.614,2.148.7,2.176,1.172.418.307-1.144.614-1.7.949-1.758.642-.139.586.614-.2,3.432-.5,1.785-.725,2.26-1.2,2.316-.418.056-.614-.112-.726-.7a9.728,9.728,0,0,0-.5-1.618l-.335-.837-.446,1.535c-.363,1.144-.614,1.563-1.032,1.618-.5.084-.642-.223-1.228-2.511-.335-1.423-.7-2.762-.781-2.958-.084-.279.056-.363.53-.279.53.056.726.363,1.088,1.9m9.849-1.088a4.3,4.3,0,0,1-.168,4.325c-1.479,1.73-3.822.5-3.822-2.009,0-1.423.614-2.79,1.311-2.985a2.967,2.967,0,0,1,2.679.669m5.078-.167c.837.809.893,1.618.167,2.344-.474.474-.474.53,0,1.451.669,1.256.642,1.423-.084,1.311-.419-.056-.809-.447-1.144-1.144-.67-1.423-1.312-1.367-1.312.084,0,.921-.084,1.116-.558,1.116-.53,0-.558-.2-.558-2.93v-2.929h1.4c1.144,0,1.562.139,2.092.7m2.985.558.084,1.256.977-1.228c.642-.809,1.2-1.255,1.618-1.283.781,0,.781.307.028,1-1.172,1.06-1.2,1.423-.14,3.208l.977,1.646h-.67c-.5,0-.865-.307-1.423-1.256-.67-1.172-.753-1.228-1.116-.781a2.566,2.566,0,0,0-.391,1.256c0,.586-.14.781-.558.781-.53,0-.558-.2-.558-2.93,0-2.706.028-2.929.53-2.929.446,0,.558.223.642,1.255m7.338-.893c.781.586.279,1-1,.837-1.06-.167-1.144-.111-1.032.5.056.474.307.7.977.837,1.228.251,1.758.725,1.758,1.646,0,1.367-1.4,2.12-3.1,1.674-1.144-.307-1.283-.53-.753-1.06.223-.223.475-.223.837-.028a1.909,1.909,0,0,0,1.256.112c1.032-.251.7-1.06-.558-1.339-1.339-.335-1.981-1.228-1.618-2.232a2.2,2.2,0,0,1,3.237-.949m-27.482,3.264c0,.474-.2.558-1.255.558s-1.256-.084-1.256-.558.2-.558,1.256-.558,1.255.084,1.255.558" transform="translate(-2262.427 -1606.672)"/>
        <path id="Path_14392" data-name="Path 14392" d="M2404.115,1743.2c-.335.865-.167,2.9.251,3.181.725.474,1.228.112,1.451-1,.307-1.423-.14-2.651-.921-2.651a.939.939,0,0,0-.781.474" transform="translate(-2383.446 -1723.024)"/>
        <path id="Path_14393" data-name="Path 14393" d="M2441.391,1743.422c0,.586.139.7.809.7a1.475,1.475,0,0,0,1-.279c.279-.446-.419-1.116-1.144-1.116-.53,0-.67.139-.67.7" transform="translate(-2415.478 -1723.025)"/>
      </g>
    </g>
  </g>
</svg>
